G04 #@! TF.GenerationSoftware,KiCad,Pcbnew,(5.1.9)-1*
G04 #@! TF.CreationDate,2021-04-15T23:23:49+09:00*
G04 #@! TF.ProjectId,ProMicro__________,50726f4d-6963-4726-9ffa-7f5fe6e135fa,rev?*
G04 #@! TF.SameCoordinates,Original*
G04 #@! TF.FileFunction,Profile,NP*
%FSLAX46Y46*%
G04 Gerber Fmt 4.6, Leading zero omitted, Abs format (unit mm)*
G04 Created by KiCad (PCBNEW (5.1.9)-1) date 2021-04-15 23:23:49*
%MOMM*%
%LPD*%
G01*
G04 APERTURE LIST*
G04 #@! TA.AperFunction,Profile*
%ADD10C,0.050000*%
G04 #@! TD*
G04 APERTURE END LIST*
D10*
X21000000Y84700000D02*
X24200000Y84700000D01*
X22100000Y83700000D02*
G75*
G03*
X22100000Y83700000I-500000J0D01*
G01*
X21000000Y82700000D02*
X24200000Y82700000D01*
X24100000Y83700000D02*
G75*
G03*
X24100000Y83700000I-500000J0D01*
G01*
X21000000Y46600000D02*
X24200000Y46600000D01*
X22100000Y45600000D02*
G75*
G03*
X22100000Y45600000I-500000J0D01*
G01*
X21000000Y44600000D02*
X24200000Y44600000D01*
X24100000Y45600000D02*
G75*
G03*
X24100000Y45600000I-500000J0D01*
G01*
X24100000Y5500000D02*
G75*
G03*
X24100000Y5500000I-500000J0D01*
G01*
X22100000Y5500000D02*
G75*
G03*
X22100000Y5500000I-500000J0D01*
G01*
X21000000Y4500000D02*
X24200000Y4500000D01*
X21000000Y6500000D02*
X24200000Y6500000D01*
X21500000Y1500000D02*
X21500000Y0D01*
X21500000Y9500000D02*
X21500000Y41600000D01*
X21500000Y49600000D02*
X21500000Y79700000D01*
X21000000Y9500000D02*
X21000000Y6500000D01*
X21000000Y49600000D02*
X21000000Y46600000D01*
X21000000Y9500000D02*
X21500000Y9500000D01*
X21000000Y49600000D02*
X21500000Y49600000D01*
X21000000Y4500000D02*
X21000000Y1500000D01*
X21000000Y44600000D02*
X21000000Y41600000D01*
X21000000Y1500000D02*
X21500000Y1500000D01*
X21000000Y41600000D02*
X21500000Y41600000D01*
X21000000Y87700000D02*
X21500000Y87700000D01*
X21000000Y79700000D02*
X21500000Y79700000D01*
X21000000Y87700000D02*
X21000000Y84700000D01*
X21000000Y82700000D02*
X21000000Y79700000D01*
X0Y96000000D02*
G75*
G02*
X2000000Y98000000I2000000J0D01*
G01*
X21500000Y0D02*
G75*
G02*
X19500000Y-2000000I-2000000J0D01*
G01*
X2000000Y-2000000D02*
G75*
G02*
X0Y0I0J2000000D01*
G01*
X19500000Y98000000D02*
G75*
G02*
X21500000Y96000000I0J-2000000D01*
G01*
X21500000Y87700000D02*
X21500000Y96000000D01*
X2000000Y98000000D02*
X19500000Y98000000D01*
X0Y0D02*
X0Y96000000D01*
X2000000Y-2000000D02*
X19500000Y-2000000D01*
X23700000Y87700000D02*
X23700000Y96000000D01*
X23700000Y79700000D02*
X23700000Y49600000D01*
X24200000Y84700000D02*
X24200000Y87700000D01*
X23700000Y79700000D02*
X24200000Y79700000D01*
X24200000Y79700000D02*
X24200000Y82700000D01*
X24200000Y87700000D02*
X23700000Y87700000D01*
X24200000Y49600000D02*
X23700000Y49600000D01*
X23700000Y41600000D02*
X24200000Y41600000D01*
X24200000Y46600000D02*
X24200000Y49600000D01*
X24200000Y41600000D02*
X24200000Y44600000D01*
X23700000Y1500000D02*
X23700000Y0D01*
X24200000Y9500000D02*
X23700000Y9500000D01*
X24200000Y6500000D02*
X24200000Y9500000D01*
X24200000Y1500000D02*
X24200000Y4500000D01*
X23700000Y1500000D02*
X24200000Y1500000D01*
X23700000Y9500000D02*
X23700000Y41600000D01*
X25700000Y-2000000D02*
G75*
G02*
X23700000Y0I0J2000000D01*
G01*
X76087500Y0D02*
G75*
G02*
X74087500Y-2000000I-2000000J0D01*
G01*
X74087500Y98000000D02*
G75*
G02*
X76087500Y96000000I0J-2000000D01*
G01*
X23700000Y96000000D02*
G75*
G02*
X25700000Y98000000I2000000J0D01*
G01*
X74087500Y98000000D02*
X25700000Y98000000D01*
X76087500Y0D02*
X76087500Y96000000D01*
X25700000Y-2000000D02*
X74087500Y-2000000D01*
M02*
