M48
; DRILL file {KiCad (5.1.9)-1} date 04/15/21 23:24:46
; FORMAT={3:3/ absolute / metric / suppress leading zeros}
; #@! TF.CreationDate,2021-04-15T23:24:46+09:00
; #@! TF.GenerationSoftware,Kicad,Pcbnew,(5.1.9)-1
FMAT,2
METRIC,TZ
T1C0.600
T2C0.800
T3C0.850
T4C0.900
T5C1.200
T6C1.500
T7C1.200
T8C1.700
T9C1.900
T10C2.200
T11C4.000
T12C4.100
%
G90
G05
T1
X36468Y34091
X38968Y34091
X39607Y38109
X42107Y38109
X43968Y34091
X46468Y34091
X47107Y38109
X48968Y34091
X49607Y38109
X52107Y38109
X55518Y34091
X58018Y34091
X58657Y38109
X61157Y38109
X62018Y34091
X64518Y34091
X65157Y38109
X67018Y34091
X67657Y38109
X70157Y38109
T2
X2600Y92803
X2600Y90263
X2600Y87723
X2600Y85183
X2600Y82643
X2600Y80103
X2600Y77563
X2600Y75023
X2600Y72483
X2600Y69943
X2600Y67403
X2600Y64863
X7060Y61070
X8750Y89620
X8750Y82000
X9600Y61070
X12140Y61070
X12500Y89620
X12500Y82000
X14680Y61070
X17820Y92803
X17820Y90263
X17820Y87723
X17820Y85183
X17820Y82643
X17820Y80103
X17820Y77563
X17820Y75023
X17820Y72483
X17820Y69943
X17820Y67403
X17820Y64863
T3
X3130Y25095
X18370Y25095
T4
X10750Y53920
X10750Y51380
X10750Y48840
X10750Y46300
X10750Y43760
X10750Y41220
X10750Y38680
X10750Y36140
X10750Y33600
X10750Y22320
X10750Y19780
X10750Y17240
X10750Y14700
X10750Y12160
X10750Y9620
X10750Y7080
X10750Y4540
X10750Y2000
X74818Y92900
X74818Y90360
X74818Y87820
X74818Y85280
X74818Y82740
X74818Y80200
X74818Y77660
X74818Y75120
T5
X10750Y70110
X10750Y63610
T6
X36584Y48140
X36584Y29090
X38965Y67190
X41346Y10040
X42934Y50680
X42934Y31630
X43728Y86240
X45315Y69730
X47696Y12580
X50078Y88780
X62778Y86240
X62778Y67190
X62778Y48140
X62778Y29090
X62778Y10040
X69128Y88780
X69128Y69730
X69128Y50680
X69128Y31630
X69128Y12580
T7
X5310Y8500
X5310Y1500
X17200Y8500
X17200Y1500
T8
X35314Y45600
X35314Y26550
X37695Y64650
X40076Y7500
X42457Y83700
X45474Y45600
X45474Y26550
X47855Y64650
X50236Y7500
X52618Y83700
X61508Y83700
X61508Y64650
X61508Y45600
X61508Y26550
X61508Y7500
X71668Y83700
X71668Y64650
X71668Y45600
X71668Y26550
X71668Y7500
T9
X34894Y45600
X34894Y26550
X37275Y64650
X39656Y7500
X42038Y83700
X45894Y45600
X45894Y26550
X48275Y64650
X50656Y7500
X53038Y83700
X61088Y83700
X61088Y64650
X61088Y45600
X61088Y26550
X61088Y7500
X72087Y83700
X72087Y64650
X72087Y45600
X72087Y26550
X72087Y7500
T10
X10750Y94250
X10750Y57450
X10750Y26575
T11
X40394Y45600
X40394Y26550
X42775Y64650
X45156Y7500
X47537Y83700
X66587Y83700
X66587Y64650
X66587Y45600
X66587Y26550
X66587Y7500
T12
X38038Y74200
X38038Y55150
X38038Y17050
X57088Y74200
X57088Y55150
X57088Y17050
T1
G00X3210Y9850
M15
G01X3210Y10750
M16
G05
G00X3210Y5850
M15
G01X3210Y6750
M16
G05
G00X3210Y2850
M15
G01X3210Y3750
M16
G05
G00X7410Y11350
M15
G01X7410Y12250
M16
G05
G00X9850Y79130
M15
G01X9650Y79130
M16
G05
G00X9850Y77130
M15
G01X9650Y77130
M16
G05
G00X9850Y75130
M15
G01X9650Y75130
M16
G05
G00X9850Y73130
M15
G01X9650Y73130
M16
G05
G00X11850Y79130
M15
G01X11650Y79130
M16
G05
G00X11850Y77130
M15
G01X11650Y77130
M16
G05
G00X11850Y75130
M15
G01X11650Y75130
M16
G05
G00X11850Y73130
M15
G01X11650Y73130
M16
G05
G00X15100Y9850
M15
G01X15100Y10750
M16
G05
G00X15100Y5850
M15
G01X15100Y6750
M16
G05
G00X15100Y2850
M15
G01X15100Y3750
M16
G05
G00X19300Y11350
M15
G01X19300Y12250
M16
G05
T0
M30
