G04 #@! TF.GenerationSoftware,KiCad,Pcbnew,(5.1.9)-1*
G04 #@! TF.CreationDate,2021-04-15T23:23:49+09:00*
G04 #@! TF.ProjectId,ProMicro__________,50726f4d-6963-4726-9ffa-7f5fe6e135fa,rev?*
G04 #@! TF.SameCoordinates,Original*
G04 #@! TF.FileFunction,Soldermask,Bot*
G04 #@! TF.FilePolarity,Negative*
%FSLAX46Y46*%
G04 Gerber Fmt 4.6, Leading zero omitted, Abs format (unit mm)*
G04 Created by KiCad (PCBNEW (5.1.9)-1) date 2021-04-15 23:23:49*
%MOMM*%
%LPD*%
G01*
G04 APERTURE LIST*
%ADD10O,1.600000X1.190000*%
%ADD11C,2.200000*%
%ADD12O,1.900000X1.700000*%
%ADD13O,1.800000X1.439000*%
%ADD14C,1.850000*%
%ADD15O,1.500000X2.300000*%
%ADD16C,1.200000*%
%ADD17O,1.439000X1.800000*%
%ADD18C,1.800000*%
%ADD19C,1.700000*%
%ADD20C,2.500000*%
%ADD21C,1.900000*%
%ADD22C,4.000000*%
%ADD23C,4.100000*%
%ADD24C,1.600000*%
G04 APERTURE END LIST*
D10*
X9750000Y73130000D03*
X9750000Y75130000D03*
X9750000Y77130000D03*
X9750000Y79130000D03*
X11750000Y73130000D03*
X11750000Y75130000D03*
X11750000Y77130000D03*
X11750000Y79130000D03*
D11*
X10750000Y94250000D03*
X10750000Y57450000D03*
X10750000Y26575000D03*
D12*
X10750000Y2000000D03*
X10750000Y4540000D03*
X10750000Y7080000D03*
X10750000Y9620000D03*
X10750000Y12160000D03*
X10750000Y14700000D03*
X10750000Y17240000D03*
X10750000Y19780000D03*
X10750000Y22320000D03*
X10750000Y53920000D03*
X10750000Y51380000D03*
X10750000Y48840000D03*
X10750000Y46300000D03*
X10750000Y43760000D03*
X10750000Y41220000D03*
X10750000Y38680000D03*
X10750000Y36140000D03*
X10750000Y33600000D03*
D13*
X2600000Y92803000D03*
X17820000Y92803000D03*
X17820000Y90263000D03*
X17820000Y87723000D03*
X17820000Y85183000D03*
X17820000Y82643000D03*
X17820000Y80103000D03*
X17820000Y77563000D03*
X17820000Y75023000D03*
X17820000Y72483000D03*
X17820000Y69943000D03*
X17820000Y67403000D03*
X17820000Y64863000D03*
X2600000Y90263000D03*
X2600000Y87723000D03*
X2600000Y85183000D03*
X2600000Y82643000D03*
X2600000Y80103000D03*
X2600000Y77563000D03*
X2600000Y75023000D03*
X2600000Y72483000D03*
X2600000Y69943000D03*
X2600000Y67403000D03*
X2600000Y64863000D03*
D14*
X3130000Y25095000D03*
X18370000Y25095000D03*
D15*
X19300000Y11800000D03*
X15100000Y10300000D03*
X15100000Y6300000D03*
X15100000Y3300000D03*
D16*
X17200000Y8500000D03*
X17200000Y1500000D03*
D15*
X7410000Y11800000D03*
X3210000Y10300000D03*
X3210000Y6300000D03*
X3210000Y3300000D03*
D16*
X5310000Y8500000D03*
X5310000Y1500000D03*
D17*
X7060000Y61070000D03*
X9600000Y61070000D03*
X12140000Y61070000D03*
X14680000Y61070000D03*
D18*
X12500000Y89620000D03*
X12500000Y82000000D03*
X8750000Y82000000D03*
X8750000Y89620000D03*
D11*
X10750000Y70110000D03*
X10750000Y63610000D03*
D19*
X35313750Y26550000D03*
X45473750Y26550000D03*
D20*
X36583750Y29090000D03*
X42933750Y31630000D03*
D21*
X45893750Y26550000D03*
X34893750Y26550000D03*
D22*
X40393750Y26550000D03*
D23*
X57087500Y74200000D03*
X38037500Y74200000D03*
X38037500Y55150000D03*
X57087500Y55150000D03*
X38037500Y17050000D03*
X57087500Y17050000D03*
D19*
X61507500Y26550000D03*
X71667500Y26550000D03*
D20*
X62777500Y29090000D03*
X69127500Y31630000D03*
D21*
X72087500Y26550000D03*
X61087500Y26550000D03*
D22*
X66587500Y26550000D03*
D19*
X61507500Y64650000D03*
X71667500Y64650000D03*
D20*
X62777500Y67190000D03*
X69127500Y69730000D03*
D21*
X72087500Y64650000D03*
X61087500Y64650000D03*
D22*
X66587500Y64650000D03*
D19*
X61507500Y83700000D03*
X71667500Y83700000D03*
D20*
X62777500Y86240000D03*
X69127500Y88780000D03*
D21*
X72087500Y83700000D03*
X61087500Y83700000D03*
D22*
X66587500Y83700000D03*
D19*
X42457500Y83700000D03*
X52617500Y83700000D03*
D20*
X43727500Y86240000D03*
X50077500Y88780000D03*
D21*
X53037500Y83700000D03*
X42037500Y83700000D03*
D22*
X47537500Y83700000D03*
X42775000Y64650000D03*
D21*
X37275000Y64650000D03*
X48275000Y64650000D03*
D20*
X45315000Y69730000D03*
X38965000Y67190000D03*
D19*
X47855000Y64650000D03*
X37695000Y64650000D03*
X35313750Y45600000D03*
X45473750Y45600000D03*
D20*
X36583750Y48140000D03*
X42933750Y50680000D03*
D21*
X45893750Y45600000D03*
X34893750Y45600000D03*
D22*
X40393750Y45600000D03*
D19*
X40076250Y7500000D03*
X50236250Y7500000D03*
D20*
X41346250Y10040000D03*
X47696250Y12580000D03*
D21*
X50656250Y7500000D03*
X39656250Y7500000D03*
D22*
X45156250Y7500000D03*
D21*
X74817500Y92900000D03*
X74817500Y90360000D03*
X74817500Y87820000D03*
X74817500Y85280000D03*
X74817500Y82740000D03*
X74817500Y80200000D03*
X74817500Y77660000D03*
X74817500Y75120000D03*
D19*
X61507500Y45600000D03*
X71667500Y45600000D03*
D20*
X62777500Y48140000D03*
X69127500Y50680000D03*
D21*
X72087500Y45600000D03*
X61087500Y45600000D03*
D22*
X66587500Y45600000D03*
X66587500Y7500000D03*
D21*
X61087500Y7500000D03*
X72087500Y7500000D03*
D20*
X69127500Y12580000D03*
X62777500Y10040000D03*
D19*
X71667500Y7500000D03*
X61507500Y7500000D03*
D24*
X67017563Y34090573D03*
X70157437Y38109427D03*
X67657437Y38109427D03*
X64517563Y34090573D03*
X62017563Y34090573D03*
X65157437Y38109427D03*
X61157437Y38109427D03*
X58017563Y34090573D03*
X58657437Y38109427D03*
X55517563Y34090573D03*
X52107437Y38109427D03*
X48967563Y34090573D03*
X46467563Y34090573D03*
X49607437Y38109427D03*
X43967563Y34090573D03*
X47107437Y38109427D03*
X42107437Y38109427D03*
X38967563Y34090573D03*
X36467563Y34090573D03*
X39607437Y38109427D03*
M02*
