G04 #@! TF.GenerationSoftware,KiCad,Pcbnew,(5.1.9)-1*
G04 #@! TF.CreationDate,2021-04-15T23:23:49+09:00*
G04 #@! TF.ProjectId,ProMicro__________,50726f4d-6963-4726-9ffa-7f5fe6e135fa,rev?*
G04 #@! TF.SameCoordinates,Original*
G04 #@! TF.FileFunction,Legend,Top*
G04 #@! TF.FilePolarity,Positive*
%FSLAX46Y46*%
G04 Gerber Fmt 4.6, Leading zero omitted, Abs format (unit mm)*
G04 Created by KiCad (PCBNEW (5.1.9)-1) date 2021-04-15 23:23:49*
%MOMM*%
%LPD*%
G01*
G04 APERTURE LIST*
%ADD10C,0.120000*%
%ADD11C,0.150000*%
%ADD12C,0.125000*%
%ADD13C,1.700000*%
%ADD14C,1.900000*%
%ADD15C,4.000000*%
G04 APERTURE END LIST*
D10*
X19870000Y25095000D02*
G75*
G03*
X19870000Y25095000I-1500000J0D01*
G01*
D11*
X17989047Y27523571D02*
X18750952Y27523571D01*
X18370000Y27142619D02*
X18370000Y27904523D01*
X2749047Y27523571D02*
X3510952Y27523571D01*
D10*
X4630000Y25095000D02*
G75*
G03*
X4630000Y25095000I-1500000J0D01*
G01*
D11*
X2630952Y14247619D02*
X2297619Y14723809D01*
X2059523Y14247619D02*
X2059523Y15247619D01*
X2440476Y15247619D01*
X2535714Y15200000D01*
X2583333Y15152380D01*
X2630952Y15057142D01*
X2630952Y14914285D01*
X2583333Y14819047D01*
X2535714Y14771428D01*
X2440476Y14723809D01*
X2059523Y14723809D01*
X3059523Y14247619D02*
X3059523Y14914285D01*
X3059523Y15247619D02*
X3011904Y15200000D01*
X3059523Y15152380D01*
X3107142Y15200000D01*
X3059523Y15247619D01*
X3059523Y15152380D01*
X3964285Y14914285D02*
X3964285Y14104761D01*
X3916666Y14009523D01*
X3869047Y13961904D01*
X3773809Y13914285D01*
X3630952Y13914285D01*
X3535714Y13961904D01*
X3964285Y14295238D02*
X3869047Y14247619D01*
X3678571Y14247619D01*
X3583333Y14295238D01*
X3535714Y14342857D01*
X3488095Y14438095D01*
X3488095Y14723809D01*
X3535714Y14819047D01*
X3583333Y14866666D01*
X3678571Y14914285D01*
X3869047Y14914285D01*
X3964285Y14866666D01*
X4440476Y14247619D02*
X4440476Y15247619D01*
X4869047Y14247619D02*
X4869047Y14771428D01*
X4821428Y14866666D01*
X4726190Y14914285D01*
X4583333Y14914285D01*
X4488095Y14866666D01*
X4440476Y14819047D01*
X5202380Y14914285D02*
X5583333Y14914285D01*
X5345238Y15247619D02*
X5345238Y14390476D01*
X5392857Y14295238D01*
X5488095Y14247619D01*
X5583333Y14247619D01*
X6726190Y15009523D02*
X6726190Y14247619D01*
X6773809Y14961904D02*
X6773809Y14295238D01*
X6821428Y14961904D02*
X6821428Y14295238D01*
X6869047Y14914285D02*
X6869047Y14342857D01*
X6916666Y14914285D02*
X6916666Y14342857D01*
X6964285Y14866666D02*
X6964285Y14390476D01*
X7011904Y14866666D02*
X7011904Y14390476D01*
X7059523Y14819047D02*
X7059523Y14438095D01*
X7107142Y14771428D02*
X7107142Y14485714D01*
X7154761Y14771428D02*
X7154761Y14485714D01*
X7202380Y14723809D02*
X7202380Y14533333D01*
X7250000Y14723809D02*
X7250000Y14533333D01*
X7297619Y14628571D02*
X7345238Y14628571D01*
X7297619Y14676190D02*
X7297619Y14580952D01*
X6678571Y15009523D02*
X7392857Y14628571D01*
X6678571Y14247619D01*
X7440476Y14628571D02*
X6678571Y14200000D01*
X6678571Y15057142D01*
X7440476Y14628571D01*
X15477619Y14247619D02*
X15477619Y15009523D01*
X15430000Y14295238D02*
X15430000Y14961904D01*
X15382380Y14295238D02*
X15382380Y14961904D01*
X15334761Y14342857D02*
X15334761Y14914285D01*
X15287142Y14342857D02*
X15287142Y14914285D01*
X15239523Y14390476D02*
X15239523Y14866666D01*
X15191904Y14390476D02*
X15191904Y14866666D01*
X15144285Y14438095D02*
X15144285Y14819047D01*
X15096666Y14485714D02*
X15096666Y14771428D01*
X15049047Y14485714D02*
X15049047Y14771428D01*
X15001428Y14533333D02*
X15001428Y14723809D01*
X14953809Y14533333D02*
X14953809Y14723809D01*
X14906190Y14628571D02*
X14858571Y14628571D01*
X14906190Y14580952D02*
X14906190Y14676190D01*
X15525238Y14247619D02*
X14810952Y14628571D01*
X15525238Y15009523D01*
X14763333Y14628571D02*
X15525238Y15057142D01*
X15525238Y14200000D01*
X14763333Y14628571D01*
X17239523Y14247619D02*
X16763333Y14247619D01*
X16763333Y15247619D01*
X17953809Y14295238D02*
X17858571Y14247619D01*
X17668095Y14247619D01*
X17572857Y14295238D01*
X17525238Y14390476D01*
X17525238Y14771428D01*
X17572857Y14866666D01*
X17668095Y14914285D01*
X17858571Y14914285D01*
X17953809Y14866666D01*
X18001428Y14771428D01*
X18001428Y14676190D01*
X17525238Y14580952D01*
X18287142Y14914285D02*
X18668095Y14914285D01*
X18430000Y14247619D02*
X18430000Y15104761D01*
X18477619Y15200000D01*
X18572857Y15247619D01*
X18668095Y15247619D01*
X18858571Y14914285D02*
X19239523Y14914285D01*
X19001428Y15247619D02*
X19001428Y14390476D01*
X19049047Y14295238D01*
X19144285Y14247619D01*
X19239523Y14247619D01*
X15297619Y43307619D02*
X15297619Y44069523D01*
X15250000Y43355238D02*
X15250000Y44021904D01*
X15202380Y43355238D02*
X15202380Y44021904D01*
X15154761Y43402857D02*
X15154761Y43974285D01*
X15107142Y43402857D02*
X15107142Y43974285D01*
X15059523Y43450476D02*
X15059523Y43926666D01*
X15011904Y43450476D02*
X15011904Y43926666D01*
X14964285Y43498095D02*
X14964285Y43879047D01*
X14916666Y43545714D02*
X14916666Y43831428D01*
X14869047Y43545714D02*
X14869047Y43831428D01*
X14821428Y43593333D02*
X14821428Y43783809D01*
X14773809Y43593333D02*
X14773809Y43783809D01*
X14726190Y43688571D02*
X14678571Y43688571D01*
X14726190Y43640952D02*
X14726190Y43736190D01*
X15345238Y43307619D02*
X14630952Y43688571D01*
X15345238Y44069523D01*
X14583333Y43688571D02*
X15345238Y44117142D01*
X15345238Y43260000D01*
X14583333Y43688571D01*
X17059523Y43307619D02*
X16583333Y43307619D01*
X16583333Y44307619D01*
X17773809Y43355238D02*
X17678571Y43307619D01*
X17488095Y43307619D01*
X17392857Y43355238D01*
X17345238Y43450476D01*
X17345238Y43831428D01*
X17392857Y43926666D01*
X17488095Y43974285D01*
X17678571Y43974285D01*
X17773809Y43926666D01*
X17821428Y43831428D01*
X17821428Y43736190D01*
X17345238Y43640952D01*
X18107142Y43974285D02*
X18488095Y43974285D01*
X18250000Y43307619D02*
X18250000Y44164761D01*
X18297619Y44260000D01*
X18392857Y44307619D01*
X18488095Y44307619D01*
X18678571Y43974285D02*
X19059523Y43974285D01*
X18821428Y44307619D02*
X18821428Y43450476D01*
X18869047Y43355238D01*
X18964285Y43307619D01*
X19059523Y43307619D01*
X2630952Y43307619D02*
X2297619Y43783809D01*
X2059523Y43307619D02*
X2059523Y44307619D01*
X2440476Y44307619D01*
X2535714Y44260000D01*
X2583333Y44212380D01*
X2630952Y44117142D01*
X2630952Y43974285D01*
X2583333Y43879047D01*
X2535714Y43831428D01*
X2440476Y43783809D01*
X2059523Y43783809D01*
X3059523Y43307619D02*
X3059523Y43974285D01*
X3059523Y44307619D02*
X3011904Y44260000D01*
X3059523Y44212380D01*
X3107142Y44260000D01*
X3059523Y44307619D01*
X3059523Y44212380D01*
X3964285Y43974285D02*
X3964285Y43164761D01*
X3916666Y43069523D01*
X3869047Y43021904D01*
X3773809Y42974285D01*
X3630952Y42974285D01*
X3535714Y43021904D01*
X3964285Y43355238D02*
X3869047Y43307619D01*
X3678571Y43307619D01*
X3583333Y43355238D01*
X3535714Y43402857D01*
X3488095Y43498095D01*
X3488095Y43783809D01*
X3535714Y43879047D01*
X3583333Y43926666D01*
X3678571Y43974285D01*
X3869047Y43974285D01*
X3964285Y43926666D01*
X4440476Y43307619D02*
X4440476Y44307619D01*
X4869047Y43307619D02*
X4869047Y43831428D01*
X4821428Y43926666D01*
X4726190Y43974285D01*
X4583333Y43974285D01*
X4488095Y43926666D01*
X4440476Y43879047D01*
X5202380Y43974285D02*
X5583333Y43974285D01*
X5345238Y44307619D02*
X5345238Y43450476D01*
X5392857Y43355238D01*
X5488095Y43307619D01*
X5583333Y43307619D01*
X6726190Y44069523D02*
X6726190Y43307619D01*
X6773809Y44021904D02*
X6773809Y43355238D01*
X6821428Y44021904D02*
X6821428Y43355238D01*
X6869047Y43974285D02*
X6869047Y43402857D01*
X6916666Y43974285D02*
X6916666Y43402857D01*
X6964285Y43926666D02*
X6964285Y43450476D01*
X7011904Y43926666D02*
X7011904Y43450476D01*
X7059523Y43879047D02*
X7059523Y43498095D01*
X7107142Y43831428D02*
X7107142Y43545714D01*
X7154761Y43831428D02*
X7154761Y43545714D01*
X7202380Y43783809D02*
X7202380Y43593333D01*
X7250000Y43783809D02*
X7250000Y43593333D01*
X7297619Y43688571D02*
X7345238Y43688571D01*
X7297619Y43736190D02*
X7297619Y43640952D01*
X6678571Y44069523D02*
X7392857Y43688571D01*
X6678571Y43307619D01*
X7440476Y43688571D02*
X6678571Y43260000D01*
X6678571Y44117142D01*
X7440476Y43688571D01*
X7412380Y64551904D02*
X6412380Y64551904D01*
X6888571Y64551904D02*
X6888571Y65123333D01*
X7412380Y65123333D02*
X6412380Y65123333D01*
X7412380Y66028095D02*
X6888571Y66028095D01*
X6793333Y65980476D01*
X6745714Y65885238D01*
X6745714Y65694761D01*
X6793333Y65599523D01*
X7364761Y66028095D02*
X7412380Y65932857D01*
X7412380Y65694761D01*
X7364761Y65599523D01*
X7269523Y65551904D01*
X7174285Y65551904D01*
X7079047Y65599523D01*
X7031428Y65694761D01*
X7031428Y65932857D01*
X6983809Y66028095D01*
X7412380Y66647142D02*
X7364761Y66551904D01*
X7269523Y66504285D01*
X6412380Y66504285D01*
X6745714Y66885238D02*
X6745714Y67266190D01*
X7412380Y67028095D02*
X6555238Y67028095D01*
X6459999Y67075714D01*
X6412380Y67170952D01*
X6412380Y67266190D01*
X7317142Y68170952D02*
X7364761Y68123333D01*
X7412380Y67980476D01*
X7412380Y67885238D01*
X7364761Y67742380D01*
X7269523Y67647142D01*
X7174285Y67599523D01*
X6983809Y67551904D01*
X6840952Y67551904D01*
X6650476Y67599523D01*
X6555238Y67647142D01*
X6460000Y67742380D01*
X6412380Y67885238D01*
X6412380Y67980476D01*
X6460000Y68123333D01*
X6507619Y68170952D01*
X7412380Y68742380D02*
X7364761Y68647142D01*
X7269523Y68599523D01*
X6412380Y68599523D01*
X7412380Y69123333D02*
X6745714Y69123333D01*
X6412380Y69123333D02*
X6460000Y69075714D01*
X6507619Y69123333D01*
X6460000Y69170952D01*
X6412380Y69123333D01*
X6507619Y69123333D01*
X6745714Y69456666D02*
X6745714Y69837619D01*
X7412380Y69599523D02*
X6555238Y69599523D01*
X6460000Y69647142D01*
X6412380Y69742380D01*
X6412380Y69837619D01*
X6745714Y70028095D02*
X6745714Y70409047D01*
X7412380Y70170952D02*
X6555238Y70170952D01*
X6460000Y70218571D01*
X6412380Y70313809D01*
X6412380Y70409047D01*
X7317142Y72075714D02*
X7364761Y72028095D01*
X7412380Y71885238D01*
X7412380Y71790000D01*
X7364761Y71647142D01*
X7269523Y71551904D01*
X7174285Y71504285D01*
X6983809Y71456666D01*
X6840952Y71456666D01*
X6650476Y71504285D01*
X6555238Y71551904D01*
X6460000Y71647142D01*
X6412380Y71790000D01*
X6412380Y71885238D01*
X6460000Y72028095D01*
X6507619Y72075714D01*
X7412380Y72647142D02*
X7364761Y72551904D01*
X7317142Y72504285D01*
X7221904Y72456666D01*
X6936190Y72456666D01*
X6840952Y72504285D01*
X6793333Y72551904D01*
X6745714Y72647142D01*
X6745714Y72790000D01*
X6793333Y72885238D01*
X6840952Y72932857D01*
X6936190Y72980476D01*
X7221904Y72980476D01*
X7317142Y72932857D01*
X7364761Y72885238D01*
X7412380Y72790000D01*
X7412380Y72647142D01*
X6745714Y73409047D02*
X7412380Y73409047D01*
X6840952Y73409047D02*
X6793333Y73456666D01*
X6745714Y73551904D01*
X6745714Y73694761D01*
X6793333Y73790000D01*
X6888571Y73837619D01*
X7412380Y73837619D01*
X6745714Y74170952D02*
X6745714Y74551904D01*
X6412380Y74313809D02*
X7269523Y74313809D01*
X7364761Y74361428D01*
X7412380Y74456666D01*
X7412380Y74551904D01*
X7412380Y74885238D02*
X6745714Y74885238D01*
X6936190Y74885238D02*
X6840952Y74932857D01*
X6793333Y74980476D01*
X6745714Y75075714D01*
X6745714Y75170952D01*
X7412380Y75647142D02*
X7364761Y75551904D01*
X7317142Y75504285D01*
X7221904Y75456666D01*
X6936190Y75456666D01*
X6840952Y75504285D01*
X6793333Y75551904D01*
X6745714Y75647142D01*
X6745714Y75790000D01*
X6793333Y75885238D01*
X6840952Y75932857D01*
X6936190Y75980476D01*
X7221904Y75980476D01*
X7317142Y75932857D01*
X7364761Y75885238D01*
X7412380Y75790000D01*
X7412380Y75647142D01*
X7412380Y76551904D02*
X7364761Y76456666D01*
X7269523Y76409047D01*
X6412380Y76409047D01*
X6888571Y78028095D02*
X6936190Y78170952D01*
X6983809Y78218571D01*
X7079047Y78266190D01*
X7221904Y78266190D01*
X7317142Y78218571D01*
X7364761Y78170952D01*
X7412380Y78075714D01*
X7412380Y77694761D01*
X6412380Y77694761D01*
X6412380Y78028095D01*
X6460000Y78123333D01*
X6507619Y78170952D01*
X6602857Y78218571D01*
X6698095Y78218571D01*
X6793333Y78170952D01*
X6840952Y78123333D01*
X6888571Y78028095D01*
X6888571Y77694761D01*
X7412380Y78837619D02*
X7364761Y78742380D01*
X7317142Y78694761D01*
X7221904Y78647142D01*
X6936190Y78647142D01*
X6840952Y78694761D01*
X6793333Y78742380D01*
X6745714Y78837619D01*
X6745714Y78980476D01*
X6793333Y79075714D01*
X6840952Y79123333D01*
X6936190Y79170952D01*
X7221904Y79170952D01*
X7317142Y79123333D01*
X7364761Y79075714D01*
X7412380Y78980476D01*
X7412380Y78837619D01*
X7412380Y80028095D02*
X6888571Y80028095D01*
X6793333Y79980476D01*
X6745714Y79885238D01*
X6745714Y79694761D01*
X6793333Y79599523D01*
X7364761Y80028095D02*
X7412380Y79932857D01*
X7412380Y79694761D01*
X7364761Y79599523D01*
X7269523Y79551904D01*
X7174285Y79551904D01*
X7079047Y79599523D01*
X7031428Y79694761D01*
X7031428Y79932857D01*
X6983809Y80028095D01*
X7412380Y80504285D02*
X6745714Y80504285D01*
X6936190Y80504285D02*
X6840952Y80551904D01*
X6793333Y80599523D01*
X6745714Y80694761D01*
X6745714Y80790000D01*
X7412380Y81551904D02*
X6412380Y81551904D01*
X7364761Y81551904D02*
X7412380Y81456666D01*
X7412380Y81266190D01*
X7364761Y81170952D01*
X7317142Y81123333D01*
X7221904Y81075714D01*
X6936190Y81075714D01*
X6840952Y81123333D01*
X6793333Y81170952D01*
X6745714Y81266190D01*
X6745714Y81456666D01*
X6793333Y81551904D01*
X6412380Y82647142D02*
X7412380Y82980476D01*
X6412380Y83313809D01*
X7364761Y84028095D02*
X7412380Y83932857D01*
X7412380Y83742380D01*
X7364761Y83647142D01*
X7269523Y83599523D01*
X6888571Y83599523D01*
X6793333Y83647142D01*
X6745714Y83742380D01*
X6745714Y83932857D01*
X6793333Y84028095D01*
X6888571Y84075714D01*
X6983809Y84075714D01*
X7079047Y83599523D01*
X7412380Y84504285D02*
X6745714Y84504285D01*
X6936190Y84504285D02*
X6840952Y84551904D01*
X6793333Y84599523D01*
X6745714Y84694761D01*
X6745714Y84790000D01*
X7412380Y85647142D02*
X7412380Y85075714D01*
X7412380Y85361428D02*
X6412380Y85361428D01*
X6555238Y85266190D01*
X6650476Y85170952D01*
X6698095Y85075714D01*
X7317142Y86075714D02*
X7364761Y86123333D01*
X7412380Y86075714D01*
X7364761Y86028095D01*
X7317142Y86075714D01*
X7412380Y86075714D01*
X6412380Y86742380D02*
X6412380Y86837619D01*
X6460000Y86932857D01*
X6507619Y86980476D01*
X6602857Y87028095D01*
X6793333Y87075714D01*
X7031428Y87075714D01*
X7221904Y87028095D01*
X7317142Y86980476D01*
X7364761Y86932857D01*
X7412380Y86837619D01*
X7412380Y86742380D01*
X7364761Y86647142D01*
X7317142Y86599523D01*
X7221904Y86551904D01*
X7031428Y86504285D01*
X6793333Y86504285D01*
X6602857Y86551904D01*
X6507619Y86599523D01*
X6460000Y86647142D01*
X6412380Y86742380D01*
X38206547Y94147619D02*
X38206547Y95147619D01*
X38206547Y94671428D02*
X38777976Y94671428D01*
X38777976Y94147619D02*
X38777976Y95147619D01*
X39682738Y94147619D02*
X39682738Y94671428D01*
X39635119Y94766666D01*
X39539880Y94814285D01*
X39349404Y94814285D01*
X39254166Y94766666D01*
X39682738Y94195238D02*
X39587500Y94147619D01*
X39349404Y94147619D01*
X39254166Y94195238D01*
X39206547Y94290476D01*
X39206547Y94385714D01*
X39254166Y94480952D01*
X39349404Y94528571D01*
X39587500Y94528571D01*
X39682738Y94576190D01*
X40301785Y94147619D02*
X40206547Y94195238D01*
X40158928Y94290476D01*
X40158928Y95147619D01*
X40539880Y94814285D02*
X40920833Y94814285D01*
X40682738Y94147619D02*
X40682738Y95004761D01*
X40730357Y95100000D01*
X40825595Y95147619D01*
X40920833Y95147619D01*
X41825595Y94242857D02*
X41777976Y94195238D01*
X41635119Y94147619D01*
X41539880Y94147619D01*
X41397023Y94195238D01*
X41301785Y94290476D01*
X41254166Y94385714D01*
X41206547Y94576190D01*
X41206547Y94719047D01*
X41254166Y94909523D01*
X41301785Y95004761D01*
X41397023Y95100000D01*
X41539880Y95147619D01*
X41635119Y95147619D01*
X41777976Y95100000D01*
X41825595Y95052380D01*
X42397023Y94147619D02*
X42301785Y94195238D01*
X42254166Y94290476D01*
X42254166Y95147619D01*
X42777976Y94147619D02*
X42777976Y94814285D01*
X42777976Y95147619D02*
X42730357Y95100000D01*
X42777976Y95052380D01*
X42825595Y95100000D01*
X42777976Y95147619D01*
X42777976Y95052380D01*
X43111309Y94814285D02*
X43492261Y94814285D01*
X43254166Y94147619D02*
X43254166Y95004761D01*
X43301785Y95100000D01*
X43397023Y95147619D01*
X43492261Y95147619D01*
X43682738Y94814285D02*
X44063690Y94814285D01*
X43825595Y94147619D02*
X43825595Y95004761D01*
X43873214Y95100000D01*
X43968452Y95147619D01*
X44063690Y95147619D01*
X45635119Y94147619D02*
X45158928Y94147619D01*
X45158928Y95147619D01*
X46349404Y94195238D02*
X46254166Y94147619D01*
X46063690Y94147619D01*
X45968452Y94195238D01*
X45920833Y94290476D01*
X45920833Y94671428D01*
X45968452Y94766666D01*
X46063690Y94814285D01*
X46254166Y94814285D01*
X46349404Y94766666D01*
X46397023Y94671428D01*
X46397023Y94576190D01*
X45920833Y94480952D01*
X46682738Y94814285D02*
X47063690Y94814285D01*
X46825595Y94147619D02*
X46825595Y95004761D01*
X46873214Y95100000D01*
X46968452Y95147619D01*
X47063690Y95147619D01*
X47254166Y94814285D02*
X47635119Y94814285D01*
X47397023Y95147619D02*
X47397023Y94290476D01*
X47444642Y94195238D01*
X47539880Y94147619D01*
X47635119Y94147619D01*
X48730357Y94671428D02*
X49063690Y94671428D01*
X49206547Y94147619D02*
X48730357Y94147619D01*
X48730357Y95147619D01*
X49206547Y95147619D01*
X49539880Y94147619D02*
X50063690Y94814285D01*
X49539880Y94814285D02*
X50063690Y94147619D01*
X50301785Y94814285D02*
X50682738Y94814285D01*
X50444642Y95147619D02*
X50444642Y94290476D01*
X50492261Y94195238D01*
X50587500Y94147619D01*
X50682738Y94147619D01*
X51397023Y94195238D02*
X51301785Y94147619D01*
X51111309Y94147619D01*
X51016071Y94195238D01*
X50968452Y94290476D01*
X50968452Y94671428D01*
X51016071Y94766666D01*
X51111309Y94814285D01*
X51301785Y94814285D01*
X51397023Y94766666D01*
X51444642Y94671428D01*
X51444642Y94576190D01*
X50968452Y94480952D01*
X51873214Y94814285D02*
X51873214Y94147619D01*
X51873214Y94719047D02*
X51920833Y94766666D01*
X52016071Y94814285D01*
X52158928Y94814285D01*
X52254166Y94766666D01*
X52301785Y94671428D01*
X52301785Y94147619D01*
X52730357Y94195238D02*
X52825595Y94147619D01*
X53016071Y94147619D01*
X53111309Y94195238D01*
X53158928Y94290476D01*
X53158928Y94338095D01*
X53111309Y94433333D01*
X53016071Y94480952D01*
X52873214Y94480952D01*
X52777976Y94528571D01*
X52730357Y94623809D01*
X52730357Y94671428D01*
X52777976Y94766666D01*
X52873214Y94814285D01*
X53016071Y94814285D01*
X53111309Y94766666D01*
X53587500Y94147619D02*
X53587500Y94814285D01*
X53587500Y95147619D02*
X53539880Y95100000D01*
X53587500Y95052380D01*
X53635119Y95100000D01*
X53587500Y95147619D01*
X53587500Y95052380D01*
X54206547Y94147619D02*
X54111309Y94195238D01*
X54063690Y94242857D01*
X54016071Y94338095D01*
X54016071Y94623809D01*
X54063690Y94719047D01*
X54111309Y94766666D01*
X54206547Y94814285D01*
X54349404Y94814285D01*
X54444642Y94766666D01*
X54492261Y94719047D01*
X54539880Y94623809D01*
X54539880Y94338095D01*
X54492261Y94242857D01*
X54444642Y94195238D01*
X54349404Y94147619D01*
X54206547Y94147619D01*
X54968452Y94814285D02*
X54968452Y94147619D01*
X54968452Y94719047D02*
X55016071Y94766666D01*
X55111309Y94814285D01*
X55254166Y94814285D01*
X55349404Y94766666D01*
X55397023Y94671428D01*
X55397023Y94147619D01*
X56968452Y94671428D02*
X57111309Y94623809D01*
X57158928Y94576190D01*
X57206547Y94480952D01*
X57206547Y94338095D01*
X57158928Y94242857D01*
X57111309Y94195238D01*
X57016071Y94147619D01*
X56635119Y94147619D01*
X56635119Y95147619D01*
X56968452Y95147619D01*
X57063690Y95100000D01*
X57111309Y95052380D01*
X57158928Y94957142D01*
X57158928Y94861904D01*
X57111309Y94766666D01*
X57063690Y94719047D01*
X56968452Y94671428D01*
X56635119Y94671428D01*
X57777976Y94147619D02*
X57682738Y94195238D01*
X57635119Y94242857D01*
X57587499Y94338095D01*
X57587499Y94623809D01*
X57635119Y94719047D01*
X57682738Y94766666D01*
X57777976Y94814285D01*
X57920833Y94814285D01*
X58016071Y94766666D01*
X58063690Y94719047D01*
X58111309Y94623809D01*
X58111309Y94338095D01*
X58063690Y94242857D01*
X58016071Y94195238D01*
X57920833Y94147619D01*
X57777976Y94147619D01*
X58968452Y94147619D02*
X58968452Y94671428D01*
X58920833Y94766666D01*
X58825595Y94814285D01*
X58635119Y94814285D01*
X58539880Y94766666D01*
X58968452Y94195238D02*
X58873214Y94147619D01*
X58635119Y94147619D01*
X58539880Y94195238D01*
X58492261Y94290476D01*
X58492261Y94385714D01*
X58539880Y94480952D01*
X58635119Y94528571D01*
X58873214Y94528571D01*
X58968452Y94576190D01*
X59444642Y94147619D02*
X59444642Y94814285D01*
X59444642Y94623809D02*
X59492261Y94719047D01*
X59539880Y94766666D01*
X59635119Y94814285D01*
X59730357Y94814285D01*
X60492261Y94147619D02*
X60492261Y95147619D01*
X60492261Y94195238D02*
X60397023Y94147619D01*
X60206547Y94147619D01*
X60111309Y94195238D01*
X60063690Y94242857D01*
X60016071Y94338095D01*
X60016071Y94623809D01*
X60063690Y94719047D01*
X60111309Y94766666D01*
X60206547Y94814285D01*
X60397023Y94814285D01*
X60492261Y94766666D01*
X61587499Y95147619D02*
X61920833Y94147619D01*
X62254166Y95147619D01*
X62968452Y94195238D02*
X62873214Y94147619D01*
X62682738Y94147619D01*
X62587499Y94195238D01*
X62539880Y94290476D01*
X62539880Y94671428D01*
X62587499Y94766666D01*
X62682738Y94814285D01*
X62873214Y94814285D01*
X62968452Y94766666D01*
X63016071Y94671428D01*
X63016071Y94576190D01*
X62539880Y94480952D01*
X63444642Y94147619D02*
X63444642Y94814285D01*
X63444642Y94623809D02*
X63492261Y94719047D01*
X63539880Y94766666D01*
X63635119Y94814285D01*
X63730357Y94814285D01*
X64587499Y94147619D02*
X64016071Y94147619D01*
X64301785Y94147619D02*
X64301785Y95147619D01*
X64206547Y95004761D01*
X64111309Y94909523D01*
X64016071Y94861904D01*
X65016071Y94242857D02*
X65063690Y94195238D01*
X65016071Y94147619D01*
X64968452Y94195238D01*
X65016071Y94242857D01*
X65016071Y94147619D01*
X65682738Y95147619D02*
X65777976Y95147619D01*
X65873214Y95100000D01*
X65920833Y95052380D01*
X65968452Y94957142D01*
X66016071Y94766666D01*
X66016071Y94528571D01*
X65968452Y94338095D01*
X65920833Y94242857D01*
X65873214Y94195238D01*
X65777976Y94147619D01*
X65682738Y94147619D01*
X65587499Y94195238D01*
X65539880Y94242857D01*
X65492261Y94338095D01*
X65444642Y94528571D01*
X65444642Y94766666D01*
X65492261Y94957142D01*
X65539880Y95052380D01*
X65587499Y95100000D01*
X65682738Y95147619D01*
D10*
X13020000Y80400000D02*
X13020000Y71860000D01*
X8480000Y71860000D02*
X8490000Y80400000D01*
X13020000Y71860000D02*
X8480000Y71860000D01*
X8480000Y80400000D02*
X13020000Y80400000D01*
D11*
X9480000Y23590000D02*
X12020000Y23590000D01*
X12020000Y23590000D02*
X12020000Y730000D01*
X12020000Y730000D02*
X9480000Y730000D01*
X9480000Y730000D02*
X9480000Y23590000D01*
X9480000Y32330000D02*
X9480000Y55190000D01*
X12020000Y32330000D02*
X9480000Y32330000D01*
X12020000Y55190000D02*
X12020000Y32330000D01*
X9480000Y55190000D02*
X12020000Y55190000D01*
D10*
X2600000Y94073000D02*
X3870000Y94073000D01*
X3870000Y94073000D02*
X3870000Y63593000D01*
X3870000Y63593000D02*
X1330000Y63593000D01*
X1330000Y63593000D02*
X1330000Y94073000D01*
X1330000Y94073000D02*
X3870000Y94073000D01*
X16570000Y94073000D02*
X19110000Y94073000D01*
X16570000Y94073000D02*
X16570000Y63593000D01*
X16570000Y63593000D02*
X19110000Y63593000D01*
X19110000Y63593000D02*
X19110000Y94073000D01*
D11*
X20200000Y0D02*
X14200000Y0D01*
X14200000Y0D02*
X14200000Y12100000D01*
X14200000Y12100000D02*
X20200000Y12100000D01*
X20200000Y12100000D02*
X20200000Y0D01*
X8310000Y0D02*
X2310000Y0D01*
X2310000Y0D02*
X2310000Y12100000D01*
X2310000Y12100000D02*
X8310000Y12100000D01*
X8310000Y12100000D02*
X8310000Y0D01*
X5790000Y59800000D02*
X5790000Y62340000D01*
X15950000Y62340000D02*
X15950000Y59800000D01*
X5790000Y62340000D02*
X15950000Y62340000D01*
X5790000Y59800000D02*
X15950000Y59800000D01*
D10*
X11500000Y85810000D02*
X11500000Y87810000D01*
X11500000Y83810000D02*
X11500000Y85810000D01*
X13500000Y83810000D02*
X11500000Y83810000D01*
X13500000Y87810000D02*
X13500000Y83810000D01*
X11500000Y87810000D02*
X13500000Y87810000D01*
X7750000Y87810000D02*
X9750000Y87810000D01*
X9750000Y87810000D02*
X9750000Y83810000D01*
X9750000Y83810000D02*
X7750000Y83810000D01*
X7750000Y83810000D02*
X7750000Y85810000D01*
X7750000Y85810000D02*
X7750000Y87810000D01*
D11*
X9000000Y69860000D02*
X9250000Y69860000D01*
X9000000Y63860000D02*
X9000000Y69860000D01*
X9000000Y63860000D02*
X9250000Y63860000D01*
X12500000Y63860000D02*
X12250000Y63860000D01*
X12500000Y69860000D02*
X12250000Y69860000D01*
X12500000Y63860000D02*
X12500000Y69860000D01*
X33393750Y32550000D02*
X33393750Y33550000D01*
X33393750Y33550000D02*
X34393750Y33550000D01*
X46393750Y19550000D02*
X47393750Y19550000D01*
X47393750Y19550000D02*
X47393750Y20550000D01*
X47393750Y32550000D02*
X47393750Y33550000D01*
X47393750Y33550000D02*
X46393750Y33550000D01*
X33393750Y20550000D02*
X33393750Y19550000D01*
X34393750Y19550000D02*
X33393750Y19550000D01*
X60587500Y19550000D02*
X59587500Y19550000D01*
X59587500Y20550000D02*
X59587500Y19550000D01*
X73587500Y33550000D02*
X72587500Y33550000D01*
X73587500Y32550000D02*
X73587500Y33550000D01*
X73587500Y19550000D02*
X73587500Y20550000D01*
X72587500Y19550000D02*
X73587500Y19550000D01*
X59587500Y33550000D02*
X60587500Y33550000D01*
X59587500Y32550000D02*
X59587500Y33550000D01*
X60587500Y57650000D02*
X59587500Y57650000D01*
X59587500Y58650000D02*
X59587500Y57650000D01*
X73587500Y71650000D02*
X72587500Y71650000D01*
X73587500Y70650000D02*
X73587500Y71650000D01*
X73587500Y57650000D02*
X73587500Y58650000D01*
X72587500Y57650000D02*
X73587500Y57650000D01*
X59587500Y71650000D02*
X60587500Y71650000D01*
X59587500Y70650000D02*
X59587500Y71650000D01*
X60587500Y76700000D02*
X59587500Y76700000D01*
X59587500Y77700000D02*
X59587500Y76700000D01*
X73587500Y90700000D02*
X72587500Y90700000D01*
X73587500Y89700000D02*
X73587500Y90700000D01*
X73587500Y76700000D02*
X73587500Y77700000D01*
X72587500Y76700000D02*
X73587500Y76700000D01*
X59587500Y90700000D02*
X60587500Y90700000D01*
X59587500Y89700000D02*
X59587500Y90700000D01*
X40537500Y89700000D02*
X40537500Y90700000D01*
X40537500Y90700000D02*
X41537500Y90700000D01*
X53537500Y76700000D02*
X54537500Y76700000D01*
X54537500Y76700000D02*
X54537500Y77700000D01*
X54537500Y89700000D02*
X54537500Y90700000D01*
X54537500Y90700000D02*
X53537500Y90700000D01*
X40537500Y77700000D02*
X40537500Y76700000D01*
X41537500Y76700000D02*
X40537500Y76700000D01*
X36775000Y57650000D02*
X35775000Y57650000D01*
X35775000Y58650000D02*
X35775000Y57650000D01*
X49775000Y71650000D02*
X48775000Y71650000D01*
X49775000Y70650000D02*
X49775000Y71650000D01*
X49775000Y57650000D02*
X49775000Y58650000D01*
X48775000Y57650000D02*
X49775000Y57650000D01*
X35775000Y71650000D02*
X36775000Y71650000D01*
X35775000Y70650000D02*
X35775000Y71650000D01*
X33393750Y51600000D02*
X33393750Y52600000D01*
X33393750Y52600000D02*
X34393750Y52600000D01*
X46393750Y38600000D02*
X47393750Y38600000D01*
X47393750Y38600000D02*
X47393750Y39600000D01*
X47393750Y51600000D02*
X47393750Y52600000D01*
X47393750Y52600000D02*
X46393750Y52600000D01*
X33393750Y39600000D02*
X33393750Y38600000D01*
X34393750Y38600000D02*
X33393750Y38600000D01*
X38156250Y13500000D02*
X38156250Y14500000D01*
X38156250Y14500000D02*
X39156250Y14500000D01*
X51156250Y500000D02*
X52156250Y500000D01*
X52156250Y500000D02*
X52156250Y1500000D01*
X52156250Y13500000D02*
X52156250Y14500000D01*
X52156250Y14500000D02*
X51156250Y14500000D01*
X38156250Y1500000D02*
X38156250Y500000D01*
X39156250Y500000D02*
X38156250Y500000D01*
X73547500Y94170000D02*
X76087500Y94170000D01*
X76087500Y94170000D02*
X76087500Y73850000D01*
X76087500Y73850000D02*
X73547500Y73850000D01*
X73547500Y73850000D02*
X73547500Y94170000D01*
X60587500Y38600000D02*
X59587500Y38600000D01*
X59587500Y39600000D02*
X59587500Y38600000D01*
X73587500Y52600000D02*
X72587500Y52600000D01*
X73587500Y51600000D02*
X73587500Y52600000D01*
X73587500Y38600000D02*
X73587500Y39600000D01*
X72587500Y38600000D02*
X73587500Y38600000D01*
X59587500Y52600000D02*
X60587500Y52600000D01*
X59587500Y51600000D02*
X59587500Y52600000D01*
X59587500Y13500000D02*
X59587500Y14500000D01*
X59587500Y14500000D02*
X60587500Y14500000D01*
X72587500Y500000D02*
X73587500Y500000D01*
X73587500Y500000D02*
X73587500Y1500000D01*
X73587500Y13500000D02*
X73587500Y14500000D01*
X73587500Y14500000D02*
X72587500Y14500000D01*
X59587500Y1500000D02*
X59587500Y500000D01*
X60587500Y500000D02*
X59587500Y500000D01*
D10*
X67714514Y35957190D02*
X68660126Y35218396D01*
X69130535Y37769615D02*
X67098852Y35169179D01*
X70076148Y37030821D02*
X69130535Y37769615D01*
X70076148Y37030821D02*
X68044465Y34430385D01*
X70126654Y38070027D02*
X69603341Y37400218D01*
X67098852Y35169179D02*
X68044465Y34430385D01*
X67571659Y34799782D02*
X67017563Y34090573D01*
X65071659Y34799782D02*
X64517563Y34090573D01*
X64598852Y35169179D02*
X65544465Y34430385D01*
X67626654Y38070027D02*
X67103341Y37400218D01*
X67576148Y37030821D02*
X65544465Y34430385D01*
X67576148Y37030821D02*
X66630535Y37769615D01*
X66630535Y37769615D02*
X64598852Y35169179D01*
X65214514Y35957190D02*
X66160126Y35218396D01*
X62714514Y35957190D02*
X63660126Y35218396D01*
X64130535Y37769615D02*
X62098852Y35169179D01*
X65076148Y37030821D02*
X64130535Y37769615D01*
X65076148Y37030821D02*
X63044465Y34430385D01*
X65126654Y38070027D02*
X64603341Y37400218D01*
X62098852Y35169179D02*
X63044465Y34430385D01*
X62571659Y34799782D02*
X62017563Y34090573D01*
X58571659Y34799782D02*
X58017563Y34090573D01*
X58098852Y35169179D02*
X59044465Y34430385D01*
X61126654Y38070027D02*
X60603341Y37400218D01*
X61076148Y37030821D02*
X59044465Y34430385D01*
X61076148Y37030821D02*
X60130535Y37769615D01*
X60130535Y37769615D02*
X58098852Y35169179D01*
X58714514Y35957190D02*
X59660126Y35218396D01*
X56071659Y34799782D02*
X55517563Y34090573D01*
X55598852Y35169179D02*
X56544465Y34430385D01*
X58626654Y38070027D02*
X58103341Y37400218D01*
X58576148Y37030821D02*
X56544465Y34430385D01*
X58576148Y37030821D02*
X57630535Y37769615D01*
X57630535Y37769615D02*
X55598852Y35169179D01*
X56214514Y35957190D02*
X57160126Y35218396D01*
X49521659Y34799782D02*
X48967563Y34090573D01*
X49048852Y35169179D02*
X49994465Y34430385D01*
X52076654Y38070027D02*
X51553341Y37400218D01*
X52026148Y37030821D02*
X49994465Y34430385D01*
X52026148Y37030821D02*
X51080535Y37769615D01*
X51080535Y37769615D02*
X49048852Y35169179D01*
X49664514Y35957190D02*
X50610126Y35218396D01*
X47164514Y35957190D02*
X48110126Y35218396D01*
X48580535Y37769615D02*
X46548852Y35169179D01*
X49526148Y37030821D02*
X48580535Y37769615D01*
X49526148Y37030821D02*
X47494465Y34430385D01*
X49576654Y38070027D02*
X49053341Y37400218D01*
X46548852Y35169179D02*
X47494465Y34430385D01*
X47021659Y34799782D02*
X46467563Y34090573D01*
X44664514Y35957190D02*
X45610126Y35218396D01*
X46080535Y37769615D02*
X44048852Y35169179D01*
X47026148Y37030821D02*
X46080535Y37769615D01*
X47026148Y37030821D02*
X44994465Y34430385D01*
X47076654Y38070027D02*
X46553341Y37400218D01*
X44048852Y35169179D02*
X44994465Y34430385D01*
X44521659Y34799782D02*
X43967563Y34090573D01*
X39521659Y34799782D02*
X38967563Y34090573D01*
X39048852Y35169179D02*
X39994465Y34430385D01*
X42076654Y38070027D02*
X41553341Y37400218D01*
X42026148Y37030821D02*
X39994465Y34430385D01*
X42026148Y37030821D02*
X41080535Y37769615D01*
X41080535Y37769615D02*
X39048852Y35169179D01*
X39664514Y35957190D02*
X40610126Y35218396D01*
X37164514Y35957190D02*
X38110126Y35218396D01*
X38580535Y37769615D02*
X36548852Y35169179D01*
X39526148Y37030821D02*
X38580535Y37769615D01*
X39526148Y37030821D02*
X37494465Y34430385D01*
X39576654Y38070027D02*
X39053341Y37400218D01*
X36548852Y35169179D02*
X37494465Y34430385D01*
X37021659Y34799782D02*
X36467563Y34090573D01*
D12*
X4461726Y90638000D02*
X4397916Y90673714D01*
X4302202Y90673714D01*
X4206488Y90638000D01*
X4142678Y90566571D01*
X4110773Y90495142D01*
X4078869Y90352285D01*
X4078869Y90245142D01*
X4110773Y90102285D01*
X4142678Y90030857D01*
X4206488Y89959428D01*
X4302202Y89923714D01*
X4366011Y89923714D01*
X4461726Y89959428D01*
X4493630Y89995142D01*
X4493630Y90245142D01*
X4366011Y90245142D01*
X4780773Y89923714D02*
X4780773Y90673714D01*
X5163630Y89923714D01*
X5163630Y90673714D01*
X5482678Y89923714D02*
X5482678Y90673714D01*
X5642202Y90673714D01*
X5737916Y90638000D01*
X5801726Y90566571D01*
X5833630Y90495142D01*
X5865535Y90352285D01*
X5865535Y90245142D01*
X5833630Y90102285D01*
X5801726Y90030857D01*
X5737916Y89959428D01*
X5642202Y89923714D01*
X5482678Y89923714D01*
D11*
D12*
X4493630Y92463714D02*
X4270297Y92820857D01*
X4110773Y92463714D02*
X4110773Y93213714D01*
X4366011Y93213714D01*
X4429821Y93178000D01*
X4461726Y93142285D01*
X4493630Y93070857D01*
X4493630Y92963714D01*
X4461726Y92892285D01*
X4429821Y92856571D01*
X4366011Y92820857D01*
X4110773Y92820857D01*
X4748869Y92678000D02*
X5067916Y92678000D01*
X4685059Y92463714D02*
X4908392Y93213714D01*
X5131726Y92463714D01*
X5291250Y93213714D02*
X5450773Y92463714D01*
X5578392Y92999428D01*
X5706011Y92463714D01*
X5865535Y93213714D01*
X4493630Y87383714D02*
X4270297Y87740857D01*
X4110773Y87383714D02*
X4110773Y88133714D01*
X4366011Y88133714D01*
X4429821Y88098000D01*
X4461726Y88062285D01*
X4493630Y87990857D01*
X4493630Y87883714D01*
X4461726Y87812285D01*
X4429821Y87776571D01*
X4366011Y87740857D01*
X4110773Y87740857D01*
X4748869Y87419428D02*
X4844583Y87383714D01*
X5004107Y87383714D01*
X5067916Y87419428D01*
X5099821Y87455142D01*
X5131726Y87526571D01*
X5131726Y87598000D01*
X5099821Y87669428D01*
X5067916Y87705142D01*
X5004107Y87740857D01*
X4876488Y87776571D01*
X4812678Y87812285D01*
X4780773Y87848000D01*
X4748869Y87919428D01*
X4748869Y87990857D01*
X4780773Y88062285D01*
X4812678Y88098000D01*
X4876488Y88133714D01*
X5036011Y88133714D01*
X5131726Y88098000D01*
X5323154Y88133714D02*
X5706011Y88133714D01*
X5514583Y87383714D02*
X5514583Y88133714D01*
X4015059Y85593714D02*
X4238392Y84843714D01*
X4461726Y85593714D01*
X5067916Y84915142D02*
X5036011Y84879428D01*
X4940297Y84843714D01*
X4876488Y84843714D01*
X4780773Y84879428D01*
X4716964Y84950857D01*
X4685059Y85022285D01*
X4653154Y85165142D01*
X4653154Y85272285D01*
X4685059Y85415142D01*
X4716964Y85486571D01*
X4780773Y85558000D01*
X4876488Y85593714D01*
X4940297Y85593714D01*
X5036011Y85558000D01*
X5067916Y85522285D01*
X5737916Y84915142D02*
X5706011Y84879428D01*
X5610297Y84843714D01*
X5546488Y84843714D01*
X5450773Y84879428D01*
X5386964Y84950857D01*
X5355059Y85022285D01*
X5323154Y85165142D01*
X5323154Y85272285D01*
X5355059Y85415142D01*
X5386964Y85486571D01*
X5450773Y85558000D01*
X5546488Y85593714D01*
X5610297Y85593714D01*
X5706011Y85558000D01*
X5737916Y85522285D01*
X4334107Y82696571D02*
X4110773Y82696571D01*
X4110773Y82303714D02*
X4110773Y83053714D01*
X4429821Y83053714D01*
X4972202Y82803714D02*
X4972202Y82303714D01*
X4812678Y83089428D02*
X4653154Y82553714D01*
X5067916Y82553714D01*
X4334107Y80156571D02*
X4110773Y80156571D01*
X4110773Y79763714D02*
X4110773Y80513714D01*
X4429821Y80513714D01*
X5004107Y80513714D02*
X4685059Y80513714D01*
X4653154Y80156571D01*
X4685059Y80192285D01*
X4748869Y80228000D01*
X4908392Y80228000D01*
X4972202Y80192285D01*
X5004107Y80156571D01*
X5036011Y80085142D01*
X5036011Y79906571D01*
X5004107Y79835142D01*
X4972202Y79799428D01*
X4908392Y79763714D01*
X4748869Y79763714D01*
X4685059Y79799428D01*
X4653154Y79835142D01*
X4334107Y77616571D02*
X4110773Y77616571D01*
X4110773Y77223714D02*
X4110773Y77973714D01*
X4429821Y77973714D01*
X4972202Y77973714D02*
X4844583Y77973714D01*
X4780773Y77938000D01*
X4748869Y77902285D01*
X4685059Y77795142D01*
X4653154Y77652285D01*
X4653154Y77366571D01*
X4685059Y77295142D01*
X4716964Y77259428D01*
X4780773Y77223714D01*
X4908392Y77223714D01*
X4972202Y77259428D01*
X5004107Y77295142D01*
X5036011Y77366571D01*
X5036011Y77545142D01*
X5004107Y77616571D01*
X4972202Y77652285D01*
X4908392Y77688000D01*
X4780773Y77688000D01*
X4716964Y77652285D01*
X4685059Y77616571D01*
X4653154Y77545142D01*
X4334107Y75076571D02*
X4110773Y75076571D01*
X4110773Y74683714D02*
X4110773Y75433714D01*
X4429821Y75433714D01*
X4621250Y75433714D02*
X5067916Y75433714D01*
X4780773Y74683714D01*
X4334107Y72536571D02*
X4429821Y72500857D01*
X4461726Y72465142D01*
X4493630Y72393714D01*
X4493630Y72286571D01*
X4461726Y72215142D01*
X4429821Y72179428D01*
X4366011Y72143714D01*
X4110773Y72143714D01*
X4110773Y72893714D01*
X4334107Y72893714D01*
X4397916Y72858000D01*
X4429821Y72822285D01*
X4461726Y72750857D01*
X4461726Y72679428D01*
X4429821Y72608000D01*
X4397916Y72572285D01*
X4334107Y72536571D01*
X4110773Y72536571D01*
X5131726Y72143714D02*
X4748869Y72143714D01*
X4940297Y72143714D02*
X4940297Y72893714D01*
X4876488Y72786571D01*
X4812678Y72715142D01*
X4748869Y72679428D01*
X4334107Y69996571D02*
X4429821Y69960857D01*
X4461726Y69925142D01*
X4493630Y69853714D01*
X4493630Y69746571D01*
X4461726Y69675142D01*
X4429821Y69639428D01*
X4366011Y69603714D01*
X4110773Y69603714D01*
X4110773Y70353714D01*
X4334107Y70353714D01*
X4397916Y70318000D01*
X4429821Y70282285D01*
X4461726Y70210857D01*
X4461726Y70139428D01*
X4429821Y70068000D01*
X4397916Y70032285D01*
X4334107Y69996571D01*
X4110773Y69996571D01*
X4716964Y70353714D02*
X5131726Y70353714D01*
X4908392Y70068000D01*
X5004107Y70068000D01*
X5067916Y70032285D01*
X5099821Y69996571D01*
X5131726Y69925142D01*
X5131726Y69746571D01*
X5099821Y69675142D01*
X5067916Y69639428D01*
X5004107Y69603714D01*
X4812678Y69603714D01*
X4748869Y69639428D01*
X4716964Y69675142D01*
X4334107Y64916571D02*
X4429821Y64880857D01*
X4461726Y64845142D01*
X4493630Y64773714D01*
X4493630Y64666571D01*
X4461726Y64595142D01*
X4429821Y64559428D01*
X4366011Y64523714D01*
X4110773Y64523714D01*
X4110773Y65273714D01*
X4334107Y65273714D01*
X4397916Y65238000D01*
X4429821Y65202285D01*
X4461726Y65130857D01*
X4461726Y65059428D01*
X4429821Y64988000D01*
X4397916Y64952285D01*
X4334107Y64916571D01*
X4110773Y64916571D01*
X5067916Y65273714D02*
X4940297Y65273714D01*
X4876488Y65238000D01*
X4844583Y65202285D01*
X4780773Y65095142D01*
X4748869Y64952285D01*
X4748869Y64666571D01*
X4780773Y64595142D01*
X4812678Y64559428D01*
X4876488Y64523714D01*
X5004107Y64523714D01*
X5067916Y64559428D01*
X5099821Y64595142D01*
X5131726Y64666571D01*
X5131726Y64845142D01*
X5099821Y64916571D01*
X5067916Y64952285D01*
X5004107Y64988000D01*
X4876488Y64988000D01*
X4812678Y64952285D01*
X4780773Y64916571D01*
X4748869Y64845142D01*
X4334107Y67456571D02*
X4429821Y67420857D01*
X4461726Y67385142D01*
X4493630Y67313714D01*
X4493630Y67206571D01*
X4461726Y67135142D01*
X4429821Y67099428D01*
X4366011Y67063714D01*
X4110773Y67063714D01*
X4110773Y67813714D01*
X4334107Y67813714D01*
X4397916Y67778000D01*
X4429821Y67742285D01*
X4461726Y67670857D01*
X4461726Y67599428D01*
X4429821Y67528000D01*
X4397916Y67492285D01*
X4334107Y67456571D01*
X4110773Y67456571D01*
X4748869Y67742285D02*
X4780773Y67778000D01*
X4844583Y67813714D01*
X5004107Y67813714D01*
X5067916Y67778000D01*
X5099821Y67742285D01*
X5131726Y67670857D01*
X5131726Y67599428D01*
X5099821Y67492285D01*
X4716964Y67063714D01*
X5131726Y67063714D01*
X15383988Y69996571D02*
X15607321Y69996571D01*
X15703035Y69603714D02*
X15383988Y69603714D01*
X15383988Y70353714D01*
X15703035Y70353714D01*
X16277321Y70353714D02*
X16149702Y70353714D01*
X16085892Y70318000D01*
X16053988Y70282285D01*
X15990178Y70175142D01*
X15958273Y70032285D01*
X15958273Y69746571D01*
X15990178Y69675142D01*
X16022083Y69639428D01*
X16085892Y69603714D01*
X16213511Y69603714D01*
X16277321Y69639428D01*
X16309226Y69675142D01*
X16341130Y69746571D01*
X16341130Y69925142D01*
X16309226Y69996571D01*
X16277321Y70032285D01*
X16213511Y70068000D01*
X16085892Y70068000D01*
X16022083Y70032285D01*
X15990178Y69996571D01*
X15958273Y69925142D01*
X15320178Y72143714D02*
X15320178Y72893714D01*
X15479702Y72893714D01*
X15575416Y72858000D01*
X15639226Y72786571D01*
X15671130Y72715142D01*
X15703035Y72572285D01*
X15703035Y72465142D01*
X15671130Y72322285D01*
X15639226Y72250857D01*
X15575416Y72179428D01*
X15479702Y72143714D01*
X15320178Y72143714D01*
X15926369Y72893714D02*
X16373035Y72893714D01*
X16085892Y72143714D01*
X14937321Y88098000D02*
X14873511Y88133714D01*
X14777797Y88133714D01*
X14682083Y88098000D01*
X14618273Y88026571D01*
X14586369Y87955142D01*
X14554464Y87812285D01*
X14554464Y87705142D01*
X14586369Y87562285D01*
X14618273Y87490857D01*
X14682083Y87419428D01*
X14777797Y87383714D01*
X14841607Y87383714D01*
X14937321Y87419428D01*
X14969226Y87455142D01*
X14969226Y87705142D01*
X14841607Y87705142D01*
X15256369Y87383714D02*
X15256369Y88133714D01*
X15639226Y87383714D01*
X15639226Y88133714D01*
X15958273Y87383714D02*
X15958273Y88133714D01*
X16117797Y88133714D01*
X16213511Y88098000D01*
X16277321Y88026571D01*
X16309226Y87955142D01*
X16341130Y87812285D01*
X16341130Y87705142D01*
X16309226Y87562285D01*
X16277321Y87490857D01*
X16213511Y87419428D01*
X16117797Y87383714D01*
X15958273Y87383714D01*
X14937321Y85558000D02*
X14873511Y85593714D01*
X14777797Y85593714D01*
X14682083Y85558000D01*
X14618273Y85486571D01*
X14586369Y85415142D01*
X14554464Y85272285D01*
X14554464Y85165142D01*
X14586369Y85022285D01*
X14618273Y84950857D01*
X14682083Y84879428D01*
X14777797Y84843714D01*
X14841607Y84843714D01*
X14937321Y84879428D01*
X14969226Y84915142D01*
X14969226Y85165142D01*
X14841607Y85165142D01*
X15256369Y84843714D02*
X15256369Y85593714D01*
X15639226Y84843714D01*
X15639226Y85593714D01*
X15958273Y84843714D02*
X15958273Y85593714D01*
X16117797Y85593714D01*
X16213511Y85558000D01*
X16277321Y85486571D01*
X16309226Y85415142D01*
X16341130Y85272285D01*
X16341130Y85165142D01*
X16309226Y85022285D01*
X16277321Y84950857D01*
X16213511Y84879428D01*
X16117797Y84843714D01*
X15958273Y84843714D01*
X14745892Y93213714D02*
X15128750Y93213714D01*
X14937321Y92463714D02*
X14937321Y93213714D01*
X15288273Y93213714D02*
X15734940Y92463714D01*
X15734940Y93213714D02*
X15288273Y92463714D01*
X16117797Y93213714D02*
X16181607Y93213714D01*
X16245416Y93178000D01*
X16277321Y93142285D01*
X16309226Y93070857D01*
X16341130Y92928000D01*
X16341130Y92749428D01*
X16309226Y92606571D01*
X16277321Y92535142D01*
X16245416Y92499428D01*
X16181607Y92463714D01*
X16117797Y92463714D01*
X16053988Y92499428D01*
X16022083Y92535142D01*
X15990178Y92606571D01*
X15958273Y92749428D01*
X15958273Y92928000D01*
X15990178Y93070857D01*
X16022083Y93142285D01*
X16053988Y93178000D01*
X16117797Y93213714D01*
X15320178Y77223714D02*
X15320178Y77973714D01*
X15479702Y77973714D01*
X15575416Y77938000D01*
X15639226Y77866571D01*
X15671130Y77795142D01*
X15703035Y77652285D01*
X15703035Y77545142D01*
X15671130Y77402285D01*
X15639226Y77330857D01*
X15575416Y77259428D01*
X15479702Y77223714D01*
X15320178Y77223714D01*
X16277321Y77723714D02*
X16277321Y77223714D01*
X16117797Y78009428D02*
X15958273Y77473714D01*
X16373035Y77473714D01*
X14713988Y82339428D02*
X14809702Y82303714D01*
X14969226Y82303714D01*
X15033035Y82339428D01*
X15064940Y82375142D01*
X15096845Y82446571D01*
X15096845Y82518000D01*
X15064940Y82589428D01*
X15033035Y82625142D01*
X14969226Y82660857D01*
X14841607Y82696571D01*
X14777797Y82732285D01*
X14745892Y82768000D01*
X14713988Y82839428D01*
X14713988Y82910857D01*
X14745892Y82982285D01*
X14777797Y83018000D01*
X14841607Y83053714D01*
X15001130Y83053714D01*
X15096845Y83018000D01*
X15383988Y82303714D02*
X15383988Y83053714D01*
X15543511Y83053714D01*
X15639226Y83018000D01*
X15703035Y82946571D01*
X15734940Y82875142D01*
X15766845Y82732285D01*
X15766845Y82625142D01*
X15734940Y82482285D01*
X15703035Y82410857D01*
X15639226Y82339428D01*
X15543511Y82303714D01*
X15383988Y82303714D01*
X16022083Y82518000D02*
X16341130Y82518000D01*
X15958273Y82303714D02*
X16181607Y83053714D01*
X16404940Y82303714D01*
X14745892Y79799428D02*
X14841607Y79763714D01*
X15001130Y79763714D01*
X15064940Y79799428D01*
X15096845Y79835142D01*
X15128750Y79906571D01*
X15128750Y79978000D01*
X15096845Y80049428D01*
X15064940Y80085142D01*
X15001130Y80120857D01*
X14873511Y80156571D01*
X14809702Y80192285D01*
X14777797Y80228000D01*
X14745892Y80299428D01*
X14745892Y80370857D01*
X14777797Y80442285D01*
X14809702Y80478000D01*
X14873511Y80513714D01*
X15033035Y80513714D01*
X15128750Y80478000D01*
X15798750Y79835142D02*
X15766845Y79799428D01*
X15671130Y79763714D01*
X15607321Y79763714D01*
X15511607Y79799428D01*
X15447797Y79870857D01*
X15415892Y79942285D01*
X15383988Y80085142D01*
X15383988Y80192285D01*
X15415892Y80335142D01*
X15447797Y80406571D01*
X15511607Y80478000D01*
X15607321Y80513714D01*
X15671130Y80513714D01*
X15766845Y80478000D01*
X15798750Y80442285D01*
X16404940Y79763714D02*
X16085892Y79763714D01*
X16085892Y80513714D01*
X15703035Y74755142D02*
X15671130Y74719428D01*
X15575416Y74683714D01*
X15511607Y74683714D01*
X15415892Y74719428D01*
X15352083Y74790857D01*
X15320178Y74862285D01*
X15288273Y75005142D01*
X15288273Y75112285D01*
X15320178Y75255142D01*
X15352083Y75326571D01*
X15415892Y75398000D01*
X15511607Y75433714D01*
X15575416Y75433714D01*
X15671130Y75398000D01*
X15703035Y75362285D01*
X16277321Y75433714D02*
X16149702Y75433714D01*
X16085892Y75398000D01*
X16053988Y75362285D01*
X15990178Y75255142D01*
X15958273Y75112285D01*
X15958273Y74826571D01*
X15990178Y74755142D01*
X16022083Y74719428D01*
X16085892Y74683714D01*
X16213511Y74683714D01*
X16277321Y74719428D01*
X16309226Y74755142D01*
X16341130Y74826571D01*
X16341130Y75005142D01*
X16309226Y75076571D01*
X16277321Y75112285D01*
X16213511Y75148000D01*
X16085892Y75148000D01*
X16022083Y75112285D01*
X15990178Y75076571D01*
X15958273Y75005142D01*
X15543511Y64916571D02*
X15639226Y64880857D01*
X15671130Y64845142D01*
X15703035Y64773714D01*
X15703035Y64666571D01*
X15671130Y64595142D01*
X15639226Y64559428D01*
X15575416Y64523714D01*
X15320178Y64523714D01*
X15320178Y65273714D01*
X15543511Y65273714D01*
X15607321Y65238000D01*
X15639226Y65202285D01*
X15671130Y65130857D01*
X15671130Y65059428D01*
X15639226Y64988000D01*
X15607321Y64952285D01*
X15543511Y64916571D01*
X15320178Y64916571D01*
X16309226Y65273714D02*
X15990178Y65273714D01*
X15958273Y64916571D01*
X15990178Y64952285D01*
X16053988Y64988000D01*
X16213511Y64988000D01*
X16277321Y64952285D01*
X16309226Y64916571D01*
X16341130Y64845142D01*
X16341130Y64666571D01*
X16309226Y64595142D01*
X16277321Y64559428D01*
X16213511Y64523714D01*
X16053988Y64523714D01*
X15990178Y64559428D01*
X15958273Y64595142D01*
X15064940Y89923714D02*
X14841607Y90280857D01*
X14682083Y89923714D02*
X14682083Y90673714D01*
X14937321Y90673714D01*
X15001130Y90638000D01*
X15033035Y90602285D01*
X15064940Y90530857D01*
X15064940Y90423714D01*
X15033035Y90352285D01*
X15001130Y90316571D01*
X14937321Y90280857D01*
X14682083Y90280857D01*
X15288273Y90673714D02*
X15734940Y89923714D01*
X15734940Y90673714D02*
X15288273Y89923714D01*
X16341130Y89923714D02*
X15958273Y89923714D01*
X16149702Y89923714D02*
X16149702Y90673714D01*
X16085892Y90566571D01*
X16022083Y90495142D01*
X15958273Y90459428D01*
X15543511Y67456571D02*
X15639226Y67420857D01*
X15671130Y67385142D01*
X15703035Y67313714D01*
X15703035Y67206571D01*
X15671130Y67135142D01*
X15639226Y67099428D01*
X15575416Y67063714D01*
X15320178Y67063714D01*
X15320178Y67813714D01*
X15543511Y67813714D01*
X15607321Y67778000D01*
X15639226Y67742285D01*
X15671130Y67670857D01*
X15671130Y67599428D01*
X15639226Y67528000D01*
X15607321Y67492285D01*
X15543511Y67456571D01*
X15320178Y67456571D01*
X16277321Y67563714D02*
X16277321Y67063714D01*
X16117797Y67849428D02*
X15958273Y67313714D01*
X16373035Y67313714D01*
D11*
X16188095Y6997619D02*
X16759523Y6997619D01*
X16473809Y5997619D02*
X16473809Y6997619D01*
X17664285Y5997619D02*
X17330952Y6473809D01*
X17092857Y5997619D02*
X17092857Y6997619D01*
X17473809Y6997619D01*
X17569047Y6950000D01*
X17616666Y6902380D01*
X17664285Y6807142D01*
X17664285Y6664285D01*
X17616666Y6569047D01*
X17569047Y6521428D01*
X17473809Y6473809D01*
X17092857Y6473809D01*
X18664285Y5997619D02*
X18330952Y6473809D01*
X18092857Y5997619D02*
X18092857Y6997619D01*
X18473809Y6997619D01*
X18569047Y6950000D01*
X18616666Y6902380D01*
X18664285Y6807142D01*
X18664285Y6664285D01*
X18616666Y6569047D01*
X18569047Y6521428D01*
X18473809Y6473809D01*
X18092857Y6473809D01*
X19045238Y6045238D02*
X19188095Y5997619D01*
X19426190Y5997619D01*
X19521428Y6045238D01*
X19569047Y6092857D01*
X19616666Y6188095D01*
X19616666Y6283333D01*
X19569047Y6378571D01*
X19521428Y6426190D01*
X19426190Y6473809D01*
X19235714Y6521428D01*
X19140476Y6569047D01*
X19092857Y6616666D01*
X19045238Y6711904D01*
X19045238Y6807142D01*
X19092857Y6902380D01*
X19140476Y6950000D01*
X19235714Y6997619D01*
X19473809Y6997619D01*
X19616666Y6950000D01*
X4298095Y6997619D02*
X4869523Y6997619D01*
X4583809Y5997619D02*
X4583809Y6997619D01*
X5774285Y5997619D02*
X5440952Y6473809D01*
X5202857Y5997619D02*
X5202857Y6997619D01*
X5583809Y6997619D01*
X5679047Y6950000D01*
X5726666Y6902380D01*
X5774285Y6807142D01*
X5774285Y6664285D01*
X5726666Y6569047D01*
X5679047Y6521428D01*
X5583809Y6473809D01*
X5202857Y6473809D01*
X6774285Y5997619D02*
X6440952Y6473809D01*
X6202857Y5997619D02*
X6202857Y6997619D01*
X6583809Y6997619D01*
X6679047Y6950000D01*
X6726666Y6902380D01*
X6774285Y6807142D01*
X6774285Y6664285D01*
X6726666Y6569047D01*
X6679047Y6521428D01*
X6583809Y6473809D01*
X6202857Y6473809D01*
X7155238Y6045238D02*
X7298095Y5997619D01*
X7536190Y5997619D01*
X7631428Y6045238D01*
X7679047Y6092857D01*
X7726666Y6188095D01*
X7726666Y6283333D01*
X7679047Y6378571D01*
X7631428Y6426190D01*
X7536190Y6473809D01*
X7345714Y6521428D01*
X7250476Y6569047D01*
X7202857Y6616666D01*
X7155238Y6711904D01*
X7155238Y6807142D01*
X7202857Y6902380D01*
X7250476Y6950000D01*
X7345714Y6997619D01*
X7583809Y6997619D01*
X7726666Y6950000D01*
X9407619Y59617619D02*
X9598095Y59617619D01*
X9693333Y59570000D01*
X9788571Y59474761D01*
X9836190Y59284285D01*
X9836190Y58950952D01*
X9788571Y58760476D01*
X9693333Y58665238D01*
X9598095Y58617619D01*
X9407619Y58617619D01*
X9312380Y58665238D01*
X9217142Y58760476D01*
X9169523Y58950952D01*
X9169523Y59284285D01*
X9217142Y59474761D01*
X9312380Y59570000D01*
X9407619Y59617619D01*
X10740952Y58617619D02*
X10264761Y58617619D01*
X10264761Y59617619D01*
X11074285Y59141428D02*
X11407619Y59141428D01*
X11550476Y58617619D02*
X11074285Y58617619D01*
X11074285Y59617619D01*
X11550476Y59617619D01*
X11979047Y58617619D02*
X11979047Y59617619D01*
X12217142Y59617619D01*
X12360000Y59570000D01*
X12455238Y59474761D01*
X12502857Y59379523D01*
X12550476Y59189047D01*
X12550476Y59046190D01*
X12502857Y58855714D01*
X12455238Y58760476D01*
X12360000Y58665238D01*
X12217142Y58617619D01*
X11979047Y58617619D01*
X11202380Y65407619D02*
X10726190Y65074285D01*
X11202380Y64836190D02*
X10202380Y64836190D01*
X10202380Y65217142D01*
X10250000Y65312380D01*
X10297619Y65360000D01*
X10392857Y65407619D01*
X10535714Y65407619D01*
X10630952Y65360000D01*
X10678571Y65312380D01*
X10726190Y65217142D01*
X10726190Y64836190D01*
X10678571Y65836190D02*
X10678571Y66169523D01*
X11202380Y66312380D02*
X11202380Y65836190D01*
X10202380Y65836190D01*
X10202380Y66312380D01*
X11154761Y66693333D02*
X11202380Y66836190D01*
X11202380Y67074285D01*
X11154761Y67169523D01*
X11107142Y67217142D01*
X11011904Y67264761D01*
X10916666Y67264761D01*
X10821428Y67217142D01*
X10773809Y67169523D01*
X10726190Y67074285D01*
X10678571Y66883809D01*
X10630952Y66788571D01*
X10583333Y66740952D01*
X10488095Y66693333D01*
X10392857Y66693333D01*
X10297619Y66740952D01*
X10250000Y66788571D01*
X10202380Y66883809D01*
X10202380Y67121904D01*
X10250000Y67264761D01*
X10678571Y67693333D02*
X10678571Y68026666D01*
X11202380Y68169523D02*
X11202380Y67693333D01*
X10202380Y67693333D01*
X10202380Y68169523D01*
X10202380Y68455238D02*
X10202380Y69026666D01*
X11202380Y68740952D02*
X10202380Y68740952D01*
%LPC*%
D13*
X35313750Y26550000D03*
X45473750Y26550000D03*
D14*
X45893750Y26550000D03*
X34893750Y26550000D03*
D15*
X40393750Y26550000D03*
D13*
X61507500Y26550000D03*
X71667500Y26550000D03*
D14*
X72087500Y26550000D03*
X61087500Y26550000D03*
D15*
X66587500Y26550000D03*
D13*
X61507500Y64650000D03*
X71667500Y64650000D03*
D14*
X72087500Y64650000D03*
X61087500Y64650000D03*
D15*
X66587500Y64650000D03*
D13*
X61507500Y83700000D03*
X71667500Y83700000D03*
D14*
X72087500Y83700000D03*
X61087500Y83700000D03*
D15*
X66587500Y83700000D03*
D13*
X42457500Y83700000D03*
X52617500Y83700000D03*
D14*
X53037500Y83700000D03*
X42037500Y83700000D03*
D15*
X47537500Y83700000D03*
X42775000Y64650000D03*
D14*
X37275000Y64650000D03*
X48275000Y64650000D03*
D13*
X47855000Y64650000D03*
X37695000Y64650000D03*
X35313750Y45600000D03*
X45473750Y45600000D03*
D14*
X45893750Y45600000D03*
X34893750Y45600000D03*
D15*
X40393750Y45600000D03*
D13*
X40076250Y7500000D03*
X50236250Y7500000D03*
D14*
X50656250Y7500000D03*
X39656250Y7500000D03*
D15*
X45156250Y7500000D03*
D13*
X61507500Y45600000D03*
X71667500Y45600000D03*
D14*
X72087500Y45600000D03*
X61087500Y45600000D03*
D15*
X66587500Y45600000D03*
X66587500Y7500000D03*
D14*
X61087500Y7500000D03*
X72087500Y7500000D03*
D13*
X71667500Y7500000D03*
X61507500Y7500000D03*
M02*
