M48
; DRILL file {KiCad (5.1.9)-1} date 04/17/21 21:53:43
; FORMAT={3:3/ absolute / metric / suppress leading zeros}
; #@! TF.CreationDate,2021-04-17T21:53:43+09:00
; #@! TF.GenerationSoftware,Kicad,Pcbnew,(5.1.9)-1
FMAT,2
METRIC,TZ
T1C0.600
T2C0.800
T3C0.900
T4C1.000
T5C1.500
T6C2.000
T7C1.700
T8C1.900
T9C4.000
T10C4.100
%
G90
G05
T1
X7480Y34091
X9980Y34091
X10620Y38109
X13120Y38109
X14480Y34091
X16980Y34091
X17620Y38109
X19480Y34091
X20120Y38109
X22620Y38109
X23480Y34091
X25980Y34091
X26620Y38109
X29120Y38109
X29980Y34091
X33120Y38109
X33480Y34091
X35980Y34091
X36620Y38109
X39120Y38109
X39980Y34091
X42480Y34091
X43120Y38109
X45620Y38109
X46480Y34091
X48980Y34091
X49620Y38109
X51480Y34091
X52120Y38109
X54620Y38109
X55480Y34091
X57980Y34091
X58620Y38109
X61120Y38109
X61980Y34091
X64480Y34091
X65120Y38109
X66980Y34091
X67620Y38109
X70120Y38109
X71480Y34091
X73980Y34091
X74620Y38109
X77120Y38109
X77980Y34091
X80480Y34091
X81120Y38109
X82980Y34091
X83620Y38109
X86120Y38109
T2
X95250Y87535
X95250Y84995
X95250Y82455
X95250Y79915
T3
X1270Y92900
X1270Y90360
X1270Y87820
X1270Y85280
X1270Y82740
X1270Y80200
X1270Y77660
X1270Y75120
X95760Y53920
X95760Y51380
X95760Y48840
X95760Y46300
X95760Y43760
X95760Y41220
X95760Y38680
X95760Y36140
X95760Y33600
X95760Y22320
X95760Y19780
X95760Y17240
X95760Y14700
X95760Y12160
X95760Y9620
X95760Y7080
X95760Y4540
X95760Y2000
T4
X79000Y29050
X79000Y24050
X93500Y29050
X93500Y26550
X93500Y24050
T5
X5690Y67190
X5690Y48140
X5690Y29090
X5690Y10040
X12040Y88780
X12040Y69730
X12040Y50680
X12040Y31630
X12040Y12580
X24740Y86240
X24740Y67190
X24740Y48140
X24740Y29090
X24740Y10040
X31090Y88780
X31090Y69730
X31090Y50680
X31090Y31630
X31090Y12580
X43790Y86240
X43790Y67190
X43790Y48140
X43790Y29090
X43790Y10040
X50140Y88780
X50140Y69730
X50140Y50680
X50140Y31630
X50140Y12580
X62840Y86240
X62840Y67190
X62840Y48140
X62840Y29090
X62840Y10040
X69190Y88780
X69190Y69730
X69190Y50680
X69190Y31630
X69190Y12580
X81890Y86240
X81890Y67190
X81890Y48140
X81890Y29090
X81890Y10040
X88240Y88780
X88240Y69730
X88240Y50680
X88240Y31630
X88240Y12580
T7
X4420Y83700
X4420Y64650
X4420Y45600
X4420Y26550
X4420Y7500
X14580Y83700
X14580Y64650
X14580Y45600
X14580Y26550
X14580Y7500
X23470Y83700
X23470Y64650
X23470Y45600
X23470Y26550
X23470Y7500
X33630Y83700
X33630Y64650
X33630Y45600
X33630Y26550
X33630Y7500
X42520Y83700
X42520Y64650
X42520Y45600
X42520Y26550
X42520Y7500
X52680Y83700
X52680Y64650
X52680Y45600
X52680Y26550
X52680Y7500
X61570Y83700
X61570Y64650
X61570Y45600
X61570Y26550
X61570Y7500
X71730Y83700
X71730Y64650
X71730Y45600
X71730Y26550
X71730Y7500
X80620Y83700
X80620Y64650
X80620Y45600
X80620Y26550
X80620Y7500
X90780Y83700
X90780Y64650
X90780Y45600
X90780Y26550
X90780Y7500
T8
X4000Y83700
X4000Y64650
X4000Y45600
X4000Y26550
X4000Y7500
X15000Y83700
X15000Y64650
X15000Y45600
X15000Y26550
X15000Y7500
X23050Y83700
X23050Y64650
X23050Y45600
X23050Y26550
X23050Y7500
X34050Y83700
X34050Y64650
X34050Y45600
X34050Y26550
X34050Y7500
X42100Y83700
X42100Y64650
X42100Y45600
X42100Y26550
X42100Y7500
X53100Y83700
X53100Y64650
X53100Y45600
X53100Y26550
X53100Y7500
X61150Y83700
X61150Y64650
X61150Y45600
X61150Y26550
X61150Y7500
X72150Y83700
X72150Y64650
X72150Y45600
X72150Y26550
X72150Y7500
X80200Y83700
X80200Y64650
X80200Y45600
X80200Y26550
X80200Y7500
X91200Y83700
X91200Y64650
X91200Y45600
X91200Y26550
X91200Y7500
T9
X9500Y83700
X9500Y64650
X9500Y45600
X9500Y26550
X9500Y7500
X28550Y83700
X28550Y64650
X28550Y45600
X28550Y26550
X28550Y7500
X47600Y83700
X47600Y64650
X47600Y45600
X47600Y26550
X47600Y7500
X66650Y83700
X66650Y64650
X66650Y45600
X66650Y26550
X66650Y7500
X85700Y83700
X85700Y64650
X85700Y45600
X85700Y26550
X85700Y7500
T10
X19050Y74200
X19050Y55150
X19050Y17050
X38100Y74200
X38100Y55150
X38100Y17050
X57150Y74200
X57150Y55150
X57150Y17050
X76200Y74200
X76200Y55150
X76200Y17050
T5
G00X5690Y86240
M15
G01X5690Y86240
M16
G05
T6
G00X86050Y32150
M15
G01X85950Y32150
M16
G05
G00X86050Y20950
M15
G01X85950Y20950
M16
G05
T0
M30
