G04 #@! TF.GenerationSoftware,KiCad,Pcbnew,(5.1.9)-1*
G04 #@! TF.CreationDate,2021-04-17T21:53:40+09:00*
G04 #@! TF.ProjectId,____________,adfcb9a4-c3c1-428e-91a4-f3fa7f2e6b69,rev?*
G04 #@! TF.SameCoordinates,Original*
G04 #@! TF.FileFunction,Soldermask,Top*
G04 #@! TF.FilePolarity,Negative*
%FSLAX46Y46*%
G04 Gerber Fmt 4.6, Leading zero omitted, Abs format (unit mm)*
G04 Created by KiCad (PCBNEW (5.1.9)-1) date 2021-04-17 21:53:40*
%MOMM*%
%LPD*%
G01*
G04 APERTURE LIST*
%ADD10C,4.000000*%
%ADD11C,1.900000*%
%ADD12C,1.700000*%
G04 APERTURE END LIST*
D10*
X85700000Y7500000D03*
D11*
X80200000Y7500000D03*
X91200000Y7500000D03*
D12*
X90780000Y7500000D03*
X80620000Y7500000D03*
X80620000Y83700000D03*
X90780000Y83700000D03*
D11*
X91200000Y83700000D03*
X80200000Y83700000D03*
D10*
X85700000Y83700000D03*
D12*
X4420000Y83700000D03*
X14580000Y83700000D03*
D11*
X15000000Y83700000D03*
X4000000Y83700000D03*
D10*
X9500000Y83700000D03*
D12*
X80620000Y26550000D03*
X90780000Y26550000D03*
D11*
X91200000Y26550000D03*
X80200000Y26550000D03*
D10*
X85700000Y26550000D03*
D12*
X80620000Y64650000D03*
X90780000Y64650000D03*
D11*
X91200000Y64650000D03*
X80200000Y64650000D03*
D10*
X85700000Y64650000D03*
X9500000Y64650000D03*
D11*
X4000000Y64650000D03*
X15000000Y64650000D03*
D12*
X14580000Y64650000D03*
X4420000Y64650000D03*
X4420000Y45600000D03*
X14580000Y45600000D03*
D11*
X15000000Y45600000D03*
X4000000Y45600000D03*
D10*
X9500000Y45600000D03*
X9500000Y26550000D03*
D11*
X4000000Y26550000D03*
X15000000Y26550000D03*
D12*
X14580000Y26550000D03*
X4420000Y26550000D03*
X23470000Y83700000D03*
X33630000Y83700000D03*
D11*
X34050000Y83700000D03*
X23050000Y83700000D03*
D10*
X28550000Y83700000D03*
X28550000Y64650000D03*
D11*
X23050000Y64650000D03*
X34050000Y64650000D03*
D12*
X33630000Y64650000D03*
X23470000Y64650000D03*
X23470000Y45600000D03*
X33630000Y45600000D03*
D11*
X34050000Y45600000D03*
X23050000Y45600000D03*
D10*
X28550000Y45600000D03*
X28550000Y26550000D03*
D11*
X23050000Y26550000D03*
X34050000Y26550000D03*
D12*
X33630000Y26550000D03*
X23470000Y26550000D03*
D10*
X47600000Y83700000D03*
D11*
X42100000Y83700000D03*
X53100000Y83700000D03*
D12*
X52680000Y83700000D03*
X42520000Y83700000D03*
D10*
X47600000Y64650000D03*
D11*
X42100000Y64650000D03*
X53100000Y64650000D03*
D12*
X52680000Y64650000D03*
X42520000Y64650000D03*
X42520000Y45600000D03*
X52680000Y45600000D03*
D11*
X53100000Y45600000D03*
X42100000Y45600000D03*
D10*
X47600000Y45600000D03*
X47600000Y26550000D03*
D11*
X42100000Y26550000D03*
X53100000Y26550000D03*
D12*
X52680000Y26550000D03*
X42520000Y26550000D03*
X42520000Y7500000D03*
X52680000Y7500000D03*
D11*
X53100000Y7500000D03*
X42100000Y7500000D03*
D10*
X47600000Y7500000D03*
X66650000Y83700000D03*
D11*
X61150000Y83700000D03*
X72150000Y83700000D03*
D12*
X71730000Y83700000D03*
X61570000Y83700000D03*
D10*
X66650000Y64650000D03*
D11*
X61150000Y64650000D03*
X72150000Y64650000D03*
D12*
X71730000Y64650000D03*
X61570000Y64650000D03*
X61570000Y45600000D03*
X71730000Y45600000D03*
D11*
X72150000Y45600000D03*
X61150000Y45600000D03*
D10*
X66650000Y45600000D03*
D12*
X61570000Y26550000D03*
X71730000Y26550000D03*
D11*
X72150000Y26550000D03*
X61150000Y26550000D03*
D10*
X66650000Y26550000D03*
X66650000Y7500000D03*
D11*
X61150000Y7500000D03*
X72150000Y7500000D03*
D12*
X71730000Y7500000D03*
X61570000Y7500000D03*
D10*
X85700000Y45600000D03*
D11*
X80200000Y45600000D03*
X91200000Y45600000D03*
D12*
X90780000Y45600000D03*
X80620000Y45600000D03*
D10*
X9500000Y7500000D03*
D11*
X4000000Y7500000D03*
X15000000Y7500000D03*
D12*
X14580000Y7500000D03*
X4420000Y7500000D03*
X23470000Y7500000D03*
X33630000Y7500000D03*
D11*
X34050000Y7500000D03*
X23050000Y7500000D03*
D10*
X28550000Y7500000D03*
M02*
