G04 #@! TF.GenerationSoftware,KiCad,Pcbnew,(5.1.9)-1*
G04 #@! TF.CreationDate,2021-04-17T21:53:40+09:00*
G04 #@! TF.ProjectId,____________,adfcb9a4-c3c1-428e-91a4-f3fa7f2e6b69,rev?*
G04 #@! TF.SameCoordinates,Original*
G04 #@! TF.FileFunction,Soldermask,Bot*
G04 #@! TF.FilePolarity,Negative*
%FSLAX46Y46*%
G04 Gerber Fmt 4.6, Leading zero omitted, Abs format (unit mm)*
G04 Created by KiCad (PCBNEW (5.1.9)-1) date 2021-04-17 21:53:40*
%MOMM*%
%LPD*%
G01*
G04 APERTURE LIST*
%ADD10C,4.000000*%
%ADD11C,1.900000*%
%ADD12C,2.500000*%
%ADD13C,1.700000*%
%ADD14O,2.000000X1.675000*%
%ADD15O,3.100000X3.000000*%
%ADD16C,2.000000*%
%ADD17C,4.100000*%
%ADD18R,1.600000X1.600000*%
%ADD19O,1.800000X1.439000*%
%ADD20O,1.900000X1.700000*%
%ADD21C,1.600000*%
G04 APERTURE END LIST*
D10*
X85700000Y7500000D03*
D11*
X80200000Y7500000D03*
X91200000Y7500000D03*
D12*
X88240000Y12580000D03*
X81890000Y10040000D03*
D13*
X90780000Y7500000D03*
X80620000Y7500000D03*
X80620000Y83700000D03*
X90780000Y83700000D03*
D12*
X81890000Y86240000D03*
X88240000Y88780000D03*
D11*
X91200000Y83700000D03*
X80200000Y83700000D03*
D10*
X85700000Y83700000D03*
D13*
X4420000Y83700000D03*
X14580000Y83700000D03*
G36*
G01*
X4666060Y86956971D02*
X4666060Y86956971D01*
G75*
G02*
X6267698Y87239383I942025J-659613D01*
G01*
X6431528Y87124667D01*
G75*
G02*
X6713940Y85523029I-659613J-942025D01*
G01*
X6713940Y85523029D01*
G75*
G02*
X5112302Y85240617I-942025J659613D01*
G01*
X4948472Y85355333D01*
G75*
G02*
X4666060Y86956971I659613J942025D01*
G01*
G37*
D12*
X12040000Y88780000D03*
D11*
X15000000Y83700000D03*
X4000000Y83700000D03*
D10*
X9500000Y83700000D03*
D13*
X80620000Y26550000D03*
X90780000Y26550000D03*
D12*
X81890000Y29090000D03*
X88240000Y31630000D03*
D11*
X91200000Y26550000D03*
X80200000Y26550000D03*
D10*
X85700000Y26550000D03*
D14*
X93500000Y24050000D03*
X93500000Y26550000D03*
X93500000Y29050000D03*
D15*
X86000000Y20950000D03*
X86000000Y32150000D03*
D16*
X79000000Y24050000D03*
X79000000Y29050000D03*
D13*
X80620000Y64650000D03*
X90780000Y64650000D03*
D12*
X81890000Y67190000D03*
X88240000Y69730000D03*
D11*
X91200000Y64650000D03*
X80200000Y64650000D03*
D10*
X85700000Y64650000D03*
D17*
X76200000Y74200000D03*
X57150000Y74200000D03*
X38100000Y74200000D03*
X19050000Y74200000D03*
X76200000Y55150000D03*
X57150000Y55150000D03*
X38100000Y55150000D03*
X19050000Y55150000D03*
X76200000Y17050000D03*
X57150000Y17050000D03*
X38100000Y17050000D03*
X19050000Y17050000D03*
D18*
X91400000Y59830000D03*
X91400000Y54750000D03*
X91400000Y57290000D03*
D10*
X9500000Y64650000D03*
D11*
X4000000Y64650000D03*
X15000000Y64650000D03*
D12*
X12040000Y69730000D03*
X5690000Y67190000D03*
D13*
X14580000Y64650000D03*
X4420000Y64650000D03*
X4420000Y45600000D03*
X14580000Y45600000D03*
D12*
X5690000Y48140000D03*
X12040000Y50680000D03*
D11*
X15000000Y45600000D03*
X4000000Y45600000D03*
D10*
X9500000Y45600000D03*
X9500000Y26550000D03*
D11*
X4000000Y26550000D03*
X15000000Y26550000D03*
D12*
X12040000Y31630000D03*
X5690000Y29090000D03*
D13*
X14580000Y26550000D03*
X4420000Y26550000D03*
X23470000Y83700000D03*
X33630000Y83700000D03*
D12*
X24740000Y86240000D03*
X31090000Y88780000D03*
D11*
X34050000Y83700000D03*
X23050000Y83700000D03*
D10*
X28550000Y83700000D03*
X28550000Y64650000D03*
D11*
X23050000Y64650000D03*
X34050000Y64650000D03*
D12*
X31090000Y69730000D03*
X24740000Y67190000D03*
D13*
X33630000Y64650000D03*
X23470000Y64650000D03*
X23470000Y45600000D03*
X33630000Y45600000D03*
D12*
X24740000Y48140000D03*
X31090000Y50680000D03*
D11*
X34050000Y45600000D03*
X23050000Y45600000D03*
D10*
X28550000Y45600000D03*
X28550000Y26550000D03*
D11*
X23050000Y26550000D03*
X34050000Y26550000D03*
D12*
X31090000Y31630000D03*
X24740000Y29090000D03*
D13*
X33630000Y26550000D03*
X23470000Y26550000D03*
D10*
X47600000Y83700000D03*
D11*
X42100000Y83700000D03*
X53100000Y83700000D03*
D12*
X50140000Y88780000D03*
X43790000Y86240000D03*
D13*
X52680000Y83700000D03*
X42520000Y83700000D03*
D10*
X47600000Y64650000D03*
D11*
X42100000Y64650000D03*
X53100000Y64650000D03*
D12*
X50140000Y69730000D03*
X43790000Y67190000D03*
D13*
X52680000Y64650000D03*
X42520000Y64650000D03*
X42520000Y45600000D03*
X52680000Y45600000D03*
D12*
X43790000Y48140000D03*
X50140000Y50680000D03*
D11*
X53100000Y45600000D03*
X42100000Y45600000D03*
D10*
X47600000Y45600000D03*
X47600000Y26550000D03*
D11*
X42100000Y26550000D03*
X53100000Y26550000D03*
D12*
X50140000Y31630000D03*
X43790000Y29090000D03*
D13*
X52680000Y26550000D03*
X42520000Y26550000D03*
X42520000Y7500000D03*
X52680000Y7500000D03*
D12*
X43790000Y10040000D03*
X50140000Y12580000D03*
D11*
X53100000Y7500000D03*
X42100000Y7500000D03*
D10*
X47600000Y7500000D03*
X66650000Y83700000D03*
D11*
X61150000Y83700000D03*
X72150000Y83700000D03*
D12*
X69190000Y88780000D03*
X62840000Y86240000D03*
D13*
X71730000Y83700000D03*
X61570000Y83700000D03*
D10*
X66650000Y64650000D03*
D11*
X61150000Y64650000D03*
X72150000Y64650000D03*
D12*
X69190000Y69730000D03*
X62840000Y67190000D03*
D13*
X71730000Y64650000D03*
X61570000Y64650000D03*
X61570000Y45600000D03*
X71730000Y45600000D03*
D12*
X62840000Y48140000D03*
X69190000Y50680000D03*
D11*
X72150000Y45600000D03*
X61150000Y45600000D03*
D10*
X66650000Y45600000D03*
D13*
X61570000Y26550000D03*
X71730000Y26550000D03*
D12*
X62840000Y29090000D03*
X69190000Y31630000D03*
D11*
X72150000Y26550000D03*
X61150000Y26550000D03*
D10*
X66650000Y26550000D03*
X66650000Y7500000D03*
D11*
X61150000Y7500000D03*
X72150000Y7500000D03*
D12*
X69190000Y12580000D03*
X62840000Y10040000D03*
D13*
X71730000Y7500000D03*
X61570000Y7500000D03*
D10*
X85700000Y45600000D03*
D11*
X80200000Y45600000D03*
X91200000Y45600000D03*
D12*
X88240000Y50680000D03*
X81890000Y48140000D03*
D13*
X90780000Y45600000D03*
X80620000Y45600000D03*
D19*
X95250000Y79915000D03*
X95250000Y82455000D03*
X95250000Y84995000D03*
X95250000Y87535000D03*
D10*
X9500000Y7500000D03*
D11*
X4000000Y7500000D03*
X15000000Y7500000D03*
D12*
X12040000Y12580000D03*
X5690000Y10040000D03*
D13*
X14580000Y7500000D03*
X4420000Y7500000D03*
X23470000Y7500000D03*
X33630000Y7500000D03*
D12*
X24740000Y10040000D03*
X31090000Y12580000D03*
D11*
X34050000Y7500000D03*
X23050000Y7500000D03*
D10*
X28550000Y7500000D03*
D11*
X1270000Y75120000D03*
X1270000Y77660000D03*
X1270000Y80200000D03*
X1270000Y82740000D03*
X1270000Y85280000D03*
X1270000Y87820000D03*
X1270000Y90360000D03*
X1270000Y92900000D03*
D20*
X95760000Y33600000D03*
X95760000Y36140000D03*
X95760000Y38680000D03*
X95760000Y41220000D03*
X95760000Y43760000D03*
X95760000Y46300000D03*
X95760000Y48840000D03*
X95760000Y51380000D03*
X95760000Y53920000D03*
X95760000Y22320000D03*
X95760000Y19780000D03*
X95760000Y17240000D03*
X95760000Y14700000D03*
X95760000Y12160000D03*
X95760000Y9620000D03*
X95760000Y7080000D03*
X95760000Y4540000D03*
X95760000Y2000000D03*
D21*
X19480063Y34090573D03*
X22619937Y38109427D03*
X20119937Y38109427D03*
X16980063Y34090573D03*
X14480063Y34090573D03*
X17619937Y38109427D03*
X13119937Y38109427D03*
X9980063Y34090573D03*
X7480063Y34090573D03*
X10619937Y38109427D03*
X39119937Y38109427D03*
X35980063Y34090573D03*
X36619937Y38109427D03*
X33480063Y34090573D03*
X29980063Y34090573D03*
X33119937Y38109427D03*
X29119937Y38109427D03*
X25980063Y34090573D03*
X26619937Y38109427D03*
X23480063Y34090573D03*
X51480063Y34090573D03*
X54619937Y38109427D03*
X48980063Y34090573D03*
X52119937Y38109427D03*
X49619937Y38109427D03*
X46480063Y34090573D03*
X42480063Y34090573D03*
X45619937Y38109427D03*
X43119937Y38109427D03*
X39980063Y34090573D03*
X70119937Y38109427D03*
X66980063Y34090573D03*
X67619937Y38109427D03*
X64480063Y34090573D03*
X61980063Y34090573D03*
X65119937Y38109427D03*
X57980063Y34090573D03*
X61119937Y38109427D03*
X58619937Y38109427D03*
X55480063Y34090573D03*
X86119937Y38109427D03*
X82980063Y34090573D03*
X83619937Y38109427D03*
X80480063Y34090573D03*
X77980063Y34090573D03*
X81119937Y38109427D03*
X73980063Y34090573D03*
X77119937Y38109427D03*
X71480063Y34090573D03*
X74619937Y38109427D03*
M02*
