  0
SECTION
  2
HEADER
  9
$ACADVER
  1
AC1006
  0
ENDSEC
  0
SECTION
  2
TABLES
  0
TABLE
  2
LTYPE
 70
     1
  0
LTYPE
  2
CONTINUOUS
 70
    64
  3
Solid line
 72
    65
 73
     0
 40
0.0
  0
ENDTAB
  0
TABLE
  2
LAYER
 70
9
  0
LAYER
  2
Pattern_Top
 70
0
 62
7
  6
CONTINUOUS
  0
LAYER
  2
Pattern_Top
 70
0
 62
7
  6
CONTINUOUS
  0
LAYER
  2
Pattern_Bottom
 70
0
 62
7
  6
CONTINUOUS
  0
LAYER
  2
Mill_Top
 70
0
 62
7
  6
CONTINUOUS
  0
LAYER
  2
Mill_Bottom
 70
0
 62
7
  6
CONTINUOUS
  0
LAYER
  2
Drill
 70
0
 62
7
  6
CONTINUOUS
  0
LAYER
  2
Routing
 70
0
 62
7
  6
CONTINUOUS
  0
LAYER
  2
Supp_Top
 70
0
 62
7
  6
CONTINUOUS
  0
LAYER
  2
Supp_Bottom
 70
0
 62
7
  6
CONTINUOUS
  0
ENDTAB
  0
ENDSEC
  0
SECTION
  2
ENTITIES
  0
POLYLINE
  8
Pattern_Top
  6
CONTINUOUS
 62
     0
 66
     1
 10
0.0
 20
0.0
 30
0.0
 70
1
  0
VERTEX
  8
Pattern_Top
  6
CONTINUOUS
 62
     0
 10
34.355000000000
 20
282.035000000000
 30
0.000000000000
 42
0.414213567972
  0
VERTEX
  8
Pattern_Top
  6
CONTINUOUS
 62
     0
 10
36.355000000000
 20
280.035000000000
 30
0.000000000000
  0
VERTEX
  8
Pattern_Top
  6
CONTINUOUS
 62
     0
 10
36.355000000000
 20
280.035000000000
 30
0.000000000000
  0
VERTEX
  8
Pattern_Top
  6
CONTINUOUS
 62
     0
 10
234.817500000000
 20
280.035000000000
 30
0.000000000000
  0
VERTEX
  8
Pattern_Top
  6
CONTINUOUS
 62
     0
 10
234.817500000000
 20
280.035000000000
 30
0.000000000000
 42
0.414213567972
  0
VERTEX
  8
Pattern_Top
  6
CONTINUOUS
 62
     0
 10
236.817500000000
 20
282.035000000000
 30
0.000000000000
  0
VERTEX
  8
Pattern_Top
  6
CONTINUOUS
 62
     0
 10
236.817500000000
 20
282.035000000000
 30
0.000000000000
  0
VERTEX
  8
Pattern_Top
  6
CONTINUOUS
 62
     0
 10
236.817500000000
 20
378.035000000000
 30
0.000000000000
  0
VERTEX
  8
Pattern_Top
  6
CONTINUOUS
 62
     0
 10
236.817500000000
 20
378.035000000000
 30
0.000000000000
 42
0.414213567972
  0
VERTEX
  8
Pattern_Top
  6
CONTINUOUS
 62
     0
 10
234.817500000000
 20
380.035000000000
 30
0.000000000000
  0
VERTEX
  8
Pattern_Top
  6
CONTINUOUS
 62
     0
 10
234.817500000000
 20
380.035000000000
 30
0.000000000000
  0
VERTEX
  8
Pattern_Top
  6
CONTINUOUS
 62
     0
 10
36.355000000000
 20
380.035000000000
 30
0.000000000000
  0
VERTEX
  8
Pattern_Top
  6
CONTINUOUS
 62
     0
 10
36.355000000000
 20
380.035000000000
 30
0.000000000000
 42
0.414213567972
  0
VERTEX
  8
Pattern_Top
  6
CONTINUOUS
 62
     0
 10
34.355000000000
 20
378.035000000000
 30
0.000000000000
  0
VERTEX
  8
Pattern_Top
  6
CONTINUOUS
 62
     0
 10
34.355000000000
 20
378.035000000000
 30
0.000000000000
  0
VERTEX
  8
Pattern_Top
  6
CONTINUOUS
 62
     0
 10
34.355000000000
 20
282.035000000000
 30
0.000000000000
  0
VERTEX
  8
Pattern_Top
  6
CONTINUOUS
 62
     0
 10
34.355000000000
 20
282.035000000000
 30
0.000000000000
  0
VERTEX
  8
Pattern_Top
  6
CONTINUOUS
 62
     0
 10
34.355000000000
 20
282.035000000000
 30
0.000000000000
  0
SEQEND
  8
Pattern_Top
  6
CONTINUOUS
 62
     0
  0
CIRCLE
  8
Pattern_Top
  6
CONTINUOUS
 62
     0
 10
45.105000000000
 20
376.285000000000
 30
0.000000000000
 40
1.100000023842
  0
CIRCLE
  8
Pattern_Top
  6
CONTINUOUS
 62
     0
 10
45.105000000000
 20
339.485000000000
 30
0.000000000000
 40
1.100000023842
  0
CIRCLE
  8
Pattern_Top
  6
CONTINUOUS
 62
     0
 10
45.105000000000
 20
308.610000000000
 30
0.000000000000
 40
1.100000023842
  0
CIRCLE
  8
Pattern_Top
  6
CONTINUOUS
 62
     0
 10
79.655000000000
 20
356.235000000000
 30
0.000000000000
 40
1.100000023842
  0
CIRCLE
  8
Pattern_Top
  6
CONTINUOUS
 62
     0
 10
79.655000000000
 20
299.085000000000
 30
0.000000000000
 40
1.100000023842
  0
CIRCLE
  8
Pattern_Top
  6
CONTINUOUS
 62
     0
 10
136.805000000000
 20
356.235000000000
 30
0.000000000000
 40
1.100000023842
  0
CIRCLE
  8
Pattern_Top
  6
CONTINUOUS
 62
     0
 10
174.905000000000
 20
356.235000000000
 30
0.000000000000
 40
1.100000023842
  0
CIRCLE
  8
Pattern_Top
  6
CONTINUOUS
 62
     0
 10
232.055000000000
 20
356.235000000000
 30
0.000000000000
 40
1.100000023842
  0
CIRCLE
  8
Pattern_Top
  6
CONTINUOUS
 62
     0
 10
136.805000000000
 20
299.085000000000
 30
0.000000000000
 40
1.100000023842
  0
CIRCLE
  8
Pattern_Top
  6
CONTINUOUS
 62
     0
 10
174.905000000000
 20
299.085000000000
 30
0.000000000000
 40
1.100000023842
  0
CIRCLE
  8
Pattern_Top
  6
CONTINUOUS
 62
     0
 10
232.055000000000
 20
299.085000000000
 30
0.000000000000
 40
1.100000023842
  0
ENDSEC
  0
EOF
