G04 #@! TF.GenerationSoftware,KiCad,Pcbnew,(5.1.9)-1*
G04 #@! TF.CreationDate,2021-04-18T14:03:54+09:00*
G04 #@! TF.ProjectId,_____________,f3e135fa-7f28-4c8c-93d7-d7ecfcc82e6b,rev?*
G04 #@! TF.SameCoordinates,Original*
G04 #@! TF.FileFunction,Profile,NP*
%FSLAX46Y46*%
G04 Gerber Fmt 4.6, Leading zero omitted, Abs format (unit mm)*
G04 Created by KiCad (PCBNEW (5.1.9)-1) date 2021-04-18 14:03:54*
%MOMM*%
%LPD*%
G01*
G04 APERTURE LIST*
G04 #@! TA.AperFunction,Profile*
%ADD10C,0.100000*%
G04 #@! TD*
G04 APERTURE END LIST*
D10*
X1000000Y0D02*
G75*
G02*
X0Y1000000I0J1000000D01*
G01*
X42456250Y38600000D02*
G75*
G02*
X42456250Y37600000I0J-500000D01*
G01*
X5500000Y37600000D02*
G75*
G02*
X5500000Y38600000I0J500000D01*
G01*
X5500000Y38600000D02*
X42456250Y38600000D01*
X5500000Y37600000D02*
X42456250Y37600000D01*
X0Y74725000D02*
G75*
G02*
X1000000Y75725000I1000000J0D01*
G01*
X2950000Y76725000D02*
G75*
G02*
X1950000Y75725000I-1000000J0D01*
G01*
X2950000Y77675000D02*
G75*
G02*
X3950000Y78675000I1000000J0D01*
G01*
X2950000Y94775000D02*
G75*
G03*
X4950000Y92775000I2000000J0D01*
G01*
X2950000Y76725000D02*
X2950000Y77675000D01*
X47718750Y70550000D02*
X47718750Y73725000D01*
X46868750Y43750000D02*
X46868750Y46750000D01*
X47718750Y73725000D02*
X61818750Y73725000D01*
X46868750Y67550000D02*
X46868750Y70550000D01*
X47718750Y40575000D02*
X47718750Y43750000D01*
X47718750Y46750000D02*
X47718750Y67550000D01*
X47718750Y40575000D02*
X61818750Y40575000D01*
X47718750Y67550000D02*
X46868750Y67550000D01*
X61818750Y40575000D02*
X61818750Y73725000D01*
X46868750Y46750000D02*
X47718750Y46750000D01*
X46868750Y43750000D02*
X47718750Y43750000D01*
X47718750Y70550000D02*
X46868750Y70550000D01*
X1000000Y75725000D02*
X1950000Y75725000D01*
X72931250Y35625000D02*
X76106250Y35625000D01*
X69931250Y36475000D02*
X72931250Y36475000D01*
X76106250Y35625000D02*
X76106250Y21525000D01*
X46131250Y36475000D02*
X49131250Y36475000D01*
X42956250Y35625000D02*
X46131250Y35625000D01*
X46131250Y36475000D02*
X46131250Y35625000D01*
X49131250Y36475000D02*
X49131250Y35625000D01*
X72931250Y35625000D02*
X72931250Y36475000D01*
X69931250Y35625000D02*
X69931250Y36475000D01*
X42956250Y35625000D02*
X42956250Y21525000D01*
X49131250Y35625000D02*
X69931250Y35625000D01*
X42956250Y21525000D02*
X76106250Y21525000D01*
X40575000Y92775000D02*
X54675000Y92775000D01*
X21525000Y92775000D02*
X35625000Y92775000D01*
X59625000Y92775000D02*
X73725000Y92775000D01*
X59625000Y78675000D02*
X59625000Y92775000D01*
X40575000Y78675000D02*
X40575000Y92775000D01*
X21525000Y78675000D02*
X21525000Y92775000D01*
X2950000Y94775000D02*
X2950000Y98000000D01*
X21525000Y59625000D02*
X21525000Y73725000D01*
X2475000Y59625000D02*
X2475000Y73725000D01*
X21525000Y40575000D02*
X21525000Y54675000D01*
X2475000Y40575000D02*
X2475000Y54675000D01*
X21525000Y21525000D02*
X21525000Y35625000D01*
X2475000Y21525000D02*
X2475000Y35625000D01*
X40575000Y2475000D02*
X40575000Y16575000D01*
X21525000Y2475000D02*
X21525000Y16575000D01*
X4950000Y92775000D02*
X16575000Y92775000D01*
X21525000Y73725000D02*
X35625000Y73725000D01*
X2475000Y73725000D02*
X16575000Y73725000D01*
X21525000Y54675000D02*
X35625000Y54675000D01*
X2475000Y54675000D02*
X16575000Y54675000D01*
X21525000Y35625000D02*
X35625000Y35625000D01*
X2475000Y35625000D02*
X16575000Y35625000D01*
X40575000Y16575000D02*
X54675000Y16575000D01*
X21525000Y16575000D02*
X35625000Y16575000D01*
X73725000Y78675000D02*
X59625000Y78675000D01*
X54675000Y78675000D02*
X40575000Y78675000D01*
X35625000Y78675000D02*
X21525000Y78675000D01*
X16575000Y78675000D02*
X3950000Y78675000D01*
X35625000Y59625000D02*
X21525000Y59625000D01*
X16575000Y59625000D02*
X2475000Y59625000D01*
X35625000Y40575000D02*
X21525000Y40575000D01*
X16575000Y40575000D02*
X2475000Y40575000D01*
X35625000Y21525000D02*
X21525000Y21525000D01*
X16575000Y21525000D02*
X2475000Y21525000D01*
X54675000Y2475000D02*
X40575000Y2475000D01*
X35625000Y2475000D02*
X21525000Y2475000D01*
X73725000Y92775000D02*
X73725000Y78675000D01*
X54675000Y92775000D02*
X54675000Y78675000D01*
X35625000Y92775000D02*
X35625000Y78675000D01*
X16575000Y92775000D02*
X16575000Y78675000D01*
X35625000Y73725000D02*
X35625000Y59625000D01*
X16575000Y73725000D02*
X16575000Y59625000D01*
X35625000Y54675000D02*
X35625000Y40575000D01*
X16575000Y54675000D02*
X16575000Y40575000D01*
X35625000Y35625000D02*
X35625000Y21525000D01*
X16575000Y35625000D02*
X16575000Y21525000D01*
X54675000Y16575000D02*
X54675000Y2475000D01*
X35625000Y16575000D02*
X35625000Y2475000D01*
X80962500Y98000000D02*
G75*
G03*
X78962500Y100000000I-2000000J0D01*
G01*
X80962500Y2000000D02*
X80962500Y98000000D01*
X0Y24550000D02*
X0Y1000000D01*
X0Y74725000D02*
X0Y24550000D01*
X16575000Y2475000D02*
X2475000Y2475000D01*
X16575000Y16575000D02*
X16575000Y2475000D01*
X2475000Y16575000D02*
X16575000Y16575000D01*
X2475000Y2475000D02*
X2475000Y16575000D01*
X1000000Y0D02*
X78962500Y0D01*
X78962500Y0D02*
G75*
G03*
X80962500Y2000000I0J2000000D01*
G01*
X78962500Y100000000D02*
X4950000Y100000000D01*
X4950000Y100000000D02*
G75*
G03*
X2950000Y98000000I0J-2000000D01*
G01*
M02*
