M48
; DRILL file {KiCad (5.1.9)-1} date 04/18/21 15:15:45
; FORMAT={3:3/ absolute / metric / suppress leading zeros}
; #@! TF.CreationDate,2021-04-18T15:15:45+09:00
; #@! TF.GenerationSoftware,Kicad,Pcbnew,(5.1.9)-1
FMAT,2
METRIC,TZ
T1C0.500
T2C0.600
T3C0.800
T4C0.900
T5C1.000
T6C1.500
T7C2.000
T8C2.100
T9C1.700
T10C1.900
T11C3.050
T12C4.000
T13C4.100
%
G90
G05
T2
X17430Y34091
X19930Y34091
X20570Y38109
X23070Y38109
X23930Y34091
X26430Y34091
X27070Y38109
X28930Y34091
X29570Y38109
X32070Y38109
X32930Y34091
X35430Y34091
X36070Y38109
X38570Y38109
X39430Y34091
X41930Y34091
X42570Y38109
X44430Y34091
X45070Y38109
X47570Y38109
X48430Y34091
X50930Y34091
X51570Y38109
X54070Y38109
X54930Y34091
X57430Y34091
X58070Y38109
X59930Y34091
X60570Y38109
X63070Y38109
X66430Y34091
X68930Y34091
X69570Y38109
X72070Y38109
X73430Y34091
X75930Y34091
X76570Y38109
X78430Y34091
X79070Y38109
X81570Y38109
X82930Y34091
X85430Y34091
X86070Y38109
X87930Y34091
X88430Y72191
X88570Y38109
X90930Y72191
X91070Y38109
X91570Y76209
X94070Y76209
T3
X4750Y87535
X4750Y84995
X4750Y82455
X4750Y79915
T4
X4240Y53920
X4240Y51380
X4240Y48840
X4240Y46300
X4240Y43760
X4240Y41220
X4240Y38680
X4240Y36140
X4240Y33600
X4240Y22320
X4240Y19780
X4240Y17240
X4240Y14700
X4240Y12160
X4240Y9620
X4240Y7080
X4240Y4540
X4240Y2000
X98730Y95440
X98730Y92900
X98730Y90360
X98730Y87820
X98730Y85280
X98730Y82740
X98730Y80200
X98730Y77660
X98730Y75120
T5
X6500Y29050
X6500Y26550
X6500Y24050
X21000Y29050
X21000Y24050
T6
X10490Y86240
X10490Y67190
X10490Y48140
X10490Y29090
X10490Y10040
X16840Y88780
X16840Y69730
X16840Y50680
X16840Y31630
X16840Y12580
X29540Y86240
X29540Y67190
X29540Y48140
X29540Y29090
X29540Y10040
X35890Y88780
X35890Y69730
X35890Y50680
X35890Y31630
X39065Y10040
X48590Y86240
X48590Y67190
X48590Y48140
X48590Y29090
X48590Y10040
X54940Y88780
X54940Y69730
X54940Y50680
X54940Y31630
X67640Y86240
X67640Y67190
X67640Y48140
X67640Y29090
X67640Y10040
X73990Y88780
X73990Y69730
X73990Y50680
X73990Y31630
X73990Y12580
X86690Y86240
X86690Y67190
X86690Y57665
X86690Y48140
X86690Y29090
X86690Y19565
X86690Y10040
X93040Y88780
X93040Y69730
X93040Y60205
X93040Y50680
X93040Y31630
X93040Y22105
X93040Y12580
T9
X9220Y83700
X9220Y64650
X9220Y45600
X9220Y26550
X9220Y7500
X19380Y83700
X19380Y64650
X19380Y45600
X19380Y26550
X19380Y7500
X28270Y83700
X28270Y64650
X28270Y45600
X28270Y26550
X28270Y7500
X37795Y7500
X38430Y83700
X38430Y64650
X38430Y45600
X38430Y26550
X38430Y7500
X47320Y83700
X47320Y64650
X47320Y45600
X47320Y26550
X47320Y7500
X47955Y7500
X57480Y83700
X57480Y64650
X57480Y45600
X57480Y26550
X57480Y7500
X66370Y83700
X66370Y64650
X66370Y45600
X66370Y26550
X66370Y7500
X76530Y83700
X76530Y64650
X76530Y45600
X76530Y26550
X76530Y7500
X85420Y83700
X85420Y64650
X85420Y55125
X85420Y45600
X85420Y26550
X85420Y17025
X85420Y7500
X95580Y83700
X95580Y64650
X95580Y55125
X95580Y45600
X95580Y26550
X95580Y17025
X95580Y7500
T10
X8800Y83700
X8800Y64650
X8800Y45600
X8800Y26550
X8800Y7500
X19800Y83700
X19800Y64650
X19800Y45600
X19800Y26550
X19800Y7500
X27850Y83700
X27850Y64650
X27850Y45600
X27850Y26550
X27850Y7500
X37375Y7500
X38850Y83700
X38850Y64650
X38850Y45600
X38850Y26550
X38850Y7500
X46900Y83700
X46900Y64650
X46900Y45600
X46900Y26550
X46900Y7500
X48375Y7500
X57900Y83700
X57900Y64650
X57900Y45600
X57900Y26550
X57900Y7500
X65950Y83700
X65950Y64650
X65950Y45600
X65950Y26550
X65950Y7500
X76950Y83700
X76950Y64650
X76950Y45600
X76950Y26550
X76950Y7500
X85000Y83700
X85000Y64650
X85000Y55125
X85000Y45600
X85000Y26550
X85000Y17025
X85000Y7500
X96000Y83700
X96000Y64650
X96000Y55125
X96000Y45600
X96000Y26550
X96000Y17025
X96000Y7500
T11
X30975Y500
X54775Y500
X97500Y67025
X97500Y43225
X97500Y28925
X97500Y5125
T12
X14300Y83700
X14300Y64650
X14300Y45600
X14300Y26550
X14300Y7500
X30975Y15740
X33350Y83700
X33350Y64650
X33350Y45600
X33350Y26550
X33350Y7500
X42875Y7500
X52400Y83700
X52400Y64650
X52400Y45600
X52400Y26550
X52400Y7500
X54775Y15740
X71450Y83700
X71450Y64650
X71450Y45600
X71450Y26550
X71450Y7500
X82260Y67025
X82260Y43225
X82260Y28925
X82260Y5125
X90500Y83700
X90500Y64650
X90500Y55125
X90500Y45600
X90500Y26550
X90500Y17025
X90500Y7500
T13
X23850Y74200
X23850Y55150
X23850Y17050
X42900Y74200
X42900Y55150
X42900Y17050
X61950Y74200
X61950Y55150
X61950Y17050
X81000Y74200
X81000Y55150
X81000Y17050
T1
G00X44915Y12580
M15
G01X45915Y12580
M16
G05
G00X54440Y12580
M15
G01X55440Y12580
M16
G05
T2
G00X35440Y12580
M15
G01X36340Y12580
M16
G05
T7
G00X13950Y20950
M15
G01X14050Y20950
M16
G05
T8
G00X14000Y32150
M15
G01X14000Y32150
M16
G05
T0
M30
