M48
; DRILL file {KiCad (5.1.9)-1} date 04/17/21 22:23:32
; FORMAT={3:3/ absolute / metric / suppress leading zeros}
; #@! TF.CreationDate,2021-04-17T22:23:32+09:00
; #@! TF.GenerationSoftware,Kicad,Pcbnew,(5.1.9)-1
FMAT,2
METRIC,TZ
T1C0.600
T2C0.900
T3C1.500
T4C1.700
T5C1.900
T6C3.050
T7C4.000
T8C4.100
%
G90
G05
T1
X2680Y34091
X5180Y34091
X5820Y38109
X8320Y38109
X9680Y34091
X12180Y34091
X12820Y38109
X14680Y34091
X15320Y38109
X17820Y38109
X18680Y34091
X21180Y34091
X21820Y38109
X24320Y38109
X25180Y34091
X27180Y34091
X28320Y38109
X29180Y34091
X30320Y38109
X32320Y38109
X33180Y34091
X35180Y34091
X36320Y38109
X37180Y34091
X38320Y38109
X39180Y34091
X40320Y38109
X41180Y34091
X42320Y38109
X44320Y38109
T2
X1270Y95440
X1270Y92900
X1270Y90360
X1270Y87820
X1270Y85280
X1270Y82740
X1270Y80200
X1270Y77660
X1270Y75120
T3
X5690Y86240
X5690Y67190
X5690Y48140
X5690Y29090
X5690Y10040
X12040Y88780
X12040Y69730
X12040Y50680
X12040Y31630
X12040Y12580
X24740Y86240
X24740Y67190
X24740Y48140
X24740Y29090
X24740Y10040
X31090Y88780
X31090Y69730
X31090Y50680
X31090Y31630
X31090Y12580
X43790Y86240
X43790Y10040
X50140Y88780
X50140Y12580
X50934Y57665
X55721Y29115
X57284Y60205
X62071Y31655
X62840Y86240
X69190Y88780
T4
X4420Y83700
X4420Y64650
X4420Y45600
X4420Y26550
X4420Y7500
X14580Y83700
X14580Y64650
X14580Y45600
X14580Y26550
X14580Y7500
X23470Y83700
X23470Y64650
X23470Y45600
X23470Y26550
X23470Y7500
X33630Y83700
X33630Y64650
X33630Y45600
X33630Y26550
X33630Y7500
X42520Y83700
X42520Y7500
X49664Y55125
X52680Y83700
X52680Y7500
X54451Y26575
X59824Y55125
X61570Y83700
X64611Y26575
X71730Y83700
T5
X4000Y83700
X4000Y64650
X4000Y45600
X4000Y26550
X4000Y7500
X15000Y83700
X15000Y64650
X15000Y45600
X15000Y26550
X15000Y7500
X23050Y83700
X23050Y64650
X23050Y45600
X23050Y26550
X23050Y7500
X34050Y83700
X34050Y64650
X34050Y45600
X34050Y26550
X34050Y7500
X42100Y83700
X42100Y7500
X49244Y55125
X53100Y83700
X53100Y7500
X54031Y26575
X60244Y55125
X61150Y83700
X65031Y26575
X72150Y83700
T6
X47631Y19575
X61744Y67025
X61744Y43225
X71431Y19575
T7
X9500Y83700
X9500Y64650
X9500Y45600
X9500Y26550
X9500Y7500
X28550Y83700
X28550Y64650
X28550Y45600
X28550Y26550
X28550Y7500
X46504Y67025
X46504Y43225
X47600Y83700
X47600Y7500
X47631Y34815
X54744Y55125
X59531Y26575
X66650Y83700
X71431Y34815
T8
X19050Y74200
X19050Y55150
X19050Y17050
X38100Y74200
X38100Y55150
X38100Y17050
X57150Y74200
X57150Y17050
X76200Y74200
X76200Y55150
X76200Y17050
T0
M30
