G04 #@! TF.GenerationSoftware,KiCad,Pcbnew,(5.1.9)-1*
G04 #@! TF.CreationDate,2021-04-17T22:20:15+09:00*
G04 #@! TF.ProjectId,______,f3e135fa-7f39-42e6-9b69-6361645f7063,rev?*
G04 #@! TF.SameCoordinates,Original*
G04 #@! TF.FileFunction,Legend,Bot*
G04 #@! TF.FilePolarity,Positive*
%FSLAX46Y46*%
G04 Gerber Fmt 4.6, Leading zero omitted, Abs format (unit mm)*
G04 Created by KiCad (PCBNEW (5.1.9)-1) date 2021-04-17 22:20:15*
%MOMM*%
%LPD*%
G01*
G04 APERTURE LIST*
%ADD10C,1.600000*%
%ADD11C,4.100000*%
%ADD12C,1.700000*%
%ADD13C,2.500000*%
%ADD14C,1.900000*%
%ADD15C,4.000000*%
%ADD16C,3.050000*%
G04 APERTURE END LIST*
%LPC*%
D10*
X32319937Y38109427D03*
X29180063Y34090573D03*
X36319937Y38109427D03*
X33180063Y34090573D03*
D11*
X76200000Y17050000D03*
X76200000Y55150000D03*
X76200000Y74200000D03*
X57150000Y74200000D03*
X38100000Y74200000D03*
X19050000Y74200000D03*
X38100000Y55150000D03*
X19050000Y55150000D03*
X57150000Y17050000D03*
X38100000Y17050000D03*
X19050000Y17050000D03*
D12*
X23470000Y26550000D03*
X33630000Y26550000D03*
D13*
X24740000Y29090000D03*
X31090000Y31630000D03*
D14*
X34050000Y26550000D03*
X23050000Y26550000D03*
D15*
X28550000Y26550000D03*
D12*
X4420000Y26550000D03*
X14580000Y26550000D03*
D13*
X5690000Y29090000D03*
X12040000Y31630000D03*
D14*
X15000000Y26550000D03*
X4000000Y26550000D03*
D15*
X9500000Y26550000D03*
D12*
X4420000Y64650000D03*
X14580000Y64650000D03*
G36*
G01*
X4666060Y67906971D02*
X4666060Y67906971D01*
G75*
G02*
X6267698Y68189383I942025J-659613D01*
G01*
X6431528Y68074667D01*
G75*
G02*
X6713940Y66473029I-659613J-942025D01*
G01*
X6713940Y66473029D01*
G75*
G02*
X5112302Y66190617I-942025J659613D01*
G01*
X4948472Y66305333D01*
G75*
G02*
X4666060Y67906971I659613J942025D01*
G01*
G37*
D13*
X12040000Y69730000D03*
D14*
X15000000Y64650000D03*
X4000000Y64650000D03*
D15*
X9500000Y64650000D03*
D12*
X4420000Y83700000D03*
X14580000Y83700000D03*
G36*
G01*
X4666060Y86956971D02*
X4666060Y86956971D01*
G75*
G02*
X6267698Y87239383I942025J-659613D01*
G01*
X6431528Y87124667D01*
G75*
G02*
X6713940Y85523029I-659613J-942025D01*
G01*
X6713940Y85523029D01*
G75*
G02*
X5112302Y85240617I-942025J659613D01*
G01*
X4948472Y85355333D01*
G75*
G02*
X4666060Y86956971I659613J942025D01*
G01*
G37*
D13*
X12040000Y88780000D03*
D14*
X15000000Y83700000D03*
X4000000Y83700000D03*
D15*
X9500000Y83700000D03*
D12*
X23470000Y83700000D03*
X33630000Y83700000D03*
D13*
X24740000Y86240000D03*
X31090000Y88780000D03*
D14*
X34050000Y83700000D03*
X23050000Y83700000D03*
D15*
X28550000Y83700000D03*
X28550000Y64650000D03*
D14*
X23050000Y64650000D03*
X34050000Y64650000D03*
D13*
X31090000Y69730000D03*
X24740000Y67190000D03*
D12*
X33630000Y64650000D03*
X23470000Y64650000D03*
X23470000Y45600000D03*
X33630000Y45600000D03*
D13*
X24740000Y48140000D03*
X31090000Y50680000D03*
D14*
X34050000Y45600000D03*
X23050000Y45600000D03*
D15*
X28550000Y45600000D03*
D12*
X23470000Y7500000D03*
X33630000Y7500000D03*
D13*
X24740000Y10040000D03*
X31090000Y12580000D03*
D14*
X34050000Y7500000D03*
X23050000Y7500000D03*
D15*
X28550000Y7500000D03*
X9500000Y7500000D03*
D14*
X4000000Y7500000D03*
X15000000Y7500000D03*
D13*
X12040000Y12580000D03*
X5690000Y10040000D03*
D12*
X14580000Y7500000D03*
X4420000Y7500000D03*
D14*
X1270000Y75120000D03*
X1270000Y77660000D03*
X1270000Y80200000D03*
X1270000Y82740000D03*
X1270000Y85280000D03*
X1270000Y87820000D03*
X1270000Y90360000D03*
X1270000Y92900000D03*
X1270000Y95440000D03*
D15*
X47600000Y83700000D03*
D14*
X42100000Y83700000D03*
X53100000Y83700000D03*
D13*
X50140000Y88780000D03*
X43790000Y86240000D03*
D12*
X52680000Y83700000D03*
X42520000Y83700000D03*
D15*
X66650000Y83700000D03*
D14*
X61150000Y83700000D03*
X72150000Y83700000D03*
D13*
X69190000Y88780000D03*
X62840000Y86240000D03*
D12*
X71730000Y83700000D03*
X61570000Y83700000D03*
X42520000Y7500000D03*
X52680000Y7500000D03*
D13*
X43790000Y10040000D03*
X50140000Y12580000D03*
D14*
X53100000Y7500000D03*
X42100000Y7500000D03*
D15*
X47600000Y7500000D03*
D10*
X17819937Y38109427D03*
X14680063Y34090573D03*
X15319937Y38109427D03*
X12180063Y34090573D03*
X12819937Y38109427D03*
X9680063Y34090573D03*
X8319937Y38109427D03*
X5180063Y34090573D03*
X5819937Y38109427D03*
X2680063Y34090573D03*
X27180063Y34090573D03*
X30319937Y38109427D03*
X28319937Y38109427D03*
X25180063Y34090573D03*
X21180063Y34090573D03*
X24319937Y38109427D03*
X21819937Y38109427D03*
X18680063Y34090573D03*
X35180063Y34090573D03*
X38319937Y38109427D03*
X37180063Y34090573D03*
X40319937Y38109427D03*
X42319937Y38109427D03*
X39180063Y34090573D03*
X44319937Y38109427D03*
X41180063Y34090573D03*
D13*
X50933750Y57665000D03*
D14*
X49243750Y55125000D03*
D13*
X57283750Y60205000D03*
D15*
X54743750Y55125000D03*
D14*
X60243750Y55125000D03*
D12*
X59823750Y55125000D03*
X49663750Y55125000D03*
D15*
X46503750Y43225000D03*
D16*
X61743750Y43225000D03*
X61743750Y67025000D03*
D15*
X46503750Y67025000D03*
D13*
X55721250Y29115000D03*
D14*
X54031250Y26575000D03*
D13*
X62071250Y31655000D03*
D15*
X59531250Y26575000D03*
D14*
X65031250Y26575000D03*
D12*
X64611250Y26575000D03*
X54451250Y26575000D03*
D15*
X47631250Y34815000D03*
D16*
X47631250Y19575000D03*
X71431250Y19575000D03*
D15*
X71431250Y34815000D03*
X9500000Y45600000D03*
D14*
X4000000Y45600000D03*
X15000000Y45600000D03*
D13*
X12040000Y50680000D03*
X5690000Y48140000D03*
D12*
X14580000Y45600000D03*
X4420000Y45600000D03*
M02*
