G04 #@! TF.GenerationSoftware,KiCad,Pcbnew,(5.1.9)-1*
G04 #@! TF.CreationDate,2021-04-17T22:20:15+09:00*
G04 #@! TF.ProjectId,______,f3e135fa-7f39-42e6-9b69-6361645f7063,rev?*
G04 #@! TF.SameCoordinates,Original*
G04 #@! TF.FileFunction,Copper,L2,Bot*
G04 #@! TF.FilePolarity,Positive*
%FSLAX46Y46*%
G04 Gerber Fmt 4.6, Leading zero omitted, Abs format (unit mm)*
G04 Created by KiCad (PCBNEW (5.1.9)-1) date 2021-04-17 22:20:15*
%MOMM*%
%LPD*%
G01*
G04 APERTURE LIST*
G04 #@! TA.AperFunction,ComponentPad*
%ADD10C,1.600000*%
G04 #@! TD*
G04 #@! TA.AperFunction,ComponentPad*
%ADD11C,2.500000*%
G04 #@! TD*
G04 #@! TA.AperFunction,ComponentPad*
%ADD12C,1.900000*%
G04 #@! TD*
G04 #@! TA.AperFunction,Conductor*
%ADD13C,0.200000*%
G04 #@! TD*
G04 #@! TA.AperFunction,Conductor*
%ADD14C,0.500000*%
G04 #@! TD*
G04 #@! TA.AperFunction,Conductor*
%ADD15C,0.254000*%
G04 #@! TD*
G04 #@! TA.AperFunction,Conductor*
%ADD16C,0.100000*%
G04 #@! TD*
G04 APERTURE END LIST*
D10*
X32319937Y38109427D03*
X29180063Y34090573D03*
X36319937Y38109427D03*
X33180063Y34090573D03*
D11*
X24740000Y29090000D03*
X31090000Y31630000D03*
X5690000Y29090000D03*
X12040000Y31630000D03*
G04 #@! TA.AperFunction,ComponentPad*
G36*
G01*
X4666060Y67906971D02*
X4666060Y67906971D01*
G75*
G02*
X6267698Y68189383I942025J-659613D01*
G01*
X6431528Y68074667D01*
G75*
G02*
X6713940Y66473029I-659613J-942025D01*
G01*
X6713940Y66473029D01*
G75*
G02*
X5112302Y66190617I-942025J659613D01*
G01*
X4948472Y66305333D01*
G75*
G02*
X4666060Y67906971I659613J942025D01*
G01*
G37*
G04 #@! TD.AperFunction*
X12040000Y69730000D03*
G04 #@! TA.AperFunction,ComponentPad*
G36*
G01*
X4666060Y86956971D02*
X4666060Y86956971D01*
G75*
G02*
X6267698Y87239383I942025J-659613D01*
G01*
X6431528Y87124667D01*
G75*
G02*
X6713940Y85523029I-659613J-942025D01*
G01*
X6713940Y85523029D01*
G75*
G02*
X5112302Y85240617I-942025J659613D01*
G01*
X4948472Y85355333D01*
G75*
G02*
X4666060Y86956971I659613J942025D01*
G01*
G37*
G04 #@! TD.AperFunction*
X12040000Y88780000D03*
X24740000Y86240000D03*
X31090000Y88780000D03*
X31090000Y69730000D03*
X24740000Y67190000D03*
X24740000Y48140000D03*
X31090000Y50680000D03*
X24740000Y10040000D03*
X31090000Y12580000D03*
X12040000Y12580000D03*
X5690000Y10040000D03*
D12*
X1270000Y75120000D03*
X1270000Y77660000D03*
X1270000Y80200000D03*
X1270000Y82740000D03*
X1270000Y85280000D03*
X1270000Y87820000D03*
X1270000Y90360000D03*
X1270000Y92900000D03*
X1270000Y95440000D03*
D11*
X50140000Y88780000D03*
X43790000Y86240000D03*
X69190000Y88780000D03*
X62840000Y86240000D03*
X43790000Y10040000D03*
X50140000Y12580000D03*
D10*
X17819937Y38109427D03*
X14680063Y34090573D03*
X15319937Y38109427D03*
X12180063Y34090573D03*
X12819937Y38109427D03*
X9680063Y34090573D03*
X8319937Y38109427D03*
X5180063Y34090573D03*
X5819937Y38109427D03*
X2680063Y34090573D03*
X27180063Y34090573D03*
X30319937Y38109427D03*
X28319937Y38109427D03*
X25180063Y34090573D03*
X21180063Y34090573D03*
X24319937Y38109427D03*
X21819937Y38109427D03*
X18680063Y34090573D03*
X35180063Y34090573D03*
X38319937Y38109427D03*
X37180063Y34090573D03*
X40319937Y38109427D03*
X42319937Y38109427D03*
X39180063Y34090573D03*
X44319937Y38109427D03*
X41180063Y34090573D03*
D11*
X50933750Y57665000D03*
X57283750Y60205000D03*
X55721250Y29115000D03*
X62071250Y31655000D03*
X12040000Y50680000D03*
X5690000Y48140000D03*
D13*
X5980063Y34090573D02*
X5180064Y34890572D01*
X3480063Y34090573D02*
X5980063Y34090573D01*
X9980063Y34090573D02*
X12480063Y34090573D01*
X14980063Y34090573D02*
X12480063Y34090573D01*
X5243936Y39309428D02*
X4619936Y38685428D01*
X8895938Y39309428D02*
X5243936Y39309428D01*
X9519938Y38685428D02*
X8895938Y39309428D01*
X4619936Y34650700D02*
X5180063Y34090573D01*
X9519938Y34250698D02*
X9519938Y38685428D01*
X9680063Y34090573D02*
X9519938Y34250698D01*
X4619936Y38685428D02*
X4619936Y37830064D01*
X4619936Y37830064D02*
X4619936Y34650700D01*
X1149969Y35620667D02*
X2680063Y34090573D01*
X1149969Y73001967D02*
X1149969Y35620667D01*
X2620001Y74471999D02*
X1149969Y73001967D01*
X2620001Y76309999D02*
X2620001Y74471999D01*
X1270000Y77660000D02*
X2620001Y76309999D01*
X18680063Y34090573D02*
X21180063Y34090573D01*
X24895938Y39309428D02*
X25519938Y38685428D01*
X20619936Y38685428D02*
X21243936Y39309428D01*
X20619936Y37533426D02*
X20619936Y38685428D01*
X21243936Y39309428D02*
X24895938Y39309428D01*
X21180063Y36973299D02*
X20619936Y37533426D01*
X21180063Y34090573D02*
X21180063Y36973299D01*
X25519938Y34630448D02*
X24980063Y34090573D01*
X25519938Y38685428D02*
X25519938Y34630448D01*
X24980063Y34090573D02*
X29980063Y34090573D01*
X1270000Y75120000D02*
X1270000Y74454000D01*
X1270000Y74454000D02*
X425010Y73609010D01*
X31071429Y34090573D02*
X29180063Y34090573D01*
X34397001Y30765001D02*
X31071429Y34090573D01*
X1270000Y75120000D02*
X649959Y74499959D01*
X45440001Y8569999D02*
X45440001Y20232753D01*
X649959Y74499959D02*
X649959Y34390601D01*
X45440001Y20232753D02*
X50432247Y25224999D01*
X57371251Y29907001D02*
X56513251Y30765001D01*
X56513251Y30765001D02*
X34397001Y30765001D01*
X2149989Y32890572D02*
X2149989Y7352009D01*
X649959Y34390601D02*
X2149989Y32890572D01*
X57371251Y27644999D02*
X57371251Y29907001D01*
X2149989Y7352009D02*
X4401999Y5099999D01*
X4401999Y5099999D02*
X41970001Y5099999D01*
X41970001Y5099999D02*
X45440001Y8569999D01*
X54951251Y25224999D02*
X57371251Y27644999D01*
X50432247Y25224999D02*
X54951251Y25224999D01*
X43679979Y9929979D02*
X43790000Y10040000D01*
X24850021Y9929979D02*
X43679979Y9929979D01*
X24740000Y10040000D02*
X24850021Y9929979D01*
X23591998Y10040000D02*
X24740000Y10040000D01*
X19701997Y6149999D02*
X23591998Y10040000D01*
X13329999Y6899999D02*
X14079999Y6149999D01*
X13329999Y7222003D02*
X13329999Y6899999D01*
X14079999Y6149999D02*
X19701997Y6149999D01*
X10512002Y10040000D02*
X13329999Y7222003D01*
X5690000Y10040000D02*
X10512002Y10040000D01*
X4897999Y30740001D02*
X2649999Y28492001D01*
X6482001Y30740001D02*
X4897999Y30740001D01*
X7340001Y29882001D02*
X6482001Y30740001D01*
X7340001Y27942003D02*
X7340001Y29882001D01*
X7099999Y27702001D02*
X7340001Y27942003D01*
X7099999Y15077999D02*
X7099999Y27702001D01*
X11247999Y10929999D02*
X7099999Y15077999D01*
X12832001Y10929999D02*
X11247999Y10929999D01*
X1270000Y80200000D02*
X3120011Y78349989D01*
X10119906Y38792580D02*
X10119906Y36912096D01*
X3120011Y78349989D02*
X3120011Y68388140D01*
X3120011Y68388140D02*
X1649979Y66918108D01*
X2649999Y13080001D02*
X5690000Y10040000D01*
X7085440Y39809438D02*
X9103048Y39809438D01*
X11622606Y35409396D02*
X15137242Y35409396D01*
X15137242Y35409396D02*
X16350001Y34196637D01*
X1649979Y66918108D02*
X1649979Y45244899D01*
X2649999Y28492001D02*
X2649999Y13080001D01*
X1649979Y45244899D02*
X7085440Y39809438D01*
X9103048Y39809438D02*
X10119906Y38792580D01*
X10119906Y36912096D02*
X11622606Y35409396D01*
X16350001Y34196637D02*
X16350001Y14447999D01*
X16350001Y14447999D02*
X12832001Y10929999D01*
D14*
X1270000Y95440000D02*
X2830000Y97000000D01*
X2830000Y97000000D02*
X6500000Y97000000D01*
D13*
X46538998Y29115000D02*
X55721250Y29115000D01*
X35649999Y18226001D02*
X46538998Y29115000D01*
X35649999Y14697997D02*
X35649999Y18226001D01*
X30297999Y10929999D02*
X31882001Y10929999D01*
X24740000Y16487998D02*
X30297999Y10929999D01*
X31882001Y10929999D02*
X35649999Y14697997D01*
X5690000Y17964000D02*
X5690000Y15569122D01*
X5690000Y29090000D02*
X5690000Y17964000D01*
X5690000Y15569122D02*
X12337122Y8922000D01*
X12337122Y8922000D02*
X19050000Y8922000D01*
X19050000Y8922000D02*
X23114000Y12986000D01*
X23114000Y12986000D02*
X23114000Y18878000D01*
X23114000Y18878000D02*
X24740000Y20504000D01*
X24740000Y20504000D02*
X24740000Y16487998D01*
X24740000Y29090000D02*
X24740000Y20504000D01*
X24740000Y29090000D02*
X21904634Y29090000D01*
X3620021Y80389979D02*
X1270000Y82740000D01*
X21904634Y29090000D02*
X17480062Y33514572D01*
X17480062Y33514572D02*
X17480062Y34875938D01*
X17480062Y34875938D02*
X16446594Y35909406D01*
X9310158Y40309448D02*
X7292550Y40309448D01*
X16446594Y35909406D02*
X11829716Y35909406D01*
X11829716Y35909406D02*
X10619916Y37119206D01*
X3620021Y68181030D02*
X3620021Y80389979D01*
X10619916Y37119206D02*
X10619916Y38999690D01*
X10619916Y38999690D02*
X9310158Y40309448D01*
X7292550Y40309448D02*
X2149989Y45452009D01*
X2149989Y45452009D02*
X2149989Y66710998D01*
X2149989Y66710998D02*
X3620021Y68181030D01*
X24740000Y40172486D02*
X26119916Y38792570D01*
X24740000Y48140000D02*
X24740000Y40172486D01*
X26119916Y37119206D02*
X27329716Y35909406D01*
X26119916Y38792570D02*
X26119916Y37119206D01*
X27329716Y35909406D02*
X28772306Y35909406D01*
X28772306Y35909406D02*
X29540594Y35909406D01*
X29540594Y35909406D02*
X31640000Y35909406D01*
X2649999Y83900001D02*
X1270000Y85280000D01*
X2649999Y83051999D02*
X2649999Y83900001D01*
X3351999Y82349999D02*
X2649999Y83051999D01*
X3351999Y82308001D02*
X3351999Y82349999D01*
X5189990Y69043879D02*
X5189990Y80470010D01*
X2649999Y66503888D02*
X5189990Y69043879D01*
X5189990Y80470010D02*
X3351999Y82308001D01*
X2649999Y51180001D02*
X2649999Y66503888D01*
X5690000Y48140000D02*
X2649999Y51180001D01*
X11119926Y39206800D02*
X5690000Y44636726D01*
X5690000Y44636726D02*
X5690000Y45346000D01*
X11119926Y37326316D02*
X11119926Y39206800D01*
X12036826Y36409416D02*
X11119926Y37326316D01*
X20019958Y37826326D02*
X18603048Y36409416D01*
X5690000Y45346000D02*
X5690000Y48140000D01*
X20019958Y38792570D02*
X20019958Y37826326D01*
X18603048Y36409416D02*
X12036826Y36409416D01*
X24740000Y43512612D02*
X20019958Y38792570D01*
X24740000Y48140000D02*
X24740000Y43512612D01*
X33310158Y35909406D02*
X29540594Y35909406D01*
X34519958Y41950596D02*
X34519958Y37119206D01*
X47893749Y55324387D02*
X34519958Y41950596D01*
X47893749Y55773001D02*
X47893749Y55324387D01*
X49785748Y57665000D02*
X47893749Y55773001D01*
X34519958Y37119206D02*
X33310158Y35909406D01*
X50933750Y57665000D02*
X49785748Y57665000D01*
X1769035Y87820000D02*
X4193109Y85395926D01*
X1270000Y87820000D02*
X1769035Y87820000D01*
X4193109Y85395926D02*
X5327233Y84601796D01*
X5690000Y84239029D02*
X5690000Y67190000D01*
X5327233Y84601796D02*
X5690000Y84239029D01*
X24740000Y67190000D02*
X24740000Y50582002D01*
X32119416Y36409416D02*
X32336826Y36409416D01*
X32119416Y36409416D02*
X33103048Y36409416D01*
X56169127Y87389991D02*
X61690009Y87389991D01*
X33103048Y36409416D02*
X34019948Y37326316D01*
X44290010Y84298008D02*
X47739992Y87747990D01*
X34019948Y37326316D02*
X34019948Y42157706D01*
X61690009Y87389991D02*
X62840000Y86240000D01*
X34019948Y42157706D02*
X44290010Y52427768D01*
X47739992Y87747990D02*
X47739992Y89529114D01*
X44290010Y52427768D02*
X44290010Y61259258D01*
X48903751Y65872999D02*
X48903751Y68177001D01*
X44290010Y72790742D02*
X44290010Y84298008D01*
X44290010Y61259258D02*
X48903751Y65872999D01*
X48903751Y68177001D02*
X44290010Y72790742D01*
X47739992Y89529114D02*
X49140889Y90930011D01*
X49140889Y90930011D02*
X52629107Y90930011D01*
X52629107Y90930011D02*
X56169127Y87389991D01*
X5690000Y50730000D02*
X5690000Y67190000D01*
X7620000Y48800000D02*
X5690000Y50730000D01*
X11619936Y39413910D02*
X7099999Y43933847D01*
X7099999Y46752001D02*
X7620000Y47272002D01*
X11619936Y37533426D02*
X11619936Y39413910D01*
X12243936Y36909426D02*
X11619936Y37533426D01*
X18395938Y36909426D02*
X12243936Y36909426D01*
X7620000Y47272002D02*
X7620000Y48800000D01*
X7099999Y43933847D02*
X7099999Y46752001D01*
X19519948Y38033436D02*
X18395938Y36909426D01*
X19519948Y45361950D02*
X19519948Y38033436D01*
X24740000Y50582002D02*
X19519948Y45361950D01*
X27536826Y36409416D02*
X33103048Y36409416D01*
X26149999Y39469607D02*
X26619926Y38999680D01*
X26619926Y37326316D02*
X27536826Y36409416D01*
X26149999Y46752001D02*
X26149999Y39469607D01*
X26390001Y46992003D02*
X26149999Y46752001D01*
X26390001Y48932001D02*
X26390001Y46992003D01*
X26619926Y38999680D02*
X26619926Y37326316D01*
X24740000Y50582002D02*
X26390001Y48932001D01*
X5390000Y86240000D02*
X1270000Y90360000D01*
X5690000Y86240000D02*
X5390000Y86240000D01*
X24740000Y86240000D02*
X24740000Y69632002D01*
X26390001Y67982001D02*
X24740000Y69632002D01*
X43790000Y52634878D02*
X33519938Y42364816D01*
X33519938Y42364816D02*
X33519938Y37533426D01*
X33519938Y37533426D02*
X32895938Y36909426D01*
X32895938Y36909426D02*
X27743936Y36909426D01*
X27743936Y36909426D02*
X27119936Y37533426D01*
X27119936Y40617934D02*
X30950001Y44447999D01*
X30950001Y46752001D02*
X26149999Y51552003D01*
X43790000Y86240000D02*
X43790000Y52634878D01*
X30950001Y44447999D02*
X30950001Y46752001D01*
X26149999Y51552003D02*
X26149999Y65802001D01*
X27119936Y37533426D02*
X27119936Y40617934D01*
X26149999Y65802001D02*
X26390001Y66042003D01*
X26390001Y66042003D02*
X26390001Y67982001D01*
X9880001Y90430001D02*
X12832001Y90430001D01*
X5690000Y86240000D02*
X9880001Y90430001D01*
X17022002Y86240000D02*
X24740000Y86240000D01*
X12832001Y90430001D02*
X17022002Y86240000D01*
X18119937Y38343427D02*
X18236937Y38226427D01*
X13750000Y65670002D02*
X13329999Y65250001D01*
X13750000Y70462002D02*
X13750000Y65670002D01*
X12040000Y72172002D02*
X13750000Y70462002D01*
X12040000Y88780000D02*
X12040000Y72172002D01*
X13329999Y56044001D02*
X13329999Y52891121D01*
X13329999Y65250001D02*
X13329999Y56044001D01*
X17819937Y48401183D02*
X17819937Y38109427D01*
X13329999Y52891121D02*
X17819937Y48401183D01*
X12040000Y53474000D02*
X13690001Y51823999D01*
X12040000Y69730000D02*
X12040000Y53474000D01*
X16350001Y39139491D02*
X15319937Y38109427D01*
X16350001Y47943999D02*
X16350001Y39139491D01*
X13690001Y50603999D02*
X16350001Y47943999D01*
X13690001Y51823999D02*
X13690001Y50603999D01*
X12040000Y50680000D02*
X13716000Y49004000D01*
X12819937Y45689939D02*
X12819937Y38109427D01*
X13716000Y46586002D02*
X12819937Y45689939D01*
X13716000Y49004000D02*
X13716000Y46586002D01*
X10364634Y31630000D02*
X12040000Y31630000D01*
X8319938Y33674696D02*
X10364634Y31630000D01*
X8319938Y37309428D02*
X8319938Y33674696D01*
X12040000Y27562002D02*
X12040000Y12580000D01*
X7819930Y31782072D02*
X12040000Y27562002D01*
X7819930Y36909434D02*
X7819930Y31782072D01*
X6619937Y38109427D02*
X7819930Y36909434D01*
X31090000Y72172002D02*
X31090000Y88780000D01*
X32740001Y68937999D02*
X32740001Y70522001D01*
X32740001Y70522001D02*
X31090000Y72172002D01*
X31590010Y67788008D02*
X32740001Y68937999D01*
X31590010Y53329112D02*
X31590010Y67788008D01*
X33240011Y48407991D02*
X33240011Y51679111D01*
X35400001Y46248001D02*
X33240011Y48407991D01*
X35400001Y44951999D02*
X35400001Y46248001D01*
X33240011Y51679111D02*
X31590010Y53329112D01*
X32319937Y41871935D02*
X34434001Y43985999D01*
X32319937Y38109427D02*
X32319937Y41871935D01*
X34434001Y43985999D02*
X35400001Y44951999D01*
X31090000Y53122002D02*
X32740001Y51472001D01*
X31090000Y69730000D02*
X31090000Y53122002D01*
X32740001Y49887999D02*
X31950021Y49098019D01*
X32740001Y51472001D02*
X32740001Y49887999D01*
X30619937Y42703695D02*
X30619937Y38109427D01*
X31950021Y44033779D02*
X30619937Y42703695D01*
X31950021Y49098019D02*
X31950021Y44033779D01*
X28119937Y40910815D02*
X28119937Y38109427D01*
X31450011Y44240889D02*
X28119937Y40910815D01*
X31450011Y50319989D02*
X31450011Y44240889D01*
X31090000Y50680000D02*
X31450011Y50319989D01*
X29829428Y32890572D02*
X31090000Y31630000D01*
X24604062Y32890572D02*
X29829428Y32890572D01*
X23519938Y33974696D02*
X24604062Y32890572D01*
X23519938Y37309428D02*
X23519938Y33974696D01*
X24319937Y38109427D02*
X23519938Y37309428D01*
X31090000Y26610000D02*
X31090000Y12580000D01*
X30110000Y28542002D02*
X31090000Y27562002D01*
X30110000Y30220000D02*
X30110000Y28542002D01*
X27939438Y32390562D02*
X30110000Y30220000D01*
X31090000Y27562002D02*
X31090000Y26610000D01*
X22619936Y34167578D02*
X24396952Y32390562D01*
X24396952Y32390562D02*
X27939438Y32390562D01*
X22619936Y37309428D02*
X22619936Y34167578D01*
X21819937Y38109427D02*
X22619936Y37309428D01*
X32680063Y34090573D02*
X40680063Y34090573D01*
X35119936Y36030446D02*
X33180063Y34090573D01*
X35119936Y41843454D02*
X35119936Y36030446D01*
X52583751Y58457001D02*
X52583751Y56194999D01*
X50000001Y61040751D02*
X52583751Y58457001D01*
X50000001Y86480000D02*
X50000001Y61040751D01*
X48489999Y87990002D02*
X50000001Y86480000D01*
X52421997Y90430001D02*
X49347999Y90430001D01*
X49613761Y53225009D02*
X46501491Y53225009D01*
X1270000Y92900000D02*
X3239989Y90930011D01*
X13039111Y90930011D02*
X13539121Y90430001D01*
X46501491Y53225009D02*
X35119936Y41843454D01*
X47933759Y90430001D02*
X48933779Y91430021D01*
X3239989Y90930011D02*
X13039111Y90930011D01*
X52836217Y91430021D02*
X56376237Y87890001D01*
X48933779Y91430021D02*
X52836217Y91430021D01*
X13539121Y90430001D02*
X47933759Y90430001D01*
X64490001Y84769999D02*
X62070001Y82349999D01*
X56376237Y87890001D02*
X63632001Y87890001D01*
X48489999Y89572001D02*
X48489999Y87990002D01*
X64490001Y87032001D02*
X64490001Y84769999D01*
X52583751Y56194999D02*
X49613761Y53225009D01*
X63632001Y87890001D02*
X64490001Y87032001D01*
X62070001Y82349999D02*
X60501999Y82349999D01*
X49347999Y90430001D02*
X48489999Y89572001D01*
X60501999Y82349999D02*
X52421997Y90430001D01*
X36319937Y42336335D02*
X36319937Y38109427D01*
X55895751Y52724999D02*
X46708601Y52724999D01*
X57143751Y53972999D02*
X55895751Y52724999D01*
X46708601Y52724999D02*
X36319937Y42336335D01*
X55895751Y57525001D02*
X57143751Y56277001D01*
X54222871Y57525001D02*
X55895751Y57525001D01*
X57143751Y56277001D02*
X57143751Y53972999D01*
X50500011Y61247861D02*
X54222871Y57525001D01*
X50500011Y88419989D02*
X50500011Y61247861D01*
X50140000Y88780000D02*
X50500011Y88419989D01*
X57643761Y56484111D02*
X55633749Y58494123D01*
X56102861Y52224989D02*
X57643761Y53765889D01*
X45560000Y50850000D02*
X46934989Y52224989D01*
X57643761Y53765889D02*
X57643761Y56484111D01*
X45540722Y50850000D02*
X45560000Y50850000D01*
X46934989Y52224989D02*
X56102861Y52224989D01*
X38319937Y43629215D02*
X45540722Y50850000D01*
X38319937Y38109427D02*
X38319937Y43629215D01*
X55633749Y65185747D02*
X55633749Y63016251D01*
X73500001Y83051999D02*
X55633749Y65185747D01*
X73500001Y84469999D02*
X73500001Y83051999D01*
X69190000Y88780000D02*
X73500001Y84469999D01*
X55633749Y58494123D02*
X55633749Y63016251D01*
X40319937Y44188577D02*
X40319937Y38109427D01*
X47856339Y51724979D02*
X40319937Y44188577D01*
X56309971Y51724979D02*
X47856339Y51724979D01*
X58143771Y53558779D02*
X56309971Y51724979D01*
X58143771Y56691221D02*
X58143771Y53558779D01*
X57283750Y57551242D02*
X58143771Y56691221D01*
X57283750Y60205000D02*
X57283750Y57551242D01*
X43519938Y39309428D02*
X42319937Y38109427D01*
X46688824Y39309428D02*
X43519938Y39309428D01*
X54233231Y31765021D02*
X46688824Y39309428D01*
X61961229Y31765021D02*
X54233231Y31765021D01*
X62071250Y31655000D02*
X61961229Y31765021D01*
X44319937Y34574311D02*
X44319937Y38109427D01*
X47629237Y31265011D02*
X44319937Y34574311D01*
X58393241Y31265011D02*
X47629237Y31265011D01*
X61931251Y27727001D02*
X58393241Y31265011D01*
X61931251Y25422999D02*
X61931251Y27727001D01*
X50140000Y19706628D02*
X54608371Y24174999D01*
X60683251Y24174999D02*
X61931251Y25422999D01*
X54608371Y24174999D02*
X60683251Y24174999D01*
X50140000Y12580000D02*
X50140000Y19706628D01*
D15*
X79223722Y97319260D02*
X79474992Y97243397D01*
X79706740Y97120174D01*
X79910144Y96954282D01*
X80077450Y96752045D01*
X80202288Y96521161D01*
X80279905Y96270421D01*
X80310501Y95979319D01*
X80310500Y31887D01*
X80281761Y-261219D01*
X80205899Y-512488D01*
X80082675Y-744239D01*
X79916781Y-947644D01*
X79714543Y-1114951D01*
X79483658Y-1239789D01*
X79232921Y-1317405D01*
X78941829Y-1348000D01*
X2031887Y-1348000D01*
X1738781Y-1319261D01*
X1487512Y-1243399D01*
X1255761Y-1120175D01*
X1052356Y-954281D01*
X885049Y-752043D01*
X760211Y-521158D01*
X682595Y-270421D01*
X652000Y20671D01*
X652000Y33360428D01*
X1422989Y32589438D01*
X1422990Y7387727D01*
X1419472Y7352009D01*
X1433509Y7209492D01*
X1475079Y7072453D01*
X1491081Y7042516D01*
X1542587Y6946156D01*
X1633436Y6835455D01*
X1661178Y6812688D01*
X3862678Y4611187D01*
X3885445Y4583445D01*
X3996146Y4492596D01*
X4122442Y4425089D01*
X4259481Y4383519D01*
X4401998Y4369482D01*
X4437706Y4372999D01*
X41934293Y4372999D01*
X41970001Y4369482D01*
X42112518Y4383519D01*
X42249558Y4425089D01*
X42375854Y4492596D01*
X42486555Y4583445D01*
X42509327Y4611193D01*
X45000607Y7102472D01*
X45073954Y6733732D01*
X45271983Y6255649D01*
X45559476Y5825385D01*
X45925385Y5459476D01*
X46355649Y5171983D01*
X46833732Y4973954D01*
X47341263Y4873000D01*
X47858737Y4873000D01*
X48366268Y4973954D01*
X48844351Y5171983D01*
X49274615Y5459476D01*
X49640524Y5825385D01*
X49928017Y6255649D01*
X50126046Y6733732D01*
X50227000Y7241263D01*
X50227000Y7645472D01*
X51203000Y7645472D01*
X51203000Y7354528D01*
X51259760Y7069175D01*
X51371099Y6800378D01*
X51532739Y6558467D01*
X51738467Y6352739D01*
X51980378Y6191099D01*
X52249175Y6079760D01*
X52534528Y6023000D01*
X52544895Y6023000D01*
X52640006Y5983604D01*
X52944679Y5923000D01*
X53255321Y5923000D01*
X53559994Y5983604D01*
X53846989Y6102481D01*
X54105279Y6275064D01*
X54324936Y6494721D01*
X54497519Y6753011D01*
X54616396Y7040006D01*
X54677000Y7344679D01*
X54677000Y7655321D01*
X54616396Y7959994D01*
X54497519Y8246989D01*
X54324936Y8505279D01*
X54105279Y8724936D01*
X53846989Y8897519D01*
X53559994Y9016396D01*
X53255321Y9077000D01*
X52944679Y9077000D01*
X52640006Y9016396D01*
X52544895Y8977000D01*
X52534528Y8977000D01*
X52249175Y8920240D01*
X51980378Y8808901D01*
X51738467Y8647261D01*
X51532739Y8441533D01*
X51371099Y8199622D01*
X51259760Y7930825D01*
X51203000Y7645472D01*
X50227000Y7645472D01*
X50227000Y7758737D01*
X50126046Y8266268D01*
X49928017Y8744351D01*
X49640524Y9174615D01*
X49274615Y9540524D01*
X48844351Y9828017D01*
X48366268Y10026046D01*
X47858737Y10127000D01*
X47341263Y10127000D01*
X46833732Y10026046D01*
X46355649Y9828017D01*
X46167001Y9701967D01*
X46167001Y17995861D01*
X46259430Y17903432D01*
X46611896Y17667922D01*
X47003535Y17505700D01*
X47419296Y17423000D01*
X47843204Y17423000D01*
X48258965Y17505700D01*
X48650604Y17667922D01*
X49003070Y17903432D01*
X49302818Y18203180D01*
X49413001Y18368080D01*
X49413000Y14310517D01*
X49250907Y14243376D01*
X48943482Y14037961D01*
X48682039Y13776518D01*
X48476624Y13469093D01*
X48335132Y13127501D01*
X48263000Y12764868D01*
X48263000Y12395132D01*
X48335132Y12032499D01*
X48476624Y11690907D01*
X48682039Y11383482D01*
X48943482Y11122039D01*
X49250907Y10916624D01*
X49592499Y10775132D01*
X49955132Y10703000D01*
X50324868Y10703000D01*
X50687501Y10775132D01*
X51029093Y10916624D01*
X51336518Y11122039D01*
X51597961Y11383482D01*
X51803376Y11690907D01*
X51944868Y12032499D01*
X52017000Y12395132D01*
X52017000Y12764868D01*
X51944868Y13127501D01*
X51803376Y13469093D01*
X51597961Y13776518D01*
X51336518Y14037961D01*
X51029093Y14243376D01*
X50867000Y14310517D01*
X50867000Y17313662D01*
X54473000Y17313662D01*
X54473000Y16786338D01*
X54575875Y16269148D01*
X54777673Y15781965D01*
X55070638Y15343512D01*
X55443512Y14970638D01*
X55881965Y14677673D01*
X56369148Y14475875D01*
X56886338Y14373000D01*
X57413662Y14373000D01*
X57930852Y14475875D01*
X58418035Y14677673D01*
X58856488Y14970638D01*
X59229362Y15343512D01*
X59522327Y15781965D01*
X59724125Y16269148D01*
X59827000Y16786338D01*
X59827000Y17313662D01*
X73523000Y17313662D01*
X73523000Y16786338D01*
X73625875Y16269148D01*
X73827673Y15781965D01*
X74120638Y15343512D01*
X74493512Y14970638D01*
X74931965Y14677673D01*
X75419148Y14475875D01*
X75936338Y14373000D01*
X76463662Y14373000D01*
X76980852Y14475875D01*
X77468035Y14677673D01*
X77906488Y14970638D01*
X78279362Y15343512D01*
X78572327Y15781965D01*
X78774125Y16269148D01*
X78877000Y16786338D01*
X78877000Y17313662D01*
X78774125Y17830852D01*
X78572327Y18318035D01*
X78279362Y18756488D01*
X77906488Y19129362D01*
X77468035Y19422327D01*
X76980852Y19624125D01*
X76463662Y19727000D01*
X75936338Y19727000D01*
X75419148Y19624125D01*
X74931965Y19422327D01*
X74493512Y19129362D01*
X74120638Y18756488D01*
X73827673Y18318035D01*
X73625875Y17830852D01*
X73523000Y17313662D01*
X59827000Y17313662D01*
X59724125Y17830852D01*
X59522327Y18318035D01*
X59229362Y18756488D01*
X58856488Y19129362D01*
X58418035Y19422327D01*
X57930852Y19624125D01*
X57413662Y19727000D01*
X56886338Y19727000D01*
X56369148Y19624125D01*
X55881965Y19422327D01*
X55443512Y19129362D01*
X55070638Y18756488D01*
X54777673Y18318035D01*
X54575875Y17830852D01*
X54473000Y17313662D01*
X50867000Y17313662D01*
X50867000Y19405496D01*
X51248458Y19786954D01*
X69279250Y19786954D01*
X69279250Y19363046D01*
X69361950Y18947285D01*
X69524172Y18555646D01*
X69759682Y18203180D01*
X70059430Y17903432D01*
X70411896Y17667922D01*
X70803535Y17505700D01*
X71219296Y17423000D01*
X71643204Y17423000D01*
X72058965Y17505700D01*
X72450604Y17667922D01*
X72803070Y17903432D01*
X73102818Y18203180D01*
X73338328Y18555646D01*
X73500550Y18947285D01*
X73583250Y19363046D01*
X73583250Y19786954D01*
X73500550Y20202715D01*
X73338328Y20594354D01*
X73102818Y20946820D01*
X72803070Y21246568D01*
X72450604Y21482078D01*
X72058965Y21644300D01*
X71643204Y21727000D01*
X71219296Y21727000D01*
X70803535Y21644300D01*
X70411896Y21482078D01*
X70059430Y21246568D01*
X69759682Y20946820D01*
X69524172Y20594354D01*
X69361950Y20202715D01*
X69279250Y19786954D01*
X51248458Y19786954D01*
X54909505Y23447999D01*
X60647543Y23447999D01*
X60683251Y23444482D01*
X60825768Y23458519D01*
X60962808Y23500089D01*
X61089104Y23567596D01*
X61199805Y23658445D01*
X61222577Y23686193D01*
X62420067Y24883682D01*
X62447804Y24906445D01*
X62538654Y25017146D01*
X62606161Y25143442D01*
X62609594Y25154760D01*
X62647731Y25280481D01*
X62661769Y25422999D01*
X62658251Y25458715D01*
X62658251Y26720472D01*
X63134250Y26720472D01*
X63134250Y26429528D01*
X63191010Y26144175D01*
X63302349Y25875378D01*
X63463989Y25633467D01*
X63669717Y25427739D01*
X63911628Y25266099D01*
X64180425Y25154760D01*
X64465778Y25098000D01*
X64476145Y25098000D01*
X64571256Y25058604D01*
X64875929Y24998000D01*
X65186571Y24998000D01*
X65491244Y25058604D01*
X65778239Y25177481D01*
X66036529Y25350064D01*
X66256186Y25569721D01*
X66428769Y25828011D01*
X66547646Y26115006D01*
X66608250Y26419679D01*
X66608250Y26730321D01*
X66547646Y27034994D01*
X66428769Y27321989D01*
X66256186Y27580279D01*
X66036529Y27799936D01*
X65778239Y27972519D01*
X65491244Y28091396D01*
X65186571Y28152000D01*
X64875929Y28152000D01*
X64571256Y28091396D01*
X64476145Y28052000D01*
X64465778Y28052000D01*
X64180425Y27995240D01*
X63911628Y27883901D01*
X63669717Y27722261D01*
X63463989Y27516533D01*
X63302349Y27274622D01*
X63191010Y27005825D01*
X63134250Y26720472D01*
X62658251Y26720472D01*
X62658251Y27691293D01*
X62661768Y27727001D01*
X62647731Y27869519D01*
X62606161Y28006558D01*
X62582485Y28050852D01*
X62538654Y28132854D01*
X62447805Y28243555D01*
X62420068Y28266318D01*
X59648363Y31038021D01*
X60295161Y31038021D01*
X60407874Y30765907D01*
X60613289Y30458482D01*
X60874732Y30197039D01*
X61182157Y29991624D01*
X61523749Y29850132D01*
X61886382Y29778000D01*
X62256118Y29778000D01*
X62618751Y29850132D01*
X62960343Y29991624D01*
X63267768Y30197039D01*
X63529211Y30458482D01*
X63734626Y30765907D01*
X63876118Y31107499D01*
X63948250Y31470132D01*
X63948250Y31839868D01*
X63876118Y32202501D01*
X63734626Y32544093D01*
X63529211Y32851518D01*
X63267768Y33112961D01*
X62960343Y33318376D01*
X62618751Y33459868D01*
X62256118Y33532000D01*
X61886382Y33532000D01*
X61523749Y33459868D01*
X61182157Y33318376D01*
X60874732Y33112961D01*
X60613289Y32851518D01*
X60407874Y32544093D01*
X60386305Y32492021D01*
X54534365Y32492021D01*
X51952649Y35073737D01*
X68804250Y35073737D01*
X68804250Y34556263D01*
X68905204Y34048732D01*
X69103233Y33570649D01*
X69390726Y33140385D01*
X69756635Y32774476D01*
X70186899Y32486983D01*
X70664982Y32288954D01*
X71172513Y32188000D01*
X71689987Y32188000D01*
X72197518Y32288954D01*
X72675601Y32486983D01*
X73105865Y32774476D01*
X73471774Y33140385D01*
X73759267Y33570649D01*
X73957296Y34048732D01*
X74058250Y34556263D01*
X74058250Y35073737D01*
X73957296Y35581268D01*
X73759267Y36059351D01*
X73471774Y36489615D01*
X73105865Y36855524D01*
X72675601Y37143017D01*
X72197518Y37341046D01*
X71689987Y37442000D01*
X71172513Y37442000D01*
X70664982Y37341046D01*
X70186899Y37143017D01*
X69756635Y36855524D01*
X69390726Y36489615D01*
X69103233Y36059351D01*
X68905204Y35581268D01*
X68804250Y35073737D01*
X51952649Y35073737D01*
X47228150Y39798234D01*
X47205378Y39825982D01*
X47094677Y39916831D01*
X46968381Y39984338D01*
X46831341Y40025908D01*
X46724532Y40036428D01*
X46688824Y40039945D01*
X46653116Y40036428D01*
X43555646Y40036428D01*
X43519938Y40039945D01*
X43377420Y40025908D01*
X43246387Y39986160D01*
X43240381Y39984338D01*
X43114085Y39916831D01*
X43003384Y39825982D01*
X42980621Y39798245D01*
X42675946Y39493570D01*
X42460484Y39536427D01*
X42179390Y39536427D01*
X41903696Y39481589D01*
X41643999Y39374018D01*
X41410277Y39217851D01*
X41319937Y39127511D01*
X41229597Y39217851D01*
X41046937Y39339900D01*
X41046937Y43483737D01*
X43876750Y43483737D01*
X43876750Y42966263D01*
X43977704Y42458732D01*
X44175733Y41980649D01*
X44463226Y41550385D01*
X44829135Y41184476D01*
X45259399Y40896983D01*
X45737482Y40698954D01*
X46245013Y40598000D01*
X46762487Y40598000D01*
X47270018Y40698954D01*
X47748101Y40896983D01*
X48178365Y41184476D01*
X48544274Y41550385D01*
X48831767Y41980649D01*
X49029796Y42458732D01*
X49130750Y42966263D01*
X49130750Y43436954D01*
X59591750Y43436954D01*
X59591750Y43013046D01*
X59674450Y42597285D01*
X59836672Y42205646D01*
X60072182Y41853180D01*
X60371930Y41553432D01*
X60724396Y41317922D01*
X61116035Y41155700D01*
X61531796Y41073000D01*
X61955704Y41073000D01*
X62371465Y41155700D01*
X62763104Y41317922D01*
X63115570Y41553432D01*
X63415318Y41853180D01*
X63650828Y42205646D01*
X63813050Y42597285D01*
X63895750Y43013046D01*
X63895750Y43436954D01*
X63813050Y43852715D01*
X63650828Y44244354D01*
X63415318Y44596820D01*
X63115570Y44896568D01*
X62763104Y45132078D01*
X62371465Y45294300D01*
X61955704Y45377000D01*
X61531796Y45377000D01*
X61116035Y45294300D01*
X60724396Y45132078D01*
X60371930Y44896568D01*
X60072182Y44596820D01*
X59836672Y44244354D01*
X59674450Y43852715D01*
X59591750Y43436954D01*
X49130750Y43436954D01*
X49130750Y43483737D01*
X49029796Y43991268D01*
X48831767Y44469351D01*
X48544274Y44899615D01*
X48178365Y45265524D01*
X47748101Y45553017D01*
X47270018Y45751046D01*
X46762487Y45852000D01*
X46245013Y45852000D01*
X45737482Y45751046D01*
X45259399Y45553017D01*
X44829135Y45265524D01*
X44463226Y44899615D01*
X44175733Y44469351D01*
X43977704Y43991268D01*
X43876750Y43483737D01*
X41046937Y43483737D01*
X41046937Y43887445D01*
X48157473Y50997979D01*
X56274263Y50997979D01*
X56309971Y50994462D01*
X56452488Y51008499D01*
X56589528Y51050069D01*
X56715824Y51117576D01*
X56826525Y51208425D01*
X56849296Y51236172D01*
X58632588Y53019462D01*
X58660325Y53042225D01*
X58751174Y53152926D01*
X58818681Y53279222D01*
X58834534Y53331483D01*
X58860251Y53416261D01*
X58874288Y53558779D01*
X58870771Y53594487D01*
X58870771Y53989185D01*
X58882217Y53977739D01*
X59124128Y53816099D01*
X59392925Y53704760D01*
X59678278Y53648000D01*
X59688645Y53648000D01*
X59783756Y53608604D01*
X60088429Y53548000D01*
X60399071Y53548000D01*
X60703744Y53608604D01*
X60990739Y53727481D01*
X61249029Y53900064D01*
X61468686Y54119721D01*
X61641269Y54378011D01*
X61760146Y54665006D01*
X61820750Y54969679D01*
X61820750Y55280321D01*
X61794227Y55413662D01*
X73523000Y55413662D01*
X73523000Y54886338D01*
X73625875Y54369148D01*
X73827673Y53881965D01*
X74120638Y53443512D01*
X74493512Y53070638D01*
X74931965Y52777673D01*
X75419148Y52575875D01*
X75936338Y52473000D01*
X76463662Y52473000D01*
X76980852Y52575875D01*
X77468035Y52777673D01*
X77906488Y53070638D01*
X78279362Y53443512D01*
X78572327Y53881965D01*
X78774125Y54369148D01*
X78877000Y54886338D01*
X78877000Y55413662D01*
X78774125Y55930852D01*
X78572327Y56418035D01*
X78279362Y56856488D01*
X77906488Y57229362D01*
X77468035Y57522327D01*
X76980852Y57724125D01*
X76463662Y57827000D01*
X75936338Y57827000D01*
X75419148Y57724125D01*
X74931965Y57522327D01*
X74493512Y57229362D01*
X74120638Y56856488D01*
X73827673Y56418035D01*
X73625875Y55930852D01*
X73523000Y55413662D01*
X61794227Y55413662D01*
X61760146Y55584994D01*
X61641269Y55871989D01*
X61468686Y56130279D01*
X61249029Y56349936D01*
X60990739Y56522519D01*
X60703744Y56641396D01*
X60399071Y56702000D01*
X60088429Y56702000D01*
X59783756Y56641396D01*
X59688645Y56602000D01*
X59678278Y56602000D01*
X59392925Y56545240D01*
X59124128Y56433901D01*
X58882217Y56272261D01*
X58870771Y56260815D01*
X58870771Y56655516D01*
X58874288Y56691222D01*
X58870771Y56726929D01*
X58860251Y56833738D01*
X58818681Y56970778D01*
X58751174Y57097074D01*
X58660324Y57207775D01*
X58632587Y57230538D01*
X58010750Y57852374D01*
X58010750Y58474483D01*
X58172843Y58541624D01*
X58480268Y58747039D01*
X58741711Y59008482D01*
X58947126Y59315907D01*
X59088618Y59657499D01*
X59160750Y60020132D01*
X59160750Y60389868D01*
X59088618Y60752501D01*
X58947126Y61094093D01*
X58741711Y61401518D01*
X58480268Y61662961D01*
X58172843Y61868376D01*
X57831251Y62009868D01*
X57468618Y62082000D01*
X57098882Y62082000D01*
X56736249Y62009868D01*
X56394657Y61868376D01*
X56360749Y61845719D01*
X56360749Y64884615D01*
X58713088Y67236954D01*
X59591750Y67236954D01*
X59591750Y66813046D01*
X59674450Y66397285D01*
X59836672Y66005646D01*
X60072182Y65653180D01*
X60371930Y65353432D01*
X60724396Y65117922D01*
X61116035Y64955700D01*
X61531796Y64873000D01*
X61955704Y64873000D01*
X62371465Y64955700D01*
X62763104Y65117922D01*
X63115570Y65353432D01*
X63415318Y65653180D01*
X63650828Y66005646D01*
X63813050Y66397285D01*
X63895750Y66813046D01*
X63895750Y67236954D01*
X63813050Y67652715D01*
X63650828Y68044354D01*
X63415318Y68396820D01*
X63115570Y68696568D01*
X62763104Y68932078D01*
X62371465Y69094300D01*
X61955704Y69177000D01*
X61531796Y69177000D01*
X61116035Y69094300D01*
X60724396Y68932078D01*
X60371930Y68696568D01*
X60072182Y68396820D01*
X59836672Y68044354D01*
X59674450Y67652715D01*
X59591750Y67236954D01*
X58713088Y67236954D01*
X65939796Y74463662D01*
X73523000Y74463662D01*
X73523000Y73936338D01*
X73625875Y73419148D01*
X73827673Y72931965D01*
X74120638Y72493512D01*
X74493512Y72120638D01*
X74931965Y71827673D01*
X75419148Y71625875D01*
X75936338Y71523000D01*
X76463662Y71523000D01*
X76980852Y71625875D01*
X77468035Y71827673D01*
X77906488Y72120638D01*
X78279362Y72493512D01*
X78572327Y72931965D01*
X78774125Y73419148D01*
X78877000Y73936338D01*
X78877000Y74463662D01*
X78774125Y74980852D01*
X78572327Y75468035D01*
X78279362Y75906488D01*
X77906488Y76279362D01*
X77468035Y76572327D01*
X76980852Y76774125D01*
X76463662Y76877000D01*
X75936338Y76877000D01*
X75419148Y76774125D01*
X74931965Y76572327D01*
X74493512Y76279362D01*
X74120638Y75906488D01*
X73827673Y75468035D01*
X73625875Y74980852D01*
X73523000Y74463662D01*
X65939796Y74463662D01*
X73988818Y82512682D01*
X74016555Y82535445D01*
X74107404Y82646146D01*
X74174911Y82772442D01*
X74195045Y82838817D01*
X74216481Y82909481D01*
X74230518Y83051999D01*
X74227001Y83087707D01*
X74227001Y84434291D01*
X74230518Y84469999D01*
X74216481Y84612517D01*
X74174911Y84749556D01*
X74122686Y84847261D01*
X74107404Y84875852D01*
X74067122Y84924936D01*
X74039317Y84958817D01*
X74039313Y84958821D01*
X74016554Y84986553D01*
X73988823Y85009311D01*
X70927727Y88070406D01*
X70994868Y88232499D01*
X71067000Y88595132D01*
X71067000Y88964868D01*
X70994868Y89327501D01*
X70853376Y89669093D01*
X70647961Y89976518D01*
X70386518Y90237961D01*
X70079093Y90443376D01*
X69737501Y90584868D01*
X69374868Y90657000D01*
X69005132Y90657000D01*
X68642499Y90584868D01*
X68300907Y90443376D01*
X67993482Y90237961D01*
X67732039Y89976518D01*
X67526624Y89669093D01*
X67385132Y89327501D01*
X67313000Y88964868D01*
X67313000Y88595132D01*
X67385132Y88232499D01*
X67526624Y87890907D01*
X67732039Y87583482D01*
X67993482Y87322039D01*
X68300907Y87116624D01*
X68642499Y86975132D01*
X69005132Y86903000D01*
X69374868Y86903000D01*
X69737501Y86975132D01*
X69899594Y87042273D01*
X71719587Y85222280D01*
X71690006Y85216396D01*
X71594895Y85177000D01*
X71584528Y85177000D01*
X71299175Y85120240D01*
X71030378Y85008901D01*
X70788467Y84847261D01*
X70582739Y84641533D01*
X70421099Y84399622D01*
X70309760Y84130825D01*
X70253000Y83845472D01*
X70253000Y83554528D01*
X70309760Y83269175D01*
X70421099Y83000378D01*
X70582739Y82758467D01*
X70788467Y82552739D01*
X71030378Y82391099D01*
X71299175Y82279760D01*
X71584528Y82223000D01*
X71594895Y82223000D01*
X71628817Y82208949D01*
X55144939Y65725069D01*
X55117195Y65702300D01*
X55026346Y65591599D01*
X54990988Y65525449D01*
X54958839Y65465303D01*
X54917269Y65328264D01*
X54903232Y65185747D01*
X54906749Y65150039D01*
X54906750Y63051959D01*
X54906749Y58529831D01*
X54903232Y58494123D01*
X54913291Y58392000D01*
X54917269Y58351607D01*
X54947484Y58252001D01*
X54524004Y58252001D01*
X51227011Y61548993D01*
X51227011Y74463662D01*
X54473000Y74463662D01*
X54473000Y73936338D01*
X54575875Y73419148D01*
X54777673Y72931965D01*
X55070638Y72493512D01*
X55443512Y72120638D01*
X55881965Y71827673D01*
X56369148Y71625875D01*
X56886338Y71523000D01*
X57413662Y71523000D01*
X57930852Y71625875D01*
X58418035Y71827673D01*
X58856488Y72120638D01*
X59229362Y72493512D01*
X59522327Y72931965D01*
X59724125Y73419148D01*
X59827000Y73936338D01*
X59827000Y74463662D01*
X59724125Y74980852D01*
X59522327Y75468035D01*
X59229362Y75906488D01*
X58856488Y76279362D01*
X58418035Y76572327D01*
X57930852Y76774125D01*
X57413662Y76877000D01*
X56886338Y76877000D01*
X56369148Y76774125D01*
X55881965Y76572327D01*
X55443512Y76279362D01*
X55070638Y75906488D01*
X54777673Y75468035D01*
X54575875Y74980852D01*
X54473000Y74463662D01*
X51227011Y74463662D01*
X51227011Y83433816D01*
X51259760Y83269175D01*
X51371099Y83000378D01*
X51532739Y82758467D01*
X51738467Y82552739D01*
X51980378Y82391099D01*
X52249175Y82279760D01*
X52534528Y82223000D01*
X52544895Y82223000D01*
X52640006Y82183604D01*
X52944679Y82123000D01*
X53255321Y82123000D01*
X53559994Y82183604D01*
X53846989Y82302481D01*
X54105279Y82475064D01*
X54324936Y82694721D01*
X54497519Y82953011D01*
X54616396Y83240006D01*
X54677000Y83544679D01*
X54677000Y83855321D01*
X54616396Y84159994D01*
X54497519Y84446989D01*
X54324936Y84705279D01*
X54105279Y84924936D01*
X53846989Y85097519D01*
X53559994Y85216396D01*
X53255321Y85277000D01*
X52944679Y85277000D01*
X52640006Y85216396D01*
X52544895Y85177000D01*
X52534528Y85177000D01*
X52249175Y85120240D01*
X51980378Y85008901D01*
X51738467Y84847261D01*
X51532739Y84641533D01*
X51371099Y84399622D01*
X51259760Y84130825D01*
X51227011Y83966184D01*
X51227011Y87248869D01*
X51336518Y87322039D01*
X51597961Y87583482D01*
X51803376Y87890907D01*
X51944868Y88232499D01*
X52017000Y88595132D01*
X52017000Y88964868D01*
X51944868Y89327501D01*
X51803376Y89669093D01*
X51780719Y89703001D01*
X52120865Y89703001D01*
X59962678Y81861187D01*
X59985445Y81833445D01*
X60096146Y81742596D01*
X60222442Y81675089D01*
X60359482Y81633519D01*
X60466291Y81622999D01*
X60466293Y81622999D01*
X60501998Y81619482D01*
X60537704Y81622999D01*
X62034293Y81622999D01*
X62070001Y81619482D01*
X62212518Y81633519D01*
X62212521Y81633520D01*
X62349558Y81675089D01*
X62475854Y81742596D01*
X62586555Y81833445D01*
X62609327Y81861193D01*
X64050607Y83302472D01*
X64123954Y82933732D01*
X64321983Y82455649D01*
X64609476Y82025385D01*
X64975385Y81659476D01*
X65405649Y81371983D01*
X65883732Y81173954D01*
X66391263Y81073000D01*
X66908737Y81073000D01*
X67416268Y81173954D01*
X67894351Y81371983D01*
X68324615Y81659476D01*
X68690524Y82025385D01*
X68978017Y82455649D01*
X69176046Y82933732D01*
X69277000Y83441263D01*
X69277000Y83958737D01*
X69176046Y84466268D01*
X68978017Y84944351D01*
X68690524Y85374615D01*
X68324615Y85740524D01*
X67894351Y86028017D01*
X67416268Y86226046D01*
X66908737Y86327000D01*
X66391263Y86327000D01*
X65883732Y86226046D01*
X65405649Y86028017D01*
X65217001Y85901967D01*
X65217001Y86996294D01*
X65220518Y87032002D01*
X65206481Y87174519D01*
X65194930Y87212597D01*
X65164911Y87311558D01*
X65097404Y87437854D01*
X65006554Y87548555D01*
X64978817Y87571318D01*
X64171326Y88378808D01*
X64148555Y88406555D01*
X64037854Y88497404D01*
X63911558Y88564911D01*
X63774518Y88606481D01*
X63667709Y88617001D01*
X63632001Y88620518D01*
X63596293Y88617001D01*
X56677370Y88617001D01*
X53375543Y91918827D01*
X53352771Y91946575D01*
X53242070Y92037424D01*
X53115774Y92104931D01*
X52978734Y92146501D01*
X52871925Y92157021D01*
X52836217Y92160538D01*
X52800509Y92157021D01*
X48969487Y92157021D01*
X48933779Y92160538D01*
X48791261Y92146501D01*
X48654222Y92104931D01*
X48527926Y92037424D01*
X48417225Y91946575D01*
X48394462Y91918838D01*
X47632627Y91157001D01*
X13840254Y91157001D01*
X13578436Y91418818D01*
X13555665Y91446565D01*
X13444964Y91537414D01*
X13318668Y91604921D01*
X13181628Y91646491D01*
X13074819Y91657011D01*
X13039111Y91660528D01*
X13003403Y91657011D01*
X3541122Y91657011D01*
X2778116Y92420016D01*
X2786396Y92440006D01*
X2847000Y92744679D01*
X2847000Y93055321D01*
X2786396Y93359994D01*
X2667519Y93646989D01*
X2494936Y93905279D01*
X2275279Y94124936D01*
X2145619Y94211572D01*
X2190147Y94340248D01*
X1270000Y95260395D01*
X1255858Y95246253D01*
X1076253Y95425858D01*
X1090395Y95440000D01*
X1449605Y95440000D01*
X2369752Y94519853D01*
X2629042Y94609579D01*
X2764935Y94890671D01*
X2843379Y95192873D01*
X2861359Y95504573D01*
X2818184Y95813791D01*
X2715513Y96108644D01*
X2629042Y96270421D01*
X2369752Y96360147D01*
X1449605Y95440000D01*
X1090395Y95440000D01*
X1076253Y95454143D01*
X1255858Y95633748D01*
X1270000Y95619605D01*
X2190147Y96539752D01*
X2100421Y96799042D01*
X1819329Y96934935D01*
X1517127Y97013379D01*
X1205427Y97031359D01*
X1135030Y97021530D01*
X1247955Y97114950D01*
X1478839Y97239788D01*
X1729579Y97317405D01*
X2020671Y97348000D01*
X78930613Y97348000D01*
X79223722Y97319260D01*
G04 #@! TA.AperFunction,Conductor*
D16*
G36*
X79223722Y97319260D02*
G01*
X79474992Y97243397D01*
X79706740Y97120174D01*
X79910144Y96954282D01*
X80077450Y96752045D01*
X80202288Y96521161D01*
X80279905Y96270421D01*
X80310501Y95979319D01*
X80310500Y31887D01*
X80281761Y-261219D01*
X80205899Y-512488D01*
X80082675Y-744239D01*
X79916781Y-947644D01*
X79714543Y-1114951D01*
X79483658Y-1239789D01*
X79232921Y-1317405D01*
X78941829Y-1348000D01*
X2031887Y-1348000D01*
X1738781Y-1319261D01*
X1487512Y-1243399D01*
X1255761Y-1120175D01*
X1052356Y-954281D01*
X885049Y-752043D01*
X760211Y-521158D01*
X682595Y-270421D01*
X652000Y20671D01*
X652000Y33360428D01*
X1422989Y32589438D01*
X1422990Y7387727D01*
X1419472Y7352009D01*
X1433509Y7209492D01*
X1475079Y7072453D01*
X1491081Y7042516D01*
X1542587Y6946156D01*
X1633436Y6835455D01*
X1661178Y6812688D01*
X3862678Y4611187D01*
X3885445Y4583445D01*
X3996146Y4492596D01*
X4122442Y4425089D01*
X4259481Y4383519D01*
X4401998Y4369482D01*
X4437706Y4372999D01*
X41934293Y4372999D01*
X41970001Y4369482D01*
X42112518Y4383519D01*
X42249558Y4425089D01*
X42375854Y4492596D01*
X42486555Y4583445D01*
X42509327Y4611193D01*
X45000607Y7102472D01*
X45073954Y6733732D01*
X45271983Y6255649D01*
X45559476Y5825385D01*
X45925385Y5459476D01*
X46355649Y5171983D01*
X46833732Y4973954D01*
X47341263Y4873000D01*
X47858737Y4873000D01*
X48366268Y4973954D01*
X48844351Y5171983D01*
X49274615Y5459476D01*
X49640524Y5825385D01*
X49928017Y6255649D01*
X50126046Y6733732D01*
X50227000Y7241263D01*
X50227000Y7645472D01*
X51203000Y7645472D01*
X51203000Y7354528D01*
X51259760Y7069175D01*
X51371099Y6800378D01*
X51532739Y6558467D01*
X51738467Y6352739D01*
X51980378Y6191099D01*
X52249175Y6079760D01*
X52534528Y6023000D01*
X52544895Y6023000D01*
X52640006Y5983604D01*
X52944679Y5923000D01*
X53255321Y5923000D01*
X53559994Y5983604D01*
X53846989Y6102481D01*
X54105279Y6275064D01*
X54324936Y6494721D01*
X54497519Y6753011D01*
X54616396Y7040006D01*
X54677000Y7344679D01*
X54677000Y7655321D01*
X54616396Y7959994D01*
X54497519Y8246989D01*
X54324936Y8505279D01*
X54105279Y8724936D01*
X53846989Y8897519D01*
X53559994Y9016396D01*
X53255321Y9077000D01*
X52944679Y9077000D01*
X52640006Y9016396D01*
X52544895Y8977000D01*
X52534528Y8977000D01*
X52249175Y8920240D01*
X51980378Y8808901D01*
X51738467Y8647261D01*
X51532739Y8441533D01*
X51371099Y8199622D01*
X51259760Y7930825D01*
X51203000Y7645472D01*
X50227000Y7645472D01*
X50227000Y7758737D01*
X50126046Y8266268D01*
X49928017Y8744351D01*
X49640524Y9174615D01*
X49274615Y9540524D01*
X48844351Y9828017D01*
X48366268Y10026046D01*
X47858737Y10127000D01*
X47341263Y10127000D01*
X46833732Y10026046D01*
X46355649Y9828017D01*
X46167001Y9701967D01*
X46167001Y17995861D01*
X46259430Y17903432D01*
X46611896Y17667922D01*
X47003535Y17505700D01*
X47419296Y17423000D01*
X47843204Y17423000D01*
X48258965Y17505700D01*
X48650604Y17667922D01*
X49003070Y17903432D01*
X49302818Y18203180D01*
X49413001Y18368080D01*
X49413000Y14310517D01*
X49250907Y14243376D01*
X48943482Y14037961D01*
X48682039Y13776518D01*
X48476624Y13469093D01*
X48335132Y13127501D01*
X48263000Y12764868D01*
X48263000Y12395132D01*
X48335132Y12032499D01*
X48476624Y11690907D01*
X48682039Y11383482D01*
X48943482Y11122039D01*
X49250907Y10916624D01*
X49592499Y10775132D01*
X49955132Y10703000D01*
X50324868Y10703000D01*
X50687501Y10775132D01*
X51029093Y10916624D01*
X51336518Y11122039D01*
X51597961Y11383482D01*
X51803376Y11690907D01*
X51944868Y12032499D01*
X52017000Y12395132D01*
X52017000Y12764868D01*
X51944868Y13127501D01*
X51803376Y13469093D01*
X51597961Y13776518D01*
X51336518Y14037961D01*
X51029093Y14243376D01*
X50867000Y14310517D01*
X50867000Y17313662D01*
X54473000Y17313662D01*
X54473000Y16786338D01*
X54575875Y16269148D01*
X54777673Y15781965D01*
X55070638Y15343512D01*
X55443512Y14970638D01*
X55881965Y14677673D01*
X56369148Y14475875D01*
X56886338Y14373000D01*
X57413662Y14373000D01*
X57930852Y14475875D01*
X58418035Y14677673D01*
X58856488Y14970638D01*
X59229362Y15343512D01*
X59522327Y15781965D01*
X59724125Y16269148D01*
X59827000Y16786338D01*
X59827000Y17313662D01*
X73523000Y17313662D01*
X73523000Y16786338D01*
X73625875Y16269148D01*
X73827673Y15781965D01*
X74120638Y15343512D01*
X74493512Y14970638D01*
X74931965Y14677673D01*
X75419148Y14475875D01*
X75936338Y14373000D01*
X76463662Y14373000D01*
X76980852Y14475875D01*
X77468035Y14677673D01*
X77906488Y14970638D01*
X78279362Y15343512D01*
X78572327Y15781965D01*
X78774125Y16269148D01*
X78877000Y16786338D01*
X78877000Y17313662D01*
X78774125Y17830852D01*
X78572327Y18318035D01*
X78279362Y18756488D01*
X77906488Y19129362D01*
X77468035Y19422327D01*
X76980852Y19624125D01*
X76463662Y19727000D01*
X75936338Y19727000D01*
X75419148Y19624125D01*
X74931965Y19422327D01*
X74493512Y19129362D01*
X74120638Y18756488D01*
X73827673Y18318035D01*
X73625875Y17830852D01*
X73523000Y17313662D01*
X59827000Y17313662D01*
X59724125Y17830852D01*
X59522327Y18318035D01*
X59229362Y18756488D01*
X58856488Y19129362D01*
X58418035Y19422327D01*
X57930852Y19624125D01*
X57413662Y19727000D01*
X56886338Y19727000D01*
X56369148Y19624125D01*
X55881965Y19422327D01*
X55443512Y19129362D01*
X55070638Y18756488D01*
X54777673Y18318035D01*
X54575875Y17830852D01*
X54473000Y17313662D01*
X50867000Y17313662D01*
X50867000Y19405496D01*
X51248458Y19786954D01*
X69279250Y19786954D01*
X69279250Y19363046D01*
X69361950Y18947285D01*
X69524172Y18555646D01*
X69759682Y18203180D01*
X70059430Y17903432D01*
X70411896Y17667922D01*
X70803535Y17505700D01*
X71219296Y17423000D01*
X71643204Y17423000D01*
X72058965Y17505700D01*
X72450604Y17667922D01*
X72803070Y17903432D01*
X73102818Y18203180D01*
X73338328Y18555646D01*
X73500550Y18947285D01*
X73583250Y19363046D01*
X73583250Y19786954D01*
X73500550Y20202715D01*
X73338328Y20594354D01*
X73102818Y20946820D01*
X72803070Y21246568D01*
X72450604Y21482078D01*
X72058965Y21644300D01*
X71643204Y21727000D01*
X71219296Y21727000D01*
X70803535Y21644300D01*
X70411896Y21482078D01*
X70059430Y21246568D01*
X69759682Y20946820D01*
X69524172Y20594354D01*
X69361950Y20202715D01*
X69279250Y19786954D01*
X51248458Y19786954D01*
X54909505Y23447999D01*
X60647543Y23447999D01*
X60683251Y23444482D01*
X60825768Y23458519D01*
X60962808Y23500089D01*
X61089104Y23567596D01*
X61199805Y23658445D01*
X61222577Y23686193D01*
X62420067Y24883682D01*
X62447804Y24906445D01*
X62538654Y25017146D01*
X62606161Y25143442D01*
X62609594Y25154760D01*
X62647731Y25280481D01*
X62661769Y25422999D01*
X62658251Y25458715D01*
X62658251Y26720472D01*
X63134250Y26720472D01*
X63134250Y26429528D01*
X63191010Y26144175D01*
X63302349Y25875378D01*
X63463989Y25633467D01*
X63669717Y25427739D01*
X63911628Y25266099D01*
X64180425Y25154760D01*
X64465778Y25098000D01*
X64476145Y25098000D01*
X64571256Y25058604D01*
X64875929Y24998000D01*
X65186571Y24998000D01*
X65491244Y25058604D01*
X65778239Y25177481D01*
X66036529Y25350064D01*
X66256186Y25569721D01*
X66428769Y25828011D01*
X66547646Y26115006D01*
X66608250Y26419679D01*
X66608250Y26730321D01*
X66547646Y27034994D01*
X66428769Y27321989D01*
X66256186Y27580279D01*
X66036529Y27799936D01*
X65778239Y27972519D01*
X65491244Y28091396D01*
X65186571Y28152000D01*
X64875929Y28152000D01*
X64571256Y28091396D01*
X64476145Y28052000D01*
X64465778Y28052000D01*
X64180425Y27995240D01*
X63911628Y27883901D01*
X63669717Y27722261D01*
X63463989Y27516533D01*
X63302349Y27274622D01*
X63191010Y27005825D01*
X63134250Y26720472D01*
X62658251Y26720472D01*
X62658251Y27691293D01*
X62661768Y27727001D01*
X62647731Y27869519D01*
X62606161Y28006558D01*
X62582485Y28050852D01*
X62538654Y28132854D01*
X62447805Y28243555D01*
X62420068Y28266318D01*
X59648363Y31038021D01*
X60295161Y31038021D01*
X60407874Y30765907D01*
X60613289Y30458482D01*
X60874732Y30197039D01*
X61182157Y29991624D01*
X61523749Y29850132D01*
X61886382Y29778000D01*
X62256118Y29778000D01*
X62618751Y29850132D01*
X62960343Y29991624D01*
X63267768Y30197039D01*
X63529211Y30458482D01*
X63734626Y30765907D01*
X63876118Y31107499D01*
X63948250Y31470132D01*
X63948250Y31839868D01*
X63876118Y32202501D01*
X63734626Y32544093D01*
X63529211Y32851518D01*
X63267768Y33112961D01*
X62960343Y33318376D01*
X62618751Y33459868D01*
X62256118Y33532000D01*
X61886382Y33532000D01*
X61523749Y33459868D01*
X61182157Y33318376D01*
X60874732Y33112961D01*
X60613289Y32851518D01*
X60407874Y32544093D01*
X60386305Y32492021D01*
X54534365Y32492021D01*
X51952649Y35073737D01*
X68804250Y35073737D01*
X68804250Y34556263D01*
X68905204Y34048732D01*
X69103233Y33570649D01*
X69390726Y33140385D01*
X69756635Y32774476D01*
X70186899Y32486983D01*
X70664982Y32288954D01*
X71172513Y32188000D01*
X71689987Y32188000D01*
X72197518Y32288954D01*
X72675601Y32486983D01*
X73105865Y32774476D01*
X73471774Y33140385D01*
X73759267Y33570649D01*
X73957296Y34048732D01*
X74058250Y34556263D01*
X74058250Y35073737D01*
X73957296Y35581268D01*
X73759267Y36059351D01*
X73471774Y36489615D01*
X73105865Y36855524D01*
X72675601Y37143017D01*
X72197518Y37341046D01*
X71689987Y37442000D01*
X71172513Y37442000D01*
X70664982Y37341046D01*
X70186899Y37143017D01*
X69756635Y36855524D01*
X69390726Y36489615D01*
X69103233Y36059351D01*
X68905204Y35581268D01*
X68804250Y35073737D01*
X51952649Y35073737D01*
X47228150Y39798234D01*
X47205378Y39825982D01*
X47094677Y39916831D01*
X46968381Y39984338D01*
X46831341Y40025908D01*
X46724532Y40036428D01*
X46688824Y40039945D01*
X46653116Y40036428D01*
X43555646Y40036428D01*
X43519938Y40039945D01*
X43377420Y40025908D01*
X43246387Y39986160D01*
X43240381Y39984338D01*
X43114085Y39916831D01*
X43003384Y39825982D01*
X42980621Y39798245D01*
X42675946Y39493570D01*
X42460484Y39536427D01*
X42179390Y39536427D01*
X41903696Y39481589D01*
X41643999Y39374018D01*
X41410277Y39217851D01*
X41319937Y39127511D01*
X41229597Y39217851D01*
X41046937Y39339900D01*
X41046937Y43483737D01*
X43876750Y43483737D01*
X43876750Y42966263D01*
X43977704Y42458732D01*
X44175733Y41980649D01*
X44463226Y41550385D01*
X44829135Y41184476D01*
X45259399Y40896983D01*
X45737482Y40698954D01*
X46245013Y40598000D01*
X46762487Y40598000D01*
X47270018Y40698954D01*
X47748101Y40896983D01*
X48178365Y41184476D01*
X48544274Y41550385D01*
X48831767Y41980649D01*
X49029796Y42458732D01*
X49130750Y42966263D01*
X49130750Y43436954D01*
X59591750Y43436954D01*
X59591750Y43013046D01*
X59674450Y42597285D01*
X59836672Y42205646D01*
X60072182Y41853180D01*
X60371930Y41553432D01*
X60724396Y41317922D01*
X61116035Y41155700D01*
X61531796Y41073000D01*
X61955704Y41073000D01*
X62371465Y41155700D01*
X62763104Y41317922D01*
X63115570Y41553432D01*
X63415318Y41853180D01*
X63650828Y42205646D01*
X63813050Y42597285D01*
X63895750Y43013046D01*
X63895750Y43436954D01*
X63813050Y43852715D01*
X63650828Y44244354D01*
X63415318Y44596820D01*
X63115570Y44896568D01*
X62763104Y45132078D01*
X62371465Y45294300D01*
X61955704Y45377000D01*
X61531796Y45377000D01*
X61116035Y45294300D01*
X60724396Y45132078D01*
X60371930Y44896568D01*
X60072182Y44596820D01*
X59836672Y44244354D01*
X59674450Y43852715D01*
X59591750Y43436954D01*
X49130750Y43436954D01*
X49130750Y43483737D01*
X49029796Y43991268D01*
X48831767Y44469351D01*
X48544274Y44899615D01*
X48178365Y45265524D01*
X47748101Y45553017D01*
X47270018Y45751046D01*
X46762487Y45852000D01*
X46245013Y45852000D01*
X45737482Y45751046D01*
X45259399Y45553017D01*
X44829135Y45265524D01*
X44463226Y44899615D01*
X44175733Y44469351D01*
X43977704Y43991268D01*
X43876750Y43483737D01*
X41046937Y43483737D01*
X41046937Y43887445D01*
X48157473Y50997979D01*
X56274263Y50997979D01*
X56309971Y50994462D01*
X56452488Y51008499D01*
X56589528Y51050069D01*
X56715824Y51117576D01*
X56826525Y51208425D01*
X56849296Y51236172D01*
X58632588Y53019462D01*
X58660325Y53042225D01*
X58751174Y53152926D01*
X58818681Y53279222D01*
X58834534Y53331483D01*
X58860251Y53416261D01*
X58874288Y53558779D01*
X58870771Y53594487D01*
X58870771Y53989185D01*
X58882217Y53977739D01*
X59124128Y53816099D01*
X59392925Y53704760D01*
X59678278Y53648000D01*
X59688645Y53648000D01*
X59783756Y53608604D01*
X60088429Y53548000D01*
X60399071Y53548000D01*
X60703744Y53608604D01*
X60990739Y53727481D01*
X61249029Y53900064D01*
X61468686Y54119721D01*
X61641269Y54378011D01*
X61760146Y54665006D01*
X61820750Y54969679D01*
X61820750Y55280321D01*
X61794227Y55413662D01*
X73523000Y55413662D01*
X73523000Y54886338D01*
X73625875Y54369148D01*
X73827673Y53881965D01*
X74120638Y53443512D01*
X74493512Y53070638D01*
X74931965Y52777673D01*
X75419148Y52575875D01*
X75936338Y52473000D01*
X76463662Y52473000D01*
X76980852Y52575875D01*
X77468035Y52777673D01*
X77906488Y53070638D01*
X78279362Y53443512D01*
X78572327Y53881965D01*
X78774125Y54369148D01*
X78877000Y54886338D01*
X78877000Y55413662D01*
X78774125Y55930852D01*
X78572327Y56418035D01*
X78279362Y56856488D01*
X77906488Y57229362D01*
X77468035Y57522327D01*
X76980852Y57724125D01*
X76463662Y57827000D01*
X75936338Y57827000D01*
X75419148Y57724125D01*
X74931965Y57522327D01*
X74493512Y57229362D01*
X74120638Y56856488D01*
X73827673Y56418035D01*
X73625875Y55930852D01*
X73523000Y55413662D01*
X61794227Y55413662D01*
X61760146Y55584994D01*
X61641269Y55871989D01*
X61468686Y56130279D01*
X61249029Y56349936D01*
X60990739Y56522519D01*
X60703744Y56641396D01*
X60399071Y56702000D01*
X60088429Y56702000D01*
X59783756Y56641396D01*
X59688645Y56602000D01*
X59678278Y56602000D01*
X59392925Y56545240D01*
X59124128Y56433901D01*
X58882217Y56272261D01*
X58870771Y56260815D01*
X58870771Y56655516D01*
X58874288Y56691222D01*
X58870771Y56726929D01*
X58860251Y56833738D01*
X58818681Y56970778D01*
X58751174Y57097074D01*
X58660324Y57207775D01*
X58632587Y57230538D01*
X58010750Y57852374D01*
X58010750Y58474483D01*
X58172843Y58541624D01*
X58480268Y58747039D01*
X58741711Y59008482D01*
X58947126Y59315907D01*
X59088618Y59657499D01*
X59160750Y60020132D01*
X59160750Y60389868D01*
X59088618Y60752501D01*
X58947126Y61094093D01*
X58741711Y61401518D01*
X58480268Y61662961D01*
X58172843Y61868376D01*
X57831251Y62009868D01*
X57468618Y62082000D01*
X57098882Y62082000D01*
X56736249Y62009868D01*
X56394657Y61868376D01*
X56360749Y61845719D01*
X56360749Y64884615D01*
X58713088Y67236954D01*
X59591750Y67236954D01*
X59591750Y66813046D01*
X59674450Y66397285D01*
X59836672Y66005646D01*
X60072182Y65653180D01*
X60371930Y65353432D01*
X60724396Y65117922D01*
X61116035Y64955700D01*
X61531796Y64873000D01*
X61955704Y64873000D01*
X62371465Y64955700D01*
X62763104Y65117922D01*
X63115570Y65353432D01*
X63415318Y65653180D01*
X63650828Y66005646D01*
X63813050Y66397285D01*
X63895750Y66813046D01*
X63895750Y67236954D01*
X63813050Y67652715D01*
X63650828Y68044354D01*
X63415318Y68396820D01*
X63115570Y68696568D01*
X62763104Y68932078D01*
X62371465Y69094300D01*
X61955704Y69177000D01*
X61531796Y69177000D01*
X61116035Y69094300D01*
X60724396Y68932078D01*
X60371930Y68696568D01*
X60072182Y68396820D01*
X59836672Y68044354D01*
X59674450Y67652715D01*
X59591750Y67236954D01*
X58713088Y67236954D01*
X65939796Y74463662D01*
X73523000Y74463662D01*
X73523000Y73936338D01*
X73625875Y73419148D01*
X73827673Y72931965D01*
X74120638Y72493512D01*
X74493512Y72120638D01*
X74931965Y71827673D01*
X75419148Y71625875D01*
X75936338Y71523000D01*
X76463662Y71523000D01*
X76980852Y71625875D01*
X77468035Y71827673D01*
X77906488Y72120638D01*
X78279362Y72493512D01*
X78572327Y72931965D01*
X78774125Y73419148D01*
X78877000Y73936338D01*
X78877000Y74463662D01*
X78774125Y74980852D01*
X78572327Y75468035D01*
X78279362Y75906488D01*
X77906488Y76279362D01*
X77468035Y76572327D01*
X76980852Y76774125D01*
X76463662Y76877000D01*
X75936338Y76877000D01*
X75419148Y76774125D01*
X74931965Y76572327D01*
X74493512Y76279362D01*
X74120638Y75906488D01*
X73827673Y75468035D01*
X73625875Y74980852D01*
X73523000Y74463662D01*
X65939796Y74463662D01*
X73988818Y82512682D01*
X74016555Y82535445D01*
X74107404Y82646146D01*
X74174911Y82772442D01*
X74195045Y82838817D01*
X74216481Y82909481D01*
X74230518Y83051999D01*
X74227001Y83087707D01*
X74227001Y84434291D01*
X74230518Y84469999D01*
X74216481Y84612517D01*
X74174911Y84749556D01*
X74122686Y84847261D01*
X74107404Y84875852D01*
X74067122Y84924936D01*
X74039317Y84958817D01*
X74039313Y84958821D01*
X74016554Y84986553D01*
X73988823Y85009311D01*
X70927727Y88070406D01*
X70994868Y88232499D01*
X71067000Y88595132D01*
X71067000Y88964868D01*
X70994868Y89327501D01*
X70853376Y89669093D01*
X70647961Y89976518D01*
X70386518Y90237961D01*
X70079093Y90443376D01*
X69737501Y90584868D01*
X69374868Y90657000D01*
X69005132Y90657000D01*
X68642499Y90584868D01*
X68300907Y90443376D01*
X67993482Y90237961D01*
X67732039Y89976518D01*
X67526624Y89669093D01*
X67385132Y89327501D01*
X67313000Y88964868D01*
X67313000Y88595132D01*
X67385132Y88232499D01*
X67526624Y87890907D01*
X67732039Y87583482D01*
X67993482Y87322039D01*
X68300907Y87116624D01*
X68642499Y86975132D01*
X69005132Y86903000D01*
X69374868Y86903000D01*
X69737501Y86975132D01*
X69899594Y87042273D01*
X71719587Y85222280D01*
X71690006Y85216396D01*
X71594895Y85177000D01*
X71584528Y85177000D01*
X71299175Y85120240D01*
X71030378Y85008901D01*
X70788467Y84847261D01*
X70582739Y84641533D01*
X70421099Y84399622D01*
X70309760Y84130825D01*
X70253000Y83845472D01*
X70253000Y83554528D01*
X70309760Y83269175D01*
X70421099Y83000378D01*
X70582739Y82758467D01*
X70788467Y82552739D01*
X71030378Y82391099D01*
X71299175Y82279760D01*
X71584528Y82223000D01*
X71594895Y82223000D01*
X71628817Y82208949D01*
X55144939Y65725069D01*
X55117195Y65702300D01*
X55026346Y65591599D01*
X54990988Y65525449D01*
X54958839Y65465303D01*
X54917269Y65328264D01*
X54903232Y65185747D01*
X54906749Y65150039D01*
X54906750Y63051959D01*
X54906749Y58529831D01*
X54903232Y58494123D01*
X54913291Y58392000D01*
X54917269Y58351607D01*
X54947484Y58252001D01*
X54524004Y58252001D01*
X51227011Y61548993D01*
X51227011Y74463662D01*
X54473000Y74463662D01*
X54473000Y73936338D01*
X54575875Y73419148D01*
X54777673Y72931965D01*
X55070638Y72493512D01*
X55443512Y72120638D01*
X55881965Y71827673D01*
X56369148Y71625875D01*
X56886338Y71523000D01*
X57413662Y71523000D01*
X57930852Y71625875D01*
X58418035Y71827673D01*
X58856488Y72120638D01*
X59229362Y72493512D01*
X59522327Y72931965D01*
X59724125Y73419148D01*
X59827000Y73936338D01*
X59827000Y74463662D01*
X59724125Y74980852D01*
X59522327Y75468035D01*
X59229362Y75906488D01*
X58856488Y76279362D01*
X58418035Y76572327D01*
X57930852Y76774125D01*
X57413662Y76877000D01*
X56886338Y76877000D01*
X56369148Y76774125D01*
X55881965Y76572327D01*
X55443512Y76279362D01*
X55070638Y75906488D01*
X54777673Y75468035D01*
X54575875Y74980852D01*
X54473000Y74463662D01*
X51227011Y74463662D01*
X51227011Y83433816D01*
X51259760Y83269175D01*
X51371099Y83000378D01*
X51532739Y82758467D01*
X51738467Y82552739D01*
X51980378Y82391099D01*
X52249175Y82279760D01*
X52534528Y82223000D01*
X52544895Y82223000D01*
X52640006Y82183604D01*
X52944679Y82123000D01*
X53255321Y82123000D01*
X53559994Y82183604D01*
X53846989Y82302481D01*
X54105279Y82475064D01*
X54324936Y82694721D01*
X54497519Y82953011D01*
X54616396Y83240006D01*
X54677000Y83544679D01*
X54677000Y83855321D01*
X54616396Y84159994D01*
X54497519Y84446989D01*
X54324936Y84705279D01*
X54105279Y84924936D01*
X53846989Y85097519D01*
X53559994Y85216396D01*
X53255321Y85277000D01*
X52944679Y85277000D01*
X52640006Y85216396D01*
X52544895Y85177000D01*
X52534528Y85177000D01*
X52249175Y85120240D01*
X51980378Y85008901D01*
X51738467Y84847261D01*
X51532739Y84641533D01*
X51371099Y84399622D01*
X51259760Y84130825D01*
X51227011Y83966184D01*
X51227011Y87248869D01*
X51336518Y87322039D01*
X51597961Y87583482D01*
X51803376Y87890907D01*
X51944868Y88232499D01*
X52017000Y88595132D01*
X52017000Y88964868D01*
X51944868Y89327501D01*
X51803376Y89669093D01*
X51780719Y89703001D01*
X52120865Y89703001D01*
X59962678Y81861187D01*
X59985445Y81833445D01*
X60096146Y81742596D01*
X60222442Y81675089D01*
X60359482Y81633519D01*
X60466291Y81622999D01*
X60466293Y81622999D01*
X60501998Y81619482D01*
X60537704Y81622999D01*
X62034293Y81622999D01*
X62070001Y81619482D01*
X62212518Y81633519D01*
X62212521Y81633520D01*
X62349558Y81675089D01*
X62475854Y81742596D01*
X62586555Y81833445D01*
X62609327Y81861193D01*
X64050607Y83302472D01*
X64123954Y82933732D01*
X64321983Y82455649D01*
X64609476Y82025385D01*
X64975385Y81659476D01*
X65405649Y81371983D01*
X65883732Y81173954D01*
X66391263Y81073000D01*
X66908737Y81073000D01*
X67416268Y81173954D01*
X67894351Y81371983D01*
X68324615Y81659476D01*
X68690524Y82025385D01*
X68978017Y82455649D01*
X69176046Y82933732D01*
X69277000Y83441263D01*
X69277000Y83958737D01*
X69176046Y84466268D01*
X68978017Y84944351D01*
X68690524Y85374615D01*
X68324615Y85740524D01*
X67894351Y86028017D01*
X67416268Y86226046D01*
X66908737Y86327000D01*
X66391263Y86327000D01*
X65883732Y86226046D01*
X65405649Y86028017D01*
X65217001Y85901967D01*
X65217001Y86996294D01*
X65220518Y87032002D01*
X65206481Y87174519D01*
X65194930Y87212597D01*
X65164911Y87311558D01*
X65097404Y87437854D01*
X65006554Y87548555D01*
X64978817Y87571318D01*
X64171326Y88378808D01*
X64148555Y88406555D01*
X64037854Y88497404D01*
X63911558Y88564911D01*
X63774518Y88606481D01*
X63667709Y88617001D01*
X63632001Y88620518D01*
X63596293Y88617001D01*
X56677370Y88617001D01*
X53375543Y91918827D01*
X53352771Y91946575D01*
X53242070Y92037424D01*
X53115774Y92104931D01*
X52978734Y92146501D01*
X52871925Y92157021D01*
X52836217Y92160538D01*
X52800509Y92157021D01*
X48969487Y92157021D01*
X48933779Y92160538D01*
X48791261Y92146501D01*
X48654222Y92104931D01*
X48527926Y92037424D01*
X48417225Y91946575D01*
X48394462Y91918838D01*
X47632627Y91157001D01*
X13840254Y91157001D01*
X13578436Y91418818D01*
X13555665Y91446565D01*
X13444964Y91537414D01*
X13318668Y91604921D01*
X13181628Y91646491D01*
X13074819Y91657011D01*
X13039111Y91660528D01*
X13003403Y91657011D01*
X3541122Y91657011D01*
X2778116Y92420016D01*
X2786396Y92440006D01*
X2847000Y92744679D01*
X2847000Y93055321D01*
X2786396Y93359994D01*
X2667519Y93646989D01*
X2494936Y93905279D01*
X2275279Y94124936D01*
X2145619Y94211572D01*
X2190147Y94340248D01*
X1270000Y95260395D01*
X1255858Y95246253D01*
X1076253Y95425858D01*
X1090395Y95440000D01*
X1449605Y95440000D01*
X2369752Y94519853D01*
X2629042Y94609579D01*
X2764935Y94890671D01*
X2843379Y95192873D01*
X2861359Y95504573D01*
X2818184Y95813791D01*
X2715513Y96108644D01*
X2629042Y96270421D01*
X2369752Y96360147D01*
X1449605Y95440000D01*
X1090395Y95440000D01*
X1076253Y95454143D01*
X1255858Y95633748D01*
X1270000Y95619605D01*
X2190147Y96539752D01*
X2100421Y96799042D01*
X1819329Y96934935D01*
X1517127Y97013379D01*
X1205427Y97031359D01*
X1135030Y97021530D01*
X1247955Y97114950D01*
X1478839Y97239788D01*
X1729579Y97317405D01*
X2020671Y97348000D01*
X78930613Y97348000D01*
X79223722Y97319260D01*
G37*
G04 #@! TD.AperFunction*
M02*
