G04 #@! TF.GenerationSoftware,KiCad,Pcbnew,(5.1.9)-1*
G04 #@! TF.CreationDate,2021-04-18T14:10:29+09:00*
G04 #@! TF.ProjectId,_____________,e6e135fa-7f28-4c8c-93d7-d7ecfcc82e6b,rev?*
G04 #@! TF.SameCoordinates,Original*
G04 #@! TF.FileFunction,Profile,NP*
%FSLAX46Y46*%
G04 Gerber Fmt 4.6, Leading zero omitted, Abs format (unit mm)*
G04 Created by KiCad (PCBNEW (5.1.9)-1) date 2021-04-18 14:10:29*
%MOMM*%
%LPD*%
G01*
G04 APERTURE LIST*
G04 #@! TA.AperFunction,Profile*
%ADD10C,0.100000*%
G04 #@! TD*
G04 APERTURE END LIST*
D10*
X0Y1000000D02*
G75*
G02*
X-1000000Y0I-1000000J0D01*
G01*
X-5500000Y38600000D02*
X-42268750Y38600000D01*
X-5500000Y38600000D02*
G75*
G02*
X-5500000Y37600000I0J-500000D01*
G01*
X-42268750Y37600000D02*
G75*
G02*
X-42268750Y38600000I0J500000D01*
G01*
X-5500000Y37600000D02*
X-42268750Y37600000D01*
X-1950000Y75725000D02*
G75*
G02*
X-2950000Y76725000I0J1000000D01*
G01*
X-1000000Y75725000D02*
G75*
G02*
X0Y74725000I0J-1000000D01*
G01*
X-3950000Y78675000D02*
G75*
G02*
X-2950000Y77675000I0J-1000000D01*
G01*
X-2950000Y77675000D02*
X-2950000Y76725000D01*
X-1000000Y75725000D02*
X-1950000Y75725000D01*
X-3950000Y78675000D02*
X-16575000Y78675000D01*
X-4950000Y92775000D02*
G75*
G03*
X-2950000Y94775000I0J2000000D01*
G01*
X-2950000Y98000000D02*
G75*
G03*
X-4950000Y100000000I-2000000J0D01*
G01*
X-52387500Y2000000D02*
G75*
G03*
X-50387500Y0I2000000J0D01*
G01*
X-21525000Y92775000D02*
X-21525000Y78675000D01*
X-2950000Y98000000D02*
X-2950000Y94775000D01*
X-26287500Y73725000D02*
X-26287500Y59625000D01*
X-2475000Y73725000D02*
X-2475000Y59625000D01*
X-28668750Y54675000D02*
X-28668750Y40575000D01*
X-2475000Y54675000D02*
X-2475000Y40575000D01*
X-28668750Y35625000D02*
X-28668750Y21525000D01*
X-2475000Y35625000D02*
X-2475000Y21525000D01*
X-23906250Y16575000D02*
X-23906250Y2475000D01*
X-21525000Y78675000D02*
X-35625000Y78675000D01*
X-26287500Y59625000D02*
X-40387500Y59625000D01*
X-2475000Y59625000D02*
X-16575000Y59625000D01*
X-28668750Y40575000D02*
X-42768750Y40575000D01*
X-2475000Y40575000D02*
X-16575000Y40575000D01*
X-28668750Y21525000D02*
X-42768750Y21525000D01*
X-2475000Y21525000D02*
X-16575000Y21525000D01*
X-23906250Y2475000D02*
X-38006250Y2475000D01*
X-21525000Y92775000D02*
X-35625000Y92775000D01*
X-4950000Y92775000D02*
X-16575000Y92775000D01*
X-26287500Y73725000D02*
X-40387500Y73725000D01*
X-2475000Y73725000D02*
X-16575000Y73725000D01*
X-28668750Y54675000D02*
X-42768750Y54675000D01*
X-2475000Y54675000D02*
X-16575000Y54675000D01*
X-28668750Y35625000D02*
X-42768750Y35625000D01*
X-2475000Y35625000D02*
X-16575000Y35625000D01*
X-23906250Y16575000D02*
X-38006250Y16575000D01*
X-35625000Y92775000D02*
X-35625000Y78675000D01*
X-16575000Y92775000D02*
X-16575000Y78675000D01*
X-40387500Y73725000D02*
X-40387500Y59625000D01*
X-16575000Y73725000D02*
X-16575000Y59625000D01*
X-42768750Y54675000D02*
X-42768750Y40575000D01*
X-16575000Y54675000D02*
X-16575000Y40575000D01*
X-42768750Y35625000D02*
X-42768750Y21525000D01*
X-16575000Y35625000D02*
X-16575000Y21525000D01*
X-38006250Y16575000D02*
X-38006250Y2475000D01*
X-2475000Y16575000D02*
X-2475000Y2475000D01*
X-2475000Y16575000D02*
X-16575000Y16575000D01*
X-2475000Y2475000D02*
X-16575000Y2475000D01*
X-16575000Y16575000D02*
X-16575000Y2475000D01*
X-52387500Y98000000D02*
X-52387500Y2000000D01*
X-50387500Y0D02*
X-1000000Y0D01*
X0Y1000000D02*
X0Y74725000D01*
X-4950000Y100000000D02*
X-50387500Y100000000D01*
X-50387500Y100000000D02*
G75*
G03*
X-52387500Y98000000I0J-2000000D01*
G01*
M02*
