G04 #@! TF.GenerationSoftware,KiCad,Pcbnew,(5.1.9)-1*
G04 #@! TF.CreationDate,2021-04-18T14:10:29+09:00*
G04 #@! TF.ProjectId,_____________,e6e135fa-7f28-4c8c-93d7-d7ecfcc82e6b,rev?*
G04 #@! TF.SameCoordinates,Original*
G04 #@! TF.FileFunction,Copper,L1,Top*
G04 #@! TF.FilePolarity,Positive*
%FSLAX46Y46*%
G04 Gerber Fmt 4.6, Leading zero omitted, Abs format (unit mm)*
G04 Created by KiCad (PCBNEW (5.1.9)-1) date 2021-04-18 14:10:29*
%MOMM*%
%LPD*%
G01*
G04 APERTURE LIST*
G04 #@! TA.AperFunction,ComponentPad*
%ADD10C,1.400000*%
G04 #@! TD*
G04 #@! TA.AperFunction,Conductor*
%ADD11C,0.254000*%
G04 #@! TD*
G04 #@! TA.AperFunction,Conductor*
%ADD12C,0.100000*%
G04 #@! TD*
G04 APERTURE END LIST*
D10*
X-1225000Y1225000D03*
X-1225000Y57150000D03*
D11*
X-4695218Y99286733D02*
X-4450145Y99212741D01*
X-4224110Y99092557D01*
X-4025719Y98930752D01*
X-3862540Y98733503D01*
X-3740780Y98508313D01*
X-3665076Y98263753D01*
X-3635000Y97977602D01*
X-3634999Y94808515D01*
X-3663267Y94520218D01*
X-3737259Y94275145D01*
X-3857446Y94049107D01*
X-4019246Y93850721D01*
X-4216497Y93687540D01*
X-4441690Y93565779D01*
X-4686247Y93490076D01*
X-4972398Y93460000D01*
X-16541353Y93460000D01*
X-16575000Y93463314D01*
X-16608647Y93460000D01*
X-16709283Y93450088D01*
X-16838406Y93410919D01*
X-16957407Y93347312D01*
X-17061711Y93261711D01*
X-17147312Y93157407D01*
X-17210919Y93038406D01*
X-17250088Y92909283D01*
X-17263314Y92775000D01*
X-17260000Y92741353D01*
X-17259999Y78708657D01*
X-17263314Y78675000D01*
X-17250088Y78540717D01*
X-17210919Y78411594D01*
X-17147312Y78292593D01*
X-17061711Y78188289D01*
X-16957407Y78102688D01*
X-16838406Y78039081D01*
X-16709283Y77999912D01*
X-16608647Y77990000D01*
X-16575000Y77986686D01*
X-16541353Y77990000D01*
X-3983505Y77990000D01*
X-3889453Y77980778D01*
X-3831214Y77963195D01*
X-3777499Y77934634D01*
X-3730354Y77896184D01*
X-3691576Y77849309D01*
X-3662642Y77795796D01*
X-3644651Y77737677D01*
X-3635000Y77645854D01*
X-3634999Y76691353D01*
X-3632113Y76662055D01*
X-3632156Y76655934D01*
X-3631223Y76646415D01*
X-3610822Y76452318D01*
X-3598339Y76391504D01*
X-3586705Y76330519D01*
X-3583941Y76321363D01*
X-3526229Y76134925D01*
X-3502182Y76077721D01*
X-3478913Y76020127D01*
X-3474423Y76011683D01*
X-3381598Y75840006D01*
X-3346878Y75788532D01*
X-3312883Y75736582D01*
X-3306839Y75729171D01*
X-3182435Y75578793D01*
X-3138362Y75535027D01*
X-3094943Y75490689D01*
X-3087574Y75484592D01*
X-2936332Y75361242D01*
X-2884603Y75326874D01*
X-2833392Y75291809D01*
X-2824984Y75287263D01*
X-2824980Y75287260D01*
X-2824976Y75287258D01*
X-2652657Y75195634D01*
X-2595261Y75171978D01*
X-2538193Y75147518D01*
X-2529056Y75144690D01*
X-2342220Y75088281D01*
X-2281310Y75076220D01*
X-2220591Y75063314D01*
X-2211079Y75062314D01*
X-2016845Y75043269D01*
X-2016837Y75043269D01*
X-1983647Y75040000D01*
X-1033505Y75040000D01*
X-939453Y75030778D01*
X-881214Y75013195D01*
X-827499Y74984634D01*
X-780354Y74946184D01*
X-741576Y74899309D01*
X-712642Y74845796D01*
X-694651Y74787677D01*
X-684999Y74695846D01*
X-684999Y58371173D01*
X-781242Y58415934D01*
X-1036740Y58478183D01*
X-1299473Y58489390D01*
X-1559344Y58449125D01*
X-1806366Y58358935D01*
X-1907203Y58305037D01*
X-1966664Y58071269D01*
X-1225000Y57329605D01*
X-1210858Y57343748D01*
X-1031253Y57164143D01*
X-1045395Y57150000D01*
X-1031253Y57135858D01*
X-1210858Y56956253D01*
X-1225000Y56970395D01*
X-1966664Y56228731D01*
X-1907203Y55994963D01*
X-1668758Y55884066D01*
X-1413260Y55821817D01*
X-1150527Y55810610D01*
X-890656Y55850875D01*
X-684999Y55925962D01*
X-685000Y2446173D01*
X-781242Y2490934D01*
X-1036740Y2553183D01*
X-1299473Y2564390D01*
X-1559344Y2524125D01*
X-1790147Y2439857D01*
X-1790000Y2441353D01*
X-1786686Y2475000D01*
X-1790000Y2508647D01*
X-1790000Y16541353D01*
X-1786686Y16575000D01*
X-1799912Y16709283D01*
X-1839081Y16838406D01*
X-1902688Y16957407D01*
X-1988289Y17061711D01*
X-2092593Y17147312D01*
X-2211594Y17210919D01*
X-2340717Y17250088D01*
X-2441353Y17260000D01*
X-2475000Y17263314D01*
X-2508647Y17260000D01*
X-16541353Y17260000D01*
X-16575000Y17263314D01*
X-16608647Y17260000D01*
X-16709283Y17250088D01*
X-16838406Y17210919D01*
X-16957407Y17147312D01*
X-17061711Y17061711D01*
X-17147312Y16957407D01*
X-17210919Y16838406D01*
X-17250088Y16709283D01*
X-17263314Y16575000D01*
X-17260000Y16541353D01*
X-17259999Y2508657D01*
X-17263314Y2475000D01*
X-17250088Y2340717D01*
X-17210919Y2211594D01*
X-17147312Y2092593D01*
X-17061711Y1988289D01*
X-16957407Y1902688D01*
X-16838406Y1839081D01*
X-16709283Y1799912D01*
X-16608647Y1790000D01*
X-16575000Y1786686D01*
X-16541353Y1790000D01*
X-2508647Y1790000D01*
X-2475000Y1786686D01*
X-2434219Y1790703D01*
X-2490934Y1668758D01*
X-2553183Y1413260D01*
X-2564390Y1150527D01*
X-2524125Y890656D01*
X-2449038Y685000D01*
X-50353995Y685000D01*
X-50642282Y713267D01*
X-50887355Y787259D01*
X-51113393Y907446D01*
X-51311779Y1069246D01*
X-51474960Y1266497D01*
X-51596721Y1491690D01*
X-51672424Y1736247D01*
X-51702500Y2022398D01*
X-51702500Y16575000D01*
X-38694564Y16575000D01*
X-38691250Y16541353D01*
X-38691249Y2508657D01*
X-38694564Y2475000D01*
X-38681338Y2340717D01*
X-38642169Y2211594D01*
X-38578562Y2092593D01*
X-38492961Y1988289D01*
X-38388657Y1902688D01*
X-38269656Y1839081D01*
X-38140533Y1799912D01*
X-38039897Y1790000D01*
X-38006250Y1786686D01*
X-37972603Y1790000D01*
X-23939897Y1790000D01*
X-23906250Y1786686D01*
X-23771967Y1799912D01*
X-23642844Y1839081D01*
X-23523843Y1902688D01*
X-23419539Y1988289D01*
X-23333938Y2092593D01*
X-23270331Y2211594D01*
X-23231162Y2340717D01*
X-23221250Y2441353D01*
X-23217936Y2475000D01*
X-23221250Y2508647D01*
X-23221250Y16541353D01*
X-23217936Y16575000D01*
X-23231162Y16709283D01*
X-23270331Y16838406D01*
X-23333938Y16957407D01*
X-23419539Y17061711D01*
X-23523843Y17147312D01*
X-23642844Y17210919D01*
X-23771967Y17250088D01*
X-23872603Y17260000D01*
X-23906250Y17263314D01*
X-23939897Y17260000D01*
X-37972603Y17260000D01*
X-38006250Y17263314D01*
X-38039897Y17260000D01*
X-38140533Y17250088D01*
X-38269656Y17210919D01*
X-38388657Y17147312D01*
X-38492961Y17061711D01*
X-38578562Y16957407D01*
X-38642169Y16838406D01*
X-38681338Y16709283D01*
X-38694564Y16575000D01*
X-51702500Y16575000D01*
X-51702500Y19220883D01*
X-39835000Y19220883D01*
X-39835000Y18879117D01*
X-39768325Y18543919D01*
X-39637537Y18228169D01*
X-39447663Y17944002D01*
X-39205998Y17702337D01*
X-38921831Y17512463D01*
X-38606081Y17381675D01*
X-38270883Y17315000D01*
X-37929117Y17315000D01*
X-37593919Y17381675D01*
X-37278169Y17512463D01*
X-36994002Y17702337D01*
X-36752337Y17944002D01*
X-36562463Y18228169D01*
X-36431675Y18543919D01*
X-36365000Y18879117D01*
X-36365000Y19220883D01*
X-20785000Y19220883D01*
X-20785000Y18879117D01*
X-20718325Y18543919D01*
X-20587537Y18228169D01*
X-20397663Y17944002D01*
X-20155998Y17702337D01*
X-19871831Y17512463D01*
X-19556081Y17381675D01*
X-19220883Y17315000D01*
X-18879117Y17315000D01*
X-18543919Y17381675D01*
X-18228169Y17512463D01*
X-17944002Y17702337D01*
X-17702337Y17944002D01*
X-17512463Y18228169D01*
X-17381675Y18543919D01*
X-17315000Y18879117D01*
X-17315000Y19220883D01*
X-17381675Y19556081D01*
X-17512463Y19871831D01*
X-17702337Y20155998D01*
X-17944002Y20397663D01*
X-18228169Y20587537D01*
X-18543919Y20718325D01*
X-18879117Y20785000D01*
X-19220883Y20785000D01*
X-19556081Y20718325D01*
X-19871831Y20587537D01*
X-20155998Y20397663D01*
X-20397663Y20155998D01*
X-20587537Y19871831D01*
X-20718325Y19556081D01*
X-20785000Y19220883D01*
X-36365000Y19220883D01*
X-36431675Y19556081D01*
X-36562463Y19871831D01*
X-36752337Y20155998D01*
X-36994002Y20397663D01*
X-37278169Y20587537D01*
X-37593919Y20718325D01*
X-37929117Y20785000D01*
X-38270883Y20785000D01*
X-38606081Y20718325D01*
X-38921831Y20587537D01*
X-39205998Y20397663D01*
X-39447663Y20155998D01*
X-39637537Y19871831D01*
X-39768325Y19556081D01*
X-39835000Y19220883D01*
X-51702500Y19220883D01*
X-51702500Y35625000D01*
X-43457064Y35625000D01*
X-43453750Y35591353D01*
X-43453749Y21558657D01*
X-43457064Y21525000D01*
X-43443838Y21390717D01*
X-43404669Y21261594D01*
X-43341062Y21142593D01*
X-43255461Y21038289D01*
X-43151157Y20952688D01*
X-43032156Y20889081D01*
X-42903033Y20849912D01*
X-42802397Y20840000D01*
X-42768750Y20836686D01*
X-42735103Y20840000D01*
X-28702397Y20840000D01*
X-28668750Y20836686D01*
X-28534467Y20849912D01*
X-28405344Y20889081D01*
X-28286343Y20952688D01*
X-28182039Y21038289D01*
X-28096438Y21142593D01*
X-28032831Y21261594D01*
X-27993662Y21390717D01*
X-27983750Y21491353D01*
X-27980436Y21525000D01*
X-27983750Y21558647D01*
X-27983750Y35591353D01*
X-27980436Y35625000D01*
X-17263314Y35625000D01*
X-17260000Y35591353D01*
X-17259999Y21558657D01*
X-17263314Y21525000D01*
X-17250088Y21390717D01*
X-17210919Y21261594D01*
X-17147312Y21142593D01*
X-17061711Y21038289D01*
X-16957407Y20952688D01*
X-16838406Y20889081D01*
X-16709283Y20849912D01*
X-16608647Y20840000D01*
X-16575000Y20836686D01*
X-16541353Y20840000D01*
X-2508647Y20840000D01*
X-2475000Y20836686D01*
X-2340717Y20849912D01*
X-2211594Y20889081D01*
X-2092593Y20952688D01*
X-1988289Y21038289D01*
X-1902688Y21142593D01*
X-1839081Y21261594D01*
X-1799912Y21390717D01*
X-1790000Y21491353D01*
X-1786686Y21525000D01*
X-1790000Y21558647D01*
X-1790000Y35591353D01*
X-1786686Y35625000D01*
X-1799912Y35759283D01*
X-1839081Y35888406D01*
X-1902688Y36007407D01*
X-1988289Y36111711D01*
X-2092593Y36197312D01*
X-2211594Y36260919D01*
X-2340717Y36300088D01*
X-2441353Y36310000D01*
X-2475000Y36313314D01*
X-2508647Y36310000D01*
X-16541353Y36310000D01*
X-16575000Y36313314D01*
X-16608647Y36310000D01*
X-16709283Y36300088D01*
X-16838406Y36260919D01*
X-16957407Y36197312D01*
X-17061711Y36111711D01*
X-17147312Y36007407D01*
X-17210919Y35888406D01*
X-17250088Y35759283D01*
X-17263314Y35625000D01*
X-27980436Y35625000D01*
X-27993662Y35759283D01*
X-28032831Y35888406D01*
X-28096438Y36007407D01*
X-28182039Y36111711D01*
X-28286343Y36197312D01*
X-28405344Y36260919D01*
X-28534467Y36300088D01*
X-28635103Y36310000D01*
X-28668750Y36313314D01*
X-28702397Y36310000D01*
X-42735103Y36310000D01*
X-42768750Y36313314D01*
X-42802397Y36310000D01*
X-42903033Y36300088D01*
X-43032156Y36260919D01*
X-43151157Y36197312D01*
X-43255461Y36111711D01*
X-43341062Y36007407D01*
X-43404669Y35888406D01*
X-43443838Y35759283D01*
X-43457064Y35625000D01*
X-51702500Y35625000D01*
X-51702500Y38158591D01*
X-43450919Y38158591D01*
X-43450485Y38096509D01*
X-43450919Y38034427D01*
X-43449986Y38024908D01*
X-43439786Y37927860D01*
X-43427295Y37867010D01*
X-43415668Y37806058D01*
X-43412905Y37796904D01*
X-43412903Y37796898D01*
X-43384048Y37703683D01*
X-43359996Y37646467D01*
X-43336730Y37588881D01*
X-43332240Y37580436D01*
X-43285827Y37494599D01*
X-43251112Y37443133D01*
X-43217114Y37391179D01*
X-43211070Y37383768D01*
X-43148868Y37308579D01*
X-43104820Y37264838D01*
X-43061381Y37220478D01*
X-43054011Y37214382D01*
X-43054006Y37214377D01*
X-43054000Y37214373D01*
X-42978390Y37152706D01*
X-42926709Y37118368D01*
X-42875444Y37083267D01*
X-42867031Y37078718D01*
X-42780870Y37032906D01*
X-42723454Y37009242D01*
X-42666411Y36984792D01*
X-42657275Y36981964D01*
X-42563857Y36953759D01*
X-42502937Y36941697D01*
X-42442220Y36928791D01*
X-42432708Y36927791D01*
X-42335591Y36918269D01*
X-42335587Y36918269D01*
X-42302397Y36915000D01*
X-5466353Y36915000D01*
X-5432665Y36918318D01*
X-5426178Y36918318D01*
X-5416666Y36919318D01*
X-5374539Y36924043D01*
X-5365717Y36924912D01*
X-5365086Y36925103D01*
X-5319691Y36930195D01*
X-5258995Y36943096D01*
X-5198058Y36955162D01*
X-5188921Y36957990D01*
X-5095906Y36987496D01*
X-5038805Y37011970D01*
X-4981442Y37035613D01*
X-4973029Y37040161D01*
X-4887516Y37087172D01*
X-4836301Y37122240D01*
X-4784573Y37156608D01*
X-4777211Y37162700D01*
X-4777207Y37162702D01*
X-4777204Y37162705D01*
X-4702452Y37225430D01*
X-4659015Y37269787D01*
X-4614963Y37313532D01*
X-4608918Y37320943D01*
X-4547772Y37396993D01*
X-4513764Y37448963D01*
X-4479059Y37500416D01*
X-4474568Y37508861D01*
X-4429358Y37595340D01*
X-4406106Y37652892D01*
X-4382043Y37710134D01*
X-4379279Y37719290D01*
X-4351727Y37812902D01*
X-4340092Y37873893D01*
X-4327609Y37934709D01*
X-4326675Y37944227D01*
X-4317831Y38041410D01*
X-4318265Y38103492D01*
X-4317831Y38165573D01*
X-4318764Y38175091D01*
X-4328964Y38272140D01*
X-4341453Y38332983D01*
X-4353082Y38393942D01*
X-4355846Y38403098D01*
X-4384702Y38496317D01*
X-4408768Y38553566D01*
X-4432021Y38611119D01*
X-4436511Y38619564D01*
X-4482923Y38705402D01*
X-4517650Y38756885D01*
X-4551636Y38808821D01*
X-4557680Y38816233D01*
X-4619882Y38891421D01*
X-4663949Y38935182D01*
X-4707370Y38979522D01*
X-4714739Y38985619D01*
X-4790360Y39047294D01*
X-4842041Y39081632D01*
X-4893306Y39116733D01*
X-4901719Y39121282D01*
X-4987880Y39167094D01*
X-5045296Y39190758D01*
X-5102339Y39215208D01*
X-5111475Y39218036D01*
X-5204893Y39246241D01*
X-5265805Y39258302D01*
X-5326529Y39271209D01*
X-5336041Y39272209D01*
X-5433159Y39281731D01*
X-5433163Y39281731D01*
X-5466353Y39285000D01*
X-42302397Y39285000D01*
X-42336085Y39281682D01*
X-42342572Y39281682D01*
X-42352084Y39280682D01*
X-42394211Y39275957D01*
X-42403033Y39275088D01*
X-42403664Y39274897D01*
X-42449059Y39269805D01*
X-42509762Y39256902D01*
X-42570692Y39244838D01*
X-42579829Y39242010D01*
X-42672844Y39212504D01*
X-42729933Y39188035D01*
X-42787308Y39164387D01*
X-42795722Y39159838D01*
X-42881234Y39112828D01*
X-42932476Y39077742D01*
X-42984177Y39043391D01*
X-42991539Y39037300D01*
X-42991543Y39037298D01*
X-42991546Y39037295D01*
X-43066298Y38974570D01*
X-43109719Y38930229D01*
X-43153787Y38886468D01*
X-43159832Y38879057D01*
X-43220978Y38803007D01*
X-43254976Y38751053D01*
X-43289691Y38699584D01*
X-43294182Y38691139D01*
X-43339392Y38604660D01*
X-43362637Y38547125D01*
X-43386707Y38489866D01*
X-43389471Y38480710D01*
X-43417023Y38387098D01*
X-43428656Y38326115D01*
X-43441141Y38265292D01*
X-43442075Y38255773D01*
X-43450919Y38158591D01*
X-51702500Y38158591D01*
X-51702500Y54675000D01*
X-43457064Y54675000D01*
X-43453750Y54641353D01*
X-43453749Y40608657D01*
X-43457064Y40575000D01*
X-43443838Y40440717D01*
X-43404669Y40311594D01*
X-43341062Y40192593D01*
X-43255461Y40088289D01*
X-43151157Y40002688D01*
X-43032156Y39939081D01*
X-42903033Y39899912D01*
X-42802397Y39890000D01*
X-42768750Y39886686D01*
X-42735103Y39890000D01*
X-28702397Y39890000D01*
X-28668750Y39886686D01*
X-28534467Y39899912D01*
X-28405344Y39939081D01*
X-28286343Y40002688D01*
X-28182039Y40088289D01*
X-28096438Y40192593D01*
X-28032831Y40311594D01*
X-27993662Y40440717D01*
X-27983750Y40541353D01*
X-27980436Y40575000D01*
X-27983750Y40608647D01*
X-27983750Y54641353D01*
X-27980436Y54675000D01*
X-17263314Y54675000D01*
X-17260000Y54641353D01*
X-17259999Y40608657D01*
X-17263314Y40575000D01*
X-17250088Y40440717D01*
X-17210919Y40311594D01*
X-17147312Y40192593D01*
X-17061711Y40088289D01*
X-16957407Y40002688D01*
X-16838406Y39939081D01*
X-16709283Y39899912D01*
X-16608647Y39890000D01*
X-16575000Y39886686D01*
X-16541353Y39890000D01*
X-2508647Y39890000D01*
X-2475000Y39886686D01*
X-2340717Y39899912D01*
X-2211594Y39939081D01*
X-2092593Y40002688D01*
X-1988289Y40088289D01*
X-1902688Y40192593D01*
X-1839081Y40311594D01*
X-1799912Y40440717D01*
X-1790000Y40541353D01*
X-1786686Y40575000D01*
X-1790000Y40608647D01*
X-1790000Y54641353D01*
X-1786686Y54675000D01*
X-1799912Y54809283D01*
X-1839081Y54938406D01*
X-1902688Y55057407D01*
X-1988289Y55161711D01*
X-2092593Y55247312D01*
X-2211594Y55310919D01*
X-2340717Y55350088D01*
X-2441353Y55360000D01*
X-2475000Y55363314D01*
X-2508647Y55360000D01*
X-16541353Y55360000D01*
X-16575000Y55363314D01*
X-16608647Y55360000D01*
X-16709283Y55350088D01*
X-16838406Y55310919D01*
X-16957407Y55247312D01*
X-17061711Y55161711D01*
X-17147312Y55057407D01*
X-17210919Y54938406D01*
X-17250088Y54809283D01*
X-17263314Y54675000D01*
X-27980436Y54675000D01*
X-27993662Y54809283D01*
X-28032831Y54938406D01*
X-28096438Y55057407D01*
X-28182039Y55161711D01*
X-28286343Y55247312D01*
X-28405344Y55310919D01*
X-28534467Y55350088D01*
X-28635103Y55360000D01*
X-28668750Y55363314D01*
X-28702397Y55360000D01*
X-42735103Y55360000D01*
X-42768750Y55363314D01*
X-42802397Y55360000D01*
X-42903033Y55350088D01*
X-43032156Y55310919D01*
X-43151157Y55247312D01*
X-43255461Y55161711D01*
X-43341062Y55057407D01*
X-43404669Y54938406D01*
X-43443838Y54809283D01*
X-43457064Y54675000D01*
X-51702500Y54675000D01*
X-51702500Y57320883D01*
X-39835000Y57320883D01*
X-39835000Y56979117D01*
X-39768325Y56643919D01*
X-39637537Y56328169D01*
X-39447663Y56044002D01*
X-39205998Y55802337D01*
X-38921831Y55612463D01*
X-38606081Y55481675D01*
X-38270883Y55415000D01*
X-37929117Y55415000D01*
X-37593919Y55481675D01*
X-37278169Y55612463D01*
X-36994002Y55802337D01*
X-36752337Y56044002D01*
X-36562463Y56328169D01*
X-36431675Y56643919D01*
X-36365000Y56979117D01*
X-36365000Y57320883D01*
X-20785000Y57320883D01*
X-20785000Y56979117D01*
X-20718325Y56643919D01*
X-20587537Y56328169D01*
X-20397663Y56044002D01*
X-20155998Y55802337D01*
X-19871831Y55612463D01*
X-19556081Y55481675D01*
X-19220883Y55415000D01*
X-18879117Y55415000D01*
X-18543919Y55481675D01*
X-18228169Y55612463D01*
X-17944002Y55802337D01*
X-17702337Y56044002D01*
X-17512463Y56328169D01*
X-17381675Y56643919D01*
X-17315000Y56979117D01*
X-17315000Y57075527D01*
X-2564390Y57075527D01*
X-2524125Y56815656D01*
X-2433935Y56568634D01*
X-2380037Y56467797D01*
X-2146269Y56408336D01*
X-1404605Y57150000D01*
X-2146269Y57891664D01*
X-2380037Y57832203D01*
X-2490934Y57593758D01*
X-2553183Y57338260D01*
X-2564390Y57075527D01*
X-17315000Y57075527D01*
X-17315000Y57320883D01*
X-17381675Y57656081D01*
X-17512463Y57971831D01*
X-17702337Y58255998D01*
X-17944002Y58497663D01*
X-18228169Y58687537D01*
X-18543919Y58818325D01*
X-18879117Y58885000D01*
X-19220883Y58885000D01*
X-19556081Y58818325D01*
X-19871831Y58687537D01*
X-20155998Y58497663D01*
X-20397663Y58255998D01*
X-20587537Y57971831D01*
X-20718325Y57656081D01*
X-20785000Y57320883D01*
X-36365000Y57320883D01*
X-36431675Y57656081D01*
X-36562463Y57971831D01*
X-36752337Y58255998D01*
X-36994002Y58497663D01*
X-37278169Y58687537D01*
X-37593919Y58818325D01*
X-37929117Y58885000D01*
X-38270883Y58885000D01*
X-38606081Y58818325D01*
X-38921831Y58687537D01*
X-39205998Y58497663D01*
X-39447663Y58255998D01*
X-39637537Y57971831D01*
X-39768325Y57656081D01*
X-39835000Y57320883D01*
X-51702500Y57320883D01*
X-51702500Y73725000D01*
X-41075814Y73725000D01*
X-41072500Y73691353D01*
X-41072499Y59658657D01*
X-41075814Y59625000D01*
X-41062588Y59490717D01*
X-41023419Y59361594D01*
X-40959812Y59242593D01*
X-40874211Y59138289D01*
X-40769907Y59052688D01*
X-40650906Y58989081D01*
X-40521783Y58949912D01*
X-40421147Y58940000D01*
X-40387500Y58936686D01*
X-40353853Y58940000D01*
X-26321147Y58940000D01*
X-26287500Y58936686D01*
X-26153217Y58949912D01*
X-26024094Y58989081D01*
X-25905093Y59052688D01*
X-25800789Y59138289D01*
X-25715188Y59242593D01*
X-25651581Y59361594D01*
X-25612412Y59490717D01*
X-25602500Y59591353D01*
X-25599186Y59625000D01*
X-25602500Y59658647D01*
X-25602500Y73691353D01*
X-25599186Y73725000D01*
X-17263314Y73725000D01*
X-17260000Y73691353D01*
X-17259999Y59658657D01*
X-17263314Y59625000D01*
X-17250088Y59490717D01*
X-17210919Y59361594D01*
X-17147312Y59242593D01*
X-17061711Y59138289D01*
X-16957407Y59052688D01*
X-16838406Y58989081D01*
X-16709283Y58949912D01*
X-16608647Y58940000D01*
X-16575000Y58936686D01*
X-16541353Y58940000D01*
X-2508647Y58940000D01*
X-2475000Y58936686D01*
X-2340717Y58949912D01*
X-2211594Y58989081D01*
X-2092593Y59052688D01*
X-1988289Y59138289D01*
X-1902688Y59242593D01*
X-1839081Y59361594D01*
X-1799912Y59490717D01*
X-1790000Y59591353D01*
X-1786686Y59625000D01*
X-1790000Y59658647D01*
X-1790000Y73691353D01*
X-1786686Y73725000D01*
X-1799912Y73859283D01*
X-1839081Y73988406D01*
X-1902688Y74107407D01*
X-1988289Y74211711D01*
X-2092593Y74297312D01*
X-2211594Y74360919D01*
X-2340717Y74400088D01*
X-2441353Y74410000D01*
X-2475000Y74413314D01*
X-2508647Y74410000D01*
X-16541353Y74410000D01*
X-16575000Y74413314D01*
X-16608647Y74410000D01*
X-16709283Y74400088D01*
X-16838406Y74360919D01*
X-16957407Y74297312D01*
X-17061711Y74211711D01*
X-17147312Y74107407D01*
X-17210919Y73988406D01*
X-17250088Y73859283D01*
X-17263314Y73725000D01*
X-25599186Y73725000D01*
X-25612412Y73859283D01*
X-25651581Y73988406D01*
X-25715188Y74107407D01*
X-25800789Y74211711D01*
X-25905093Y74297312D01*
X-26024094Y74360919D01*
X-26153217Y74400088D01*
X-26253853Y74410000D01*
X-26287500Y74413314D01*
X-26321147Y74410000D01*
X-40353853Y74410000D01*
X-40387500Y74413314D01*
X-40421147Y74410000D01*
X-40521783Y74400088D01*
X-40650906Y74360919D01*
X-40769907Y74297312D01*
X-40874211Y74211711D01*
X-40959812Y74107407D01*
X-41023419Y73988406D01*
X-41062588Y73859283D01*
X-41075814Y73725000D01*
X-51702500Y73725000D01*
X-51702500Y76370883D01*
X-39835000Y76370883D01*
X-39835000Y76029117D01*
X-39768325Y75693919D01*
X-39637537Y75378169D01*
X-39447663Y75094002D01*
X-39205998Y74852337D01*
X-38921831Y74662463D01*
X-38606081Y74531675D01*
X-38270883Y74465000D01*
X-37929117Y74465000D01*
X-37593919Y74531675D01*
X-37278169Y74662463D01*
X-36994002Y74852337D01*
X-36752337Y75094002D01*
X-36562463Y75378169D01*
X-36431675Y75693919D01*
X-36365000Y76029117D01*
X-36365000Y76370883D01*
X-20785000Y76370883D01*
X-20785000Y76029117D01*
X-20718325Y75693919D01*
X-20587537Y75378169D01*
X-20397663Y75094002D01*
X-20155998Y74852337D01*
X-19871831Y74662463D01*
X-19556081Y74531675D01*
X-19220883Y74465000D01*
X-18879117Y74465000D01*
X-18543919Y74531675D01*
X-18228169Y74662463D01*
X-17944002Y74852337D01*
X-17702337Y75094002D01*
X-17512463Y75378169D01*
X-17381675Y75693919D01*
X-17315000Y76029117D01*
X-17315000Y76370883D01*
X-17381675Y76706081D01*
X-17512463Y77021831D01*
X-17702337Y77305998D01*
X-17944002Y77547663D01*
X-18228169Y77737537D01*
X-18543919Y77868325D01*
X-18879117Y77935000D01*
X-19220883Y77935000D01*
X-19556081Y77868325D01*
X-19871831Y77737537D01*
X-20155998Y77547663D01*
X-20397663Y77305998D01*
X-20587537Y77021831D01*
X-20718325Y76706081D01*
X-20785000Y76370883D01*
X-36365000Y76370883D01*
X-36431675Y76706081D01*
X-36562463Y77021831D01*
X-36752337Y77305998D01*
X-36994002Y77547663D01*
X-37278169Y77737537D01*
X-37593919Y77868325D01*
X-37929117Y77935000D01*
X-38270883Y77935000D01*
X-38606081Y77868325D01*
X-38921831Y77737537D01*
X-39205998Y77547663D01*
X-39447663Y77305998D01*
X-39637537Y77021831D01*
X-39768325Y76706081D01*
X-39835000Y76370883D01*
X-51702500Y76370883D01*
X-51702500Y92775000D01*
X-36313314Y92775000D01*
X-36310000Y92741353D01*
X-36309999Y78708657D01*
X-36313314Y78675000D01*
X-36300088Y78540717D01*
X-36260919Y78411594D01*
X-36197312Y78292593D01*
X-36111711Y78188289D01*
X-36007407Y78102688D01*
X-35888406Y78039081D01*
X-35759283Y77999912D01*
X-35658647Y77990000D01*
X-35625000Y77986686D01*
X-35591353Y77990000D01*
X-21558647Y77990000D01*
X-21525000Y77986686D01*
X-21390717Y77999912D01*
X-21261594Y78039081D01*
X-21142593Y78102688D01*
X-21038289Y78188289D01*
X-20952688Y78292593D01*
X-20889081Y78411594D01*
X-20849912Y78540717D01*
X-20840000Y78641353D01*
X-20836686Y78675000D01*
X-20840000Y78708647D01*
X-20840000Y92741353D01*
X-20836686Y92775000D01*
X-20849912Y92909283D01*
X-20889081Y93038406D01*
X-20952688Y93157407D01*
X-21038289Y93261711D01*
X-21142593Y93347312D01*
X-21261594Y93410919D01*
X-21390717Y93450088D01*
X-21491353Y93460000D01*
X-21525000Y93463314D01*
X-21558647Y93460000D01*
X-35591353Y93460000D01*
X-35625000Y93463314D01*
X-35658647Y93460000D01*
X-35759283Y93450088D01*
X-35888406Y93410919D01*
X-36007407Y93347312D01*
X-36111711Y93261711D01*
X-36197312Y93157407D01*
X-36260919Y93038406D01*
X-36300088Y92909283D01*
X-36313314Y92775000D01*
X-51702500Y92775000D01*
X-51702500Y95420883D01*
X-39835000Y95420883D01*
X-39835000Y95079117D01*
X-39768325Y94743919D01*
X-39637537Y94428169D01*
X-39447663Y94144002D01*
X-39205998Y93902337D01*
X-38921831Y93712463D01*
X-38606081Y93581675D01*
X-38270883Y93515000D01*
X-37929117Y93515000D01*
X-37593919Y93581675D01*
X-37278169Y93712463D01*
X-36994002Y93902337D01*
X-36752337Y94144002D01*
X-36562463Y94428169D01*
X-36431675Y94743919D01*
X-36365000Y95079117D01*
X-36365000Y95420883D01*
X-20785000Y95420883D01*
X-20785000Y95079117D01*
X-20718325Y94743919D01*
X-20587537Y94428169D01*
X-20397663Y94144002D01*
X-20155998Y93902337D01*
X-19871831Y93712463D01*
X-19556081Y93581675D01*
X-19220883Y93515000D01*
X-18879117Y93515000D01*
X-18543919Y93581675D01*
X-18228169Y93712463D01*
X-17944002Y93902337D01*
X-17702337Y94144002D01*
X-17512463Y94428169D01*
X-17381675Y94743919D01*
X-17315000Y95079117D01*
X-17315000Y95420883D01*
X-17381675Y95756081D01*
X-17512463Y96071831D01*
X-17702337Y96355998D01*
X-17944002Y96597663D01*
X-18228169Y96787537D01*
X-18543919Y96918325D01*
X-18879117Y96985000D01*
X-19220883Y96985000D01*
X-19556081Y96918325D01*
X-19871831Y96787537D01*
X-20155998Y96597663D01*
X-20397663Y96355998D01*
X-20587537Y96071831D01*
X-20718325Y95756081D01*
X-20785000Y95420883D01*
X-36365000Y95420883D01*
X-36431675Y95756081D01*
X-36562463Y96071831D01*
X-36752337Y96355998D01*
X-36994002Y96597663D01*
X-37278169Y96787537D01*
X-37593919Y96918325D01*
X-37929117Y96985000D01*
X-38270883Y96985000D01*
X-38606081Y96918325D01*
X-38921831Y96787537D01*
X-39205998Y96597663D01*
X-39447663Y96355998D01*
X-39637537Y96071831D01*
X-39768325Y95756081D01*
X-39835000Y95420883D01*
X-51702500Y95420883D01*
X-51702500Y97966495D01*
X-51674233Y98254782D01*
X-51600241Y98499855D01*
X-51480057Y98725890D01*
X-51318252Y98924281D01*
X-51121003Y99087460D01*
X-50895813Y99209220D01*
X-50651253Y99284924D01*
X-50365102Y99315000D01*
X-4983505Y99315000D01*
X-4695218Y99286733D01*
G04 #@! TA.AperFunction,Conductor*
D12*
G36*
X-4695218Y99286733D02*
G01*
X-4450145Y99212741D01*
X-4224110Y99092557D01*
X-4025719Y98930752D01*
X-3862540Y98733503D01*
X-3740780Y98508313D01*
X-3665076Y98263753D01*
X-3635000Y97977602D01*
X-3634999Y94808515D01*
X-3663267Y94520218D01*
X-3737259Y94275145D01*
X-3857446Y94049107D01*
X-4019246Y93850721D01*
X-4216497Y93687540D01*
X-4441690Y93565779D01*
X-4686247Y93490076D01*
X-4972398Y93460000D01*
X-16541353Y93460000D01*
X-16575000Y93463314D01*
X-16608647Y93460000D01*
X-16709283Y93450088D01*
X-16838406Y93410919D01*
X-16957407Y93347312D01*
X-17061711Y93261711D01*
X-17147312Y93157407D01*
X-17210919Y93038406D01*
X-17250088Y92909283D01*
X-17263314Y92775000D01*
X-17260000Y92741353D01*
X-17259999Y78708657D01*
X-17263314Y78675000D01*
X-17250088Y78540717D01*
X-17210919Y78411594D01*
X-17147312Y78292593D01*
X-17061711Y78188289D01*
X-16957407Y78102688D01*
X-16838406Y78039081D01*
X-16709283Y77999912D01*
X-16608647Y77990000D01*
X-16575000Y77986686D01*
X-16541353Y77990000D01*
X-3983505Y77990000D01*
X-3889453Y77980778D01*
X-3831214Y77963195D01*
X-3777499Y77934634D01*
X-3730354Y77896184D01*
X-3691576Y77849309D01*
X-3662642Y77795796D01*
X-3644651Y77737677D01*
X-3635000Y77645854D01*
X-3634999Y76691353D01*
X-3632113Y76662055D01*
X-3632156Y76655934D01*
X-3631223Y76646415D01*
X-3610822Y76452318D01*
X-3598339Y76391504D01*
X-3586705Y76330519D01*
X-3583941Y76321363D01*
X-3526229Y76134925D01*
X-3502182Y76077721D01*
X-3478913Y76020127D01*
X-3474423Y76011683D01*
X-3381598Y75840006D01*
X-3346878Y75788532D01*
X-3312883Y75736582D01*
X-3306839Y75729171D01*
X-3182435Y75578793D01*
X-3138362Y75535027D01*
X-3094943Y75490689D01*
X-3087574Y75484592D01*
X-2936332Y75361242D01*
X-2884603Y75326874D01*
X-2833392Y75291809D01*
X-2824984Y75287263D01*
X-2824980Y75287260D01*
X-2824976Y75287258D01*
X-2652657Y75195634D01*
X-2595261Y75171978D01*
X-2538193Y75147518D01*
X-2529056Y75144690D01*
X-2342220Y75088281D01*
X-2281310Y75076220D01*
X-2220591Y75063314D01*
X-2211079Y75062314D01*
X-2016845Y75043269D01*
X-2016837Y75043269D01*
X-1983647Y75040000D01*
X-1033505Y75040000D01*
X-939453Y75030778D01*
X-881214Y75013195D01*
X-827499Y74984634D01*
X-780354Y74946184D01*
X-741576Y74899309D01*
X-712642Y74845796D01*
X-694651Y74787677D01*
X-684999Y74695846D01*
X-684999Y58371173D01*
X-781242Y58415934D01*
X-1036740Y58478183D01*
X-1299473Y58489390D01*
X-1559344Y58449125D01*
X-1806366Y58358935D01*
X-1907203Y58305037D01*
X-1966664Y58071269D01*
X-1225000Y57329605D01*
X-1210858Y57343748D01*
X-1031253Y57164143D01*
X-1045395Y57150000D01*
X-1031253Y57135858D01*
X-1210858Y56956253D01*
X-1225000Y56970395D01*
X-1966664Y56228731D01*
X-1907203Y55994963D01*
X-1668758Y55884066D01*
X-1413260Y55821817D01*
X-1150527Y55810610D01*
X-890656Y55850875D01*
X-684999Y55925962D01*
X-685000Y2446173D01*
X-781242Y2490934D01*
X-1036740Y2553183D01*
X-1299473Y2564390D01*
X-1559344Y2524125D01*
X-1790147Y2439857D01*
X-1790000Y2441353D01*
X-1786686Y2475000D01*
X-1790000Y2508647D01*
X-1790000Y16541353D01*
X-1786686Y16575000D01*
X-1799912Y16709283D01*
X-1839081Y16838406D01*
X-1902688Y16957407D01*
X-1988289Y17061711D01*
X-2092593Y17147312D01*
X-2211594Y17210919D01*
X-2340717Y17250088D01*
X-2441353Y17260000D01*
X-2475000Y17263314D01*
X-2508647Y17260000D01*
X-16541353Y17260000D01*
X-16575000Y17263314D01*
X-16608647Y17260000D01*
X-16709283Y17250088D01*
X-16838406Y17210919D01*
X-16957407Y17147312D01*
X-17061711Y17061711D01*
X-17147312Y16957407D01*
X-17210919Y16838406D01*
X-17250088Y16709283D01*
X-17263314Y16575000D01*
X-17260000Y16541353D01*
X-17259999Y2508657D01*
X-17263314Y2475000D01*
X-17250088Y2340717D01*
X-17210919Y2211594D01*
X-17147312Y2092593D01*
X-17061711Y1988289D01*
X-16957407Y1902688D01*
X-16838406Y1839081D01*
X-16709283Y1799912D01*
X-16608647Y1790000D01*
X-16575000Y1786686D01*
X-16541353Y1790000D01*
X-2508647Y1790000D01*
X-2475000Y1786686D01*
X-2434219Y1790703D01*
X-2490934Y1668758D01*
X-2553183Y1413260D01*
X-2564390Y1150527D01*
X-2524125Y890656D01*
X-2449038Y685000D01*
X-50353995Y685000D01*
X-50642282Y713267D01*
X-50887355Y787259D01*
X-51113393Y907446D01*
X-51311779Y1069246D01*
X-51474960Y1266497D01*
X-51596721Y1491690D01*
X-51672424Y1736247D01*
X-51702500Y2022398D01*
X-51702500Y16575000D01*
X-38694564Y16575000D01*
X-38691250Y16541353D01*
X-38691249Y2508657D01*
X-38694564Y2475000D01*
X-38681338Y2340717D01*
X-38642169Y2211594D01*
X-38578562Y2092593D01*
X-38492961Y1988289D01*
X-38388657Y1902688D01*
X-38269656Y1839081D01*
X-38140533Y1799912D01*
X-38039897Y1790000D01*
X-38006250Y1786686D01*
X-37972603Y1790000D01*
X-23939897Y1790000D01*
X-23906250Y1786686D01*
X-23771967Y1799912D01*
X-23642844Y1839081D01*
X-23523843Y1902688D01*
X-23419539Y1988289D01*
X-23333938Y2092593D01*
X-23270331Y2211594D01*
X-23231162Y2340717D01*
X-23221250Y2441353D01*
X-23217936Y2475000D01*
X-23221250Y2508647D01*
X-23221250Y16541353D01*
X-23217936Y16575000D01*
X-23231162Y16709283D01*
X-23270331Y16838406D01*
X-23333938Y16957407D01*
X-23419539Y17061711D01*
X-23523843Y17147312D01*
X-23642844Y17210919D01*
X-23771967Y17250088D01*
X-23872603Y17260000D01*
X-23906250Y17263314D01*
X-23939897Y17260000D01*
X-37972603Y17260000D01*
X-38006250Y17263314D01*
X-38039897Y17260000D01*
X-38140533Y17250088D01*
X-38269656Y17210919D01*
X-38388657Y17147312D01*
X-38492961Y17061711D01*
X-38578562Y16957407D01*
X-38642169Y16838406D01*
X-38681338Y16709283D01*
X-38694564Y16575000D01*
X-51702500Y16575000D01*
X-51702500Y19220883D01*
X-39835000Y19220883D01*
X-39835000Y18879117D01*
X-39768325Y18543919D01*
X-39637537Y18228169D01*
X-39447663Y17944002D01*
X-39205998Y17702337D01*
X-38921831Y17512463D01*
X-38606081Y17381675D01*
X-38270883Y17315000D01*
X-37929117Y17315000D01*
X-37593919Y17381675D01*
X-37278169Y17512463D01*
X-36994002Y17702337D01*
X-36752337Y17944002D01*
X-36562463Y18228169D01*
X-36431675Y18543919D01*
X-36365000Y18879117D01*
X-36365000Y19220883D01*
X-20785000Y19220883D01*
X-20785000Y18879117D01*
X-20718325Y18543919D01*
X-20587537Y18228169D01*
X-20397663Y17944002D01*
X-20155998Y17702337D01*
X-19871831Y17512463D01*
X-19556081Y17381675D01*
X-19220883Y17315000D01*
X-18879117Y17315000D01*
X-18543919Y17381675D01*
X-18228169Y17512463D01*
X-17944002Y17702337D01*
X-17702337Y17944002D01*
X-17512463Y18228169D01*
X-17381675Y18543919D01*
X-17315000Y18879117D01*
X-17315000Y19220883D01*
X-17381675Y19556081D01*
X-17512463Y19871831D01*
X-17702337Y20155998D01*
X-17944002Y20397663D01*
X-18228169Y20587537D01*
X-18543919Y20718325D01*
X-18879117Y20785000D01*
X-19220883Y20785000D01*
X-19556081Y20718325D01*
X-19871831Y20587537D01*
X-20155998Y20397663D01*
X-20397663Y20155998D01*
X-20587537Y19871831D01*
X-20718325Y19556081D01*
X-20785000Y19220883D01*
X-36365000Y19220883D01*
X-36431675Y19556081D01*
X-36562463Y19871831D01*
X-36752337Y20155998D01*
X-36994002Y20397663D01*
X-37278169Y20587537D01*
X-37593919Y20718325D01*
X-37929117Y20785000D01*
X-38270883Y20785000D01*
X-38606081Y20718325D01*
X-38921831Y20587537D01*
X-39205998Y20397663D01*
X-39447663Y20155998D01*
X-39637537Y19871831D01*
X-39768325Y19556081D01*
X-39835000Y19220883D01*
X-51702500Y19220883D01*
X-51702500Y35625000D01*
X-43457064Y35625000D01*
X-43453750Y35591353D01*
X-43453749Y21558657D01*
X-43457064Y21525000D01*
X-43443838Y21390717D01*
X-43404669Y21261594D01*
X-43341062Y21142593D01*
X-43255461Y21038289D01*
X-43151157Y20952688D01*
X-43032156Y20889081D01*
X-42903033Y20849912D01*
X-42802397Y20840000D01*
X-42768750Y20836686D01*
X-42735103Y20840000D01*
X-28702397Y20840000D01*
X-28668750Y20836686D01*
X-28534467Y20849912D01*
X-28405344Y20889081D01*
X-28286343Y20952688D01*
X-28182039Y21038289D01*
X-28096438Y21142593D01*
X-28032831Y21261594D01*
X-27993662Y21390717D01*
X-27983750Y21491353D01*
X-27980436Y21525000D01*
X-27983750Y21558647D01*
X-27983750Y35591353D01*
X-27980436Y35625000D01*
X-17263314Y35625000D01*
X-17260000Y35591353D01*
X-17259999Y21558657D01*
X-17263314Y21525000D01*
X-17250088Y21390717D01*
X-17210919Y21261594D01*
X-17147312Y21142593D01*
X-17061711Y21038289D01*
X-16957407Y20952688D01*
X-16838406Y20889081D01*
X-16709283Y20849912D01*
X-16608647Y20840000D01*
X-16575000Y20836686D01*
X-16541353Y20840000D01*
X-2508647Y20840000D01*
X-2475000Y20836686D01*
X-2340717Y20849912D01*
X-2211594Y20889081D01*
X-2092593Y20952688D01*
X-1988289Y21038289D01*
X-1902688Y21142593D01*
X-1839081Y21261594D01*
X-1799912Y21390717D01*
X-1790000Y21491353D01*
X-1786686Y21525000D01*
X-1790000Y21558647D01*
X-1790000Y35591353D01*
X-1786686Y35625000D01*
X-1799912Y35759283D01*
X-1839081Y35888406D01*
X-1902688Y36007407D01*
X-1988289Y36111711D01*
X-2092593Y36197312D01*
X-2211594Y36260919D01*
X-2340717Y36300088D01*
X-2441353Y36310000D01*
X-2475000Y36313314D01*
X-2508647Y36310000D01*
X-16541353Y36310000D01*
X-16575000Y36313314D01*
X-16608647Y36310000D01*
X-16709283Y36300088D01*
X-16838406Y36260919D01*
X-16957407Y36197312D01*
X-17061711Y36111711D01*
X-17147312Y36007407D01*
X-17210919Y35888406D01*
X-17250088Y35759283D01*
X-17263314Y35625000D01*
X-27980436Y35625000D01*
X-27993662Y35759283D01*
X-28032831Y35888406D01*
X-28096438Y36007407D01*
X-28182039Y36111711D01*
X-28286343Y36197312D01*
X-28405344Y36260919D01*
X-28534467Y36300088D01*
X-28635103Y36310000D01*
X-28668750Y36313314D01*
X-28702397Y36310000D01*
X-42735103Y36310000D01*
X-42768750Y36313314D01*
X-42802397Y36310000D01*
X-42903033Y36300088D01*
X-43032156Y36260919D01*
X-43151157Y36197312D01*
X-43255461Y36111711D01*
X-43341062Y36007407D01*
X-43404669Y35888406D01*
X-43443838Y35759283D01*
X-43457064Y35625000D01*
X-51702500Y35625000D01*
X-51702500Y38158591D01*
X-43450919Y38158591D01*
X-43450485Y38096509D01*
X-43450919Y38034427D01*
X-43449986Y38024908D01*
X-43439786Y37927860D01*
X-43427295Y37867010D01*
X-43415668Y37806058D01*
X-43412905Y37796904D01*
X-43412903Y37796898D01*
X-43384048Y37703683D01*
X-43359996Y37646467D01*
X-43336730Y37588881D01*
X-43332240Y37580436D01*
X-43285827Y37494599D01*
X-43251112Y37443133D01*
X-43217114Y37391179D01*
X-43211070Y37383768D01*
X-43148868Y37308579D01*
X-43104820Y37264838D01*
X-43061381Y37220478D01*
X-43054011Y37214382D01*
X-43054006Y37214377D01*
X-43054000Y37214373D01*
X-42978390Y37152706D01*
X-42926709Y37118368D01*
X-42875444Y37083267D01*
X-42867031Y37078718D01*
X-42780870Y37032906D01*
X-42723454Y37009242D01*
X-42666411Y36984792D01*
X-42657275Y36981964D01*
X-42563857Y36953759D01*
X-42502937Y36941697D01*
X-42442220Y36928791D01*
X-42432708Y36927791D01*
X-42335591Y36918269D01*
X-42335587Y36918269D01*
X-42302397Y36915000D01*
X-5466353Y36915000D01*
X-5432665Y36918318D01*
X-5426178Y36918318D01*
X-5416666Y36919318D01*
X-5374539Y36924043D01*
X-5365717Y36924912D01*
X-5365086Y36925103D01*
X-5319691Y36930195D01*
X-5258995Y36943096D01*
X-5198058Y36955162D01*
X-5188921Y36957990D01*
X-5095906Y36987496D01*
X-5038805Y37011970D01*
X-4981442Y37035613D01*
X-4973029Y37040161D01*
X-4887516Y37087172D01*
X-4836301Y37122240D01*
X-4784573Y37156608D01*
X-4777211Y37162700D01*
X-4777207Y37162702D01*
X-4777204Y37162705D01*
X-4702452Y37225430D01*
X-4659015Y37269787D01*
X-4614963Y37313532D01*
X-4608918Y37320943D01*
X-4547772Y37396993D01*
X-4513764Y37448963D01*
X-4479059Y37500416D01*
X-4474568Y37508861D01*
X-4429358Y37595340D01*
X-4406106Y37652892D01*
X-4382043Y37710134D01*
X-4379279Y37719290D01*
X-4351727Y37812902D01*
X-4340092Y37873893D01*
X-4327609Y37934709D01*
X-4326675Y37944227D01*
X-4317831Y38041410D01*
X-4318265Y38103492D01*
X-4317831Y38165573D01*
X-4318764Y38175091D01*
X-4328964Y38272140D01*
X-4341453Y38332983D01*
X-4353082Y38393942D01*
X-4355846Y38403098D01*
X-4384702Y38496317D01*
X-4408768Y38553566D01*
X-4432021Y38611119D01*
X-4436511Y38619564D01*
X-4482923Y38705402D01*
X-4517650Y38756885D01*
X-4551636Y38808821D01*
X-4557680Y38816233D01*
X-4619882Y38891421D01*
X-4663949Y38935182D01*
X-4707370Y38979522D01*
X-4714739Y38985619D01*
X-4790360Y39047294D01*
X-4842041Y39081632D01*
X-4893306Y39116733D01*
X-4901719Y39121282D01*
X-4987880Y39167094D01*
X-5045296Y39190758D01*
X-5102339Y39215208D01*
X-5111475Y39218036D01*
X-5204893Y39246241D01*
X-5265805Y39258302D01*
X-5326529Y39271209D01*
X-5336041Y39272209D01*
X-5433159Y39281731D01*
X-5433163Y39281731D01*
X-5466353Y39285000D01*
X-42302397Y39285000D01*
X-42336085Y39281682D01*
X-42342572Y39281682D01*
X-42352084Y39280682D01*
X-42394211Y39275957D01*
X-42403033Y39275088D01*
X-42403664Y39274897D01*
X-42449059Y39269805D01*
X-42509762Y39256902D01*
X-42570692Y39244838D01*
X-42579829Y39242010D01*
X-42672844Y39212504D01*
X-42729933Y39188035D01*
X-42787308Y39164387D01*
X-42795722Y39159838D01*
X-42881234Y39112828D01*
X-42932476Y39077742D01*
X-42984177Y39043391D01*
X-42991539Y39037300D01*
X-42991543Y39037298D01*
X-42991546Y39037295D01*
X-43066298Y38974570D01*
X-43109719Y38930229D01*
X-43153787Y38886468D01*
X-43159832Y38879057D01*
X-43220978Y38803007D01*
X-43254976Y38751053D01*
X-43289691Y38699584D01*
X-43294182Y38691139D01*
X-43339392Y38604660D01*
X-43362637Y38547125D01*
X-43386707Y38489866D01*
X-43389471Y38480710D01*
X-43417023Y38387098D01*
X-43428656Y38326115D01*
X-43441141Y38265292D01*
X-43442075Y38255773D01*
X-43450919Y38158591D01*
X-51702500Y38158591D01*
X-51702500Y54675000D01*
X-43457064Y54675000D01*
X-43453750Y54641353D01*
X-43453749Y40608657D01*
X-43457064Y40575000D01*
X-43443838Y40440717D01*
X-43404669Y40311594D01*
X-43341062Y40192593D01*
X-43255461Y40088289D01*
X-43151157Y40002688D01*
X-43032156Y39939081D01*
X-42903033Y39899912D01*
X-42802397Y39890000D01*
X-42768750Y39886686D01*
X-42735103Y39890000D01*
X-28702397Y39890000D01*
X-28668750Y39886686D01*
X-28534467Y39899912D01*
X-28405344Y39939081D01*
X-28286343Y40002688D01*
X-28182039Y40088289D01*
X-28096438Y40192593D01*
X-28032831Y40311594D01*
X-27993662Y40440717D01*
X-27983750Y40541353D01*
X-27980436Y40575000D01*
X-27983750Y40608647D01*
X-27983750Y54641353D01*
X-27980436Y54675000D01*
X-17263314Y54675000D01*
X-17260000Y54641353D01*
X-17259999Y40608657D01*
X-17263314Y40575000D01*
X-17250088Y40440717D01*
X-17210919Y40311594D01*
X-17147312Y40192593D01*
X-17061711Y40088289D01*
X-16957407Y40002688D01*
X-16838406Y39939081D01*
X-16709283Y39899912D01*
X-16608647Y39890000D01*
X-16575000Y39886686D01*
X-16541353Y39890000D01*
X-2508647Y39890000D01*
X-2475000Y39886686D01*
X-2340717Y39899912D01*
X-2211594Y39939081D01*
X-2092593Y40002688D01*
X-1988289Y40088289D01*
X-1902688Y40192593D01*
X-1839081Y40311594D01*
X-1799912Y40440717D01*
X-1790000Y40541353D01*
X-1786686Y40575000D01*
X-1790000Y40608647D01*
X-1790000Y54641353D01*
X-1786686Y54675000D01*
X-1799912Y54809283D01*
X-1839081Y54938406D01*
X-1902688Y55057407D01*
X-1988289Y55161711D01*
X-2092593Y55247312D01*
X-2211594Y55310919D01*
X-2340717Y55350088D01*
X-2441353Y55360000D01*
X-2475000Y55363314D01*
X-2508647Y55360000D01*
X-16541353Y55360000D01*
X-16575000Y55363314D01*
X-16608647Y55360000D01*
X-16709283Y55350088D01*
X-16838406Y55310919D01*
X-16957407Y55247312D01*
X-17061711Y55161711D01*
X-17147312Y55057407D01*
X-17210919Y54938406D01*
X-17250088Y54809283D01*
X-17263314Y54675000D01*
X-27980436Y54675000D01*
X-27993662Y54809283D01*
X-28032831Y54938406D01*
X-28096438Y55057407D01*
X-28182039Y55161711D01*
X-28286343Y55247312D01*
X-28405344Y55310919D01*
X-28534467Y55350088D01*
X-28635103Y55360000D01*
X-28668750Y55363314D01*
X-28702397Y55360000D01*
X-42735103Y55360000D01*
X-42768750Y55363314D01*
X-42802397Y55360000D01*
X-42903033Y55350088D01*
X-43032156Y55310919D01*
X-43151157Y55247312D01*
X-43255461Y55161711D01*
X-43341062Y55057407D01*
X-43404669Y54938406D01*
X-43443838Y54809283D01*
X-43457064Y54675000D01*
X-51702500Y54675000D01*
X-51702500Y57320883D01*
X-39835000Y57320883D01*
X-39835000Y56979117D01*
X-39768325Y56643919D01*
X-39637537Y56328169D01*
X-39447663Y56044002D01*
X-39205998Y55802337D01*
X-38921831Y55612463D01*
X-38606081Y55481675D01*
X-38270883Y55415000D01*
X-37929117Y55415000D01*
X-37593919Y55481675D01*
X-37278169Y55612463D01*
X-36994002Y55802337D01*
X-36752337Y56044002D01*
X-36562463Y56328169D01*
X-36431675Y56643919D01*
X-36365000Y56979117D01*
X-36365000Y57320883D01*
X-20785000Y57320883D01*
X-20785000Y56979117D01*
X-20718325Y56643919D01*
X-20587537Y56328169D01*
X-20397663Y56044002D01*
X-20155998Y55802337D01*
X-19871831Y55612463D01*
X-19556081Y55481675D01*
X-19220883Y55415000D01*
X-18879117Y55415000D01*
X-18543919Y55481675D01*
X-18228169Y55612463D01*
X-17944002Y55802337D01*
X-17702337Y56044002D01*
X-17512463Y56328169D01*
X-17381675Y56643919D01*
X-17315000Y56979117D01*
X-17315000Y57075527D01*
X-2564390Y57075527D01*
X-2524125Y56815656D01*
X-2433935Y56568634D01*
X-2380037Y56467797D01*
X-2146269Y56408336D01*
X-1404605Y57150000D01*
X-2146269Y57891664D01*
X-2380037Y57832203D01*
X-2490934Y57593758D01*
X-2553183Y57338260D01*
X-2564390Y57075527D01*
X-17315000Y57075527D01*
X-17315000Y57320883D01*
X-17381675Y57656081D01*
X-17512463Y57971831D01*
X-17702337Y58255998D01*
X-17944002Y58497663D01*
X-18228169Y58687537D01*
X-18543919Y58818325D01*
X-18879117Y58885000D01*
X-19220883Y58885000D01*
X-19556081Y58818325D01*
X-19871831Y58687537D01*
X-20155998Y58497663D01*
X-20397663Y58255998D01*
X-20587537Y57971831D01*
X-20718325Y57656081D01*
X-20785000Y57320883D01*
X-36365000Y57320883D01*
X-36431675Y57656081D01*
X-36562463Y57971831D01*
X-36752337Y58255998D01*
X-36994002Y58497663D01*
X-37278169Y58687537D01*
X-37593919Y58818325D01*
X-37929117Y58885000D01*
X-38270883Y58885000D01*
X-38606081Y58818325D01*
X-38921831Y58687537D01*
X-39205998Y58497663D01*
X-39447663Y58255998D01*
X-39637537Y57971831D01*
X-39768325Y57656081D01*
X-39835000Y57320883D01*
X-51702500Y57320883D01*
X-51702500Y73725000D01*
X-41075814Y73725000D01*
X-41072500Y73691353D01*
X-41072499Y59658657D01*
X-41075814Y59625000D01*
X-41062588Y59490717D01*
X-41023419Y59361594D01*
X-40959812Y59242593D01*
X-40874211Y59138289D01*
X-40769907Y59052688D01*
X-40650906Y58989081D01*
X-40521783Y58949912D01*
X-40421147Y58940000D01*
X-40387500Y58936686D01*
X-40353853Y58940000D01*
X-26321147Y58940000D01*
X-26287500Y58936686D01*
X-26153217Y58949912D01*
X-26024094Y58989081D01*
X-25905093Y59052688D01*
X-25800789Y59138289D01*
X-25715188Y59242593D01*
X-25651581Y59361594D01*
X-25612412Y59490717D01*
X-25602500Y59591353D01*
X-25599186Y59625000D01*
X-25602500Y59658647D01*
X-25602500Y73691353D01*
X-25599186Y73725000D01*
X-17263314Y73725000D01*
X-17260000Y73691353D01*
X-17259999Y59658657D01*
X-17263314Y59625000D01*
X-17250088Y59490717D01*
X-17210919Y59361594D01*
X-17147312Y59242593D01*
X-17061711Y59138289D01*
X-16957407Y59052688D01*
X-16838406Y58989081D01*
X-16709283Y58949912D01*
X-16608647Y58940000D01*
X-16575000Y58936686D01*
X-16541353Y58940000D01*
X-2508647Y58940000D01*
X-2475000Y58936686D01*
X-2340717Y58949912D01*
X-2211594Y58989081D01*
X-2092593Y59052688D01*
X-1988289Y59138289D01*
X-1902688Y59242593D01*
X-1839081Y59361594D01*
X-1799912Y59490717D01*
X-1790000Y59591353D01*
X-1786686Y59625000D01*
X-1790000Y59658647D01*
X-1790000Y73691353D01*
X-1786686Y73725000D01*
X-1799912Y73859283D01*
X-1839081Y73988406D01*
X-1902688Y74107407D01*
X-1988289Y74211711D01*
X-2092593Y74297312D01*
X-2211594Y74360919D01*
X-2340717Y74400088D01*
X-2441353Y74410000D01*
X-2475000Y74413314D01*
X-2508647Y74410000D01*
X-16541353Y74410000D01*
X-16575000Y74413314D01*
X-16608647Y74410000D01*
X-16709283Y74400088D01*
X-16838406Y74360919D01*
X-16957407Y74297312D01*
X-17061711Y74211711D01*
X-17147312Y74107407D01*
X-17210919Y73988406D01*
X-17250088Y73859283D01*
X-17263314Y73725000D01*
X-25599186Y73725000D01*
X-25612412Y73859283D01*
X-25651581Y73988406D01*
X-25715188Y74107407D01*
X-25800789Y74211711D01*
X-25905093Y74297312D01*
X-26024094Y74360919D01*
X-26153217Y74400088D01*
X-26253853Y74410000D01*
X-26287500Y74413314D01*
X-26321147Y74410000D01*
X-40353853Y74410000D01*
X-40387500Y74413314D01*
X-40421147Y74410000D01*
X-40521783Y74400088D01*
X-40650906Y74360919D01*
X-40769907Y74297312D01*
X-40874211Y74211711D01*
X-40959812Y74107407D01*
X-41023419Y73988406D01*
X-41062588Y73859283D01*
X-41075814Y73725000D01*
X-51702500Y73725000D01*
X-51702500Y76370883D01*
X-39835000Y76370883D01*
X-39835000Y76029117D01*
X-39768325Y75693919D01*
X-39637537Y75378169D01*
X-39447663Y75094002D01*
X-39205998Y74852337D01*
X-38921831Y74662463D01*
X-38606081Y74531675D01*
X-38270883Y74465000D01*
X-37929117Y74465000D01*
X-37593919Y74531675D01*
X-37278169Y74662463D01*
X-36994002Y74852337D01*
X-36752337Y75094002D01*
X-36562463Y75378169D01*
X-36431675Y75693919D01*
X-36365000Y76029117D01*
X-36365000Y76370883D01*
X-20785000Y76370883D01*
X-20785000Y76029117D01*
X-20718325Y75693919D01*
X-20587537Y75378169D01*
X-20397663Y75094002D01*
X-20155998Y74852337D01*
X-19871831Y74662463D01*
X-19556081Y74531675D01*
X-19220883Y74465000D01*
X-18879117Y74465000D01*
X-18543919Y74531675D01*
X-18228169Y74662463D01*
X-17944002Y74852337D01*
X-17702337Y75094002D01*
X-17512463Y75378169D01*
X-17381675Y75693919D01*
X-17315000Y76029117D01*
X-17315000Y76370883D01*
X-17381675Y76706081D01*
X-17512463Y77021831D01*
X-17702337Y77305998D01*
X-17944002Y77547663D01*
X-18228169Y77737537D01*
X-18543919Y77868325D01*
X-18879117Y77935000D01*
X-19220883Y77935000D01*
X-19556081Y77868325D01*
X-19871831Y77737537D01*
X-20155998Y77547663D01*
X-20397663Y77305998D01*
X-20587537Y77021831D01*
X-20718325Y76706081D01*
X-20785000Y76370883D01*
X-36365000Y76370883D01*
X-36431675Y76706081D01*
X-36562463Y77021831D01*
X-36752337Y77305998D01*
X-36994002Y77547663D01*
X-37278169Y77737537D01*
X-37593919Y77868325D01*
X-37929117Y77935000D01*
X-38270883Y77935000D01*
X-38606081Y77868325D01*
X-38921831Y77737537D01*
X-39205998Y77547663D01*
X-39447663Y77305998D01*
X-39637537Y77021831D01*
X-39768325Y76706081D01*
X-39835000Y76370883D01*
X-51702500Y76370883D01*
X-51702500Y92775000D01*
X-36313314Y92775000D01*
X-36310000Y92741353D01*
X-36309999Y78708657D01*
X-36313314Y78675000D01*
X-36300088Y78540717D01*
X-36260919Y78411594D01*
X-36197312Y78292593D01*
X-36111711Y78188289D01*
X-36007407Y78102688D01*
X-35888406Y78039081D01*
X-35759283Y77999912D01*
X-35658647Y77990000D01*
X-35625000Y77986686D01*
X-35591353Y77990000D01*
X-21558647Y77990000D01*
X-21525000Y77986686D01*
X-21390717Y77999912D01*
X-21261594Y78039081D01*
X-21142593Y78102688D01*
X-21038289Y78188289D01*
X-20952688Y78292593D01*
X-20889081Y78411594D01*
X-20849912Y78540717D01*
X-20840000Y78641353D01*
X-20836686Y78675000D01*
X-20840000Y78708647D01*
X-20840000Y92741353D01*
X-20836686Y92775000D01*
X-20849912Y92909283D01*
X-20889081Y93038406D01*
X-20952688Y93157407D01*
X-21038289Y93261711D01*
X-21142593Y93347312D01*
X-21261594Y93410919D01*
X-21390717Y93450088D01*
X-21491353Y93460000D01*
X-21525000Y93463314D01*
X-21558647Y93460000D01*
X-35591353Y93460000D01*
X-35625000Y93463314D01*
X-35658647Y93460000D01*
X-35759283Y93450088D01*
X-35888406Y93410919D01*
X-36007407Y93347312D01*
X-36111711Y93261711D01*
X-36197312Y93157407D01*
X-36260919Y93038406D01*
X-36300088Y92909283D01*
X-36313314Y92775000D01*
X-51702500Y92775000D01*
X-51702500Y95420883D01*
X-39835000Y95420883D01*
X-39835000Y95079117D01*
X-39768325Y94743919D01*
X-39637537Y94428169D01*
X-39447663Y94144002D01*
X-39205998Y93902337D01*
X-38921831Y93712463D01*
X-38606081Y93581675D01*
X-38270883Y93515000D01*
X-37929117Y93515000D01*
X-37593919Y93581675D01*
X-37278169Y93712463D01*
X-36994002Y93902337D01*
X-36752337Y94144002D01*
X-36562463Y94428169D01*
X-36431675Y94743919D01*
X-36365000Y95079117D01*
X-36365000Y95420883D01*
X-20785000Y95420883D01*
X-20785000Y95079117D01*
X-20718325Y94743919D01*
X-20587537Y94428169D01*
X-20397663Y94144002D01*
X-20155998Y93902337D01*
X-19871831Y93712463D01*
X-19556081Y93581675D01*
X-19220883Y93515000D01*
X-18879117Y93515000D01*
X-18543919Y93581675D01*
X-18228169Y93712463D01*
X-17944002Y93902337D01*
X-17702337Y94144002D01*
X-17512463Y94428169D01*
X-17381675Y94743919D01*
X-17315000Y95079117D01*
X-17315000Y95420883D01*
X-17381675Y95756081D01*
X-17512463Y96071831D01*
X-17702337Y96355998D01*
X-17944002Y96597663D01*
X-18228169Y96787537D01*
X-18543919Y96918325D01*
X-18879117Y96985000D01*
X-19220883Y96985000D01*
X-19556081Y96918325D01*
X-19871831Y96787537D01*
X-20155998Y96597663D01*
X-20397663Y96355998D01*
X-20587537Y96071831D01*
X-20718325Y95756081D01*
X-20785000Y95420883D01*
X-36365000Y95420883D01*
X-36431675Y95756081D01*
X-36562463Y96071831D01*
X-36752337Y96355998D01*
X-36994002Y96597663D01*
X-37278169Y96787537D01*
X-37593919Y96918325D01*
X-37929117Y96985000D01*
X-38270883Y96985000D01*
X-38606081Y96918325D01*
X-38921831Y96787537D01*
X-39205998Y96597663D01*
X-39447663Y96355998D01*
X-39637537Y96071831D01*
X-39768325Y95756081D01*
X-39835000Y95420883D01*
X-51702500Y95420883D01*
X-51702500Y97966495D01*
X-51674233Y98254782D01*
X-51600241Y98499855D01*
X-51480057Y98725890D01*
X-51318252Y98924281D01*
X-51121003Y99087460D01*
X-50895813Y99209220D01*
X-50651253Y99284924D01*
X-50365102Y99315000D01*
X-4983505Y99315000D01*
X-4695218Y99286733D01*
G37*
G04 #@! TD.AperFunction*
D11*
X-1031253Y1239143D02*
X-1045395Y1225000D01*
X-1031253Y1210858D01*
X-1210858Y1031253D01*
X-1225000Y1045395D01*
X-1239143Y1031253D01*
X-1418748Y1210858D01*
X-1404605Y1225000D01*
X-1418748Y1239143D01*
X-1239143Y1418748D01*
X-1225000Y1404605D01*
X-1210858Y1418748D01*
X-1031253Y1239143D01*
G04 #@! TA.AperFunction,Conductor*
D12*
G36*
X-1031253Y1239143D02*
G01*
X-1045395Y1225000D01*
X-1031253Y1210858D01*
X-1210858Y1031253D01*
X-1225000Y1045395D01*
X-1239143Y1031253D01*
X-1418748Y1210858D01*
X-1404605Y1225000D01*
X-1418748Y1239143D01*
X-1239143Y1418748D01*
X-1225000Y1404605D01*
X-1210858Y1418748D01*
X-1031253Y1239143D01*
G37*
G04 #@! TD.AperFunction*
M02*
